<svg xmlns="http://www.w3.org/2000/svg" xmlns:xlink="http://www.w3.org/1999/xlink" viewBox="-105 327 300 140"><style>.st0{clip-path:url(#SVGID_2_);} .st1{clip-path:url(#SVGID_4_);fill:#010101;} .st2{clip-path:url(#SVGID_6_);} .st3{clip-path:url(#SVGID_8_);} .st4{clip-path:url(#SVGID_10_);} .st5{clip-path:url(#SVGID_12_);} .st6{clip-path:url(#SVGID_14_);} .st7{clip-path:url(#SVGID_16_);} .st8{clip-path:url(#SVGID_18_);} .st9{clip-path:url(#SVGID_20_);} .st10{clip-path:url(#SVGID_22_);} .st11{clip-path:url(#SVGID_24_);} .st12{clip-path:url(#SVGID_26_);} .st13{clip-path:url(#SVGID_28_);} .st14{clip-path:url(#SVGID_30_);fill:#FFFFFF;} .st15{clip-path:url(#SVGID_32_);fill:#FFFFFF;} .st16{clip-path:url(#SVGID_34_);fill:#FFFFFF;} .st17{clip-path:url(#SVGID_36_);fill:#FFFFFF;} .st18{clip-path:url(#SVGID_38_);fill:#FFFFFF;} .st19{clip-path:url(#SVGID_40_);fill:#FFFFFF;} .st20{clip-path:url(#SVGID_42_);fill:#FFFFFF;} .st21{clip-path:url(#SVGID_44_);fill:#FFFFFF;} .st22{clip-path:url(#SVGID_46_);fill:#FFFFFF;} .st23{clip-path:url(#SVGID_48_);fill:#FFFFFF;} .st24{clip-path:url(#SVGID_50_);fill:#FFFFFF;} .st25{clip-path:url(#SVGID_52_);fill:#FFFFFF;} .st26{clip-path:url(#SVGID_54_);fill:#FFFFFF;} .st27{clip-path:url(#SVGID_56_);fill:#FFFFFF;} .st28{clip-path:url(#SVGID_58_);fill:#FFFFFF;} .st29{clip-path:url(#SVGID_60_);fill:#FFFFFF;} .st30{clip-path:url(#SVGID_62_);fill:#FFFFFF;} .st31{clip-path:url(#SVGID_64_);fill:#FFFFFF;} .st32{clip-path:url(#SVGID_66_);fill:#FFFFFF;} .st33{clip-path:url(#SVGID_68_);fill:#FFFFFF;} .st34{clip-path:url(#SVGID_70_);fill:#FFFFFF;} .st35{clip-path:url(#SVGID_72_);fill:#FFFFFF;} .st36{clip-path:url(#SVGID_74_);fill:#FFFFFF;} .st37{clip-path:url(#SVGID_76_);fill:#FFFFFF;} .st38{clip-path:url(#SVGID_78_);fill:#FFFFFF;} .st39{fill:none;stroke:#FFFFFF;stroke-width:1.188;stroke-miterlimit:10;} .st40{clip-path:url(#SVGID_80_);fill:#1A191A;} .st41{clip-path:url(#SVGID_82_);fill:#FFFFFF;} .st42{clip-path:url(#SVGID_84_);fill:#FFFFFF;} .st43{clip-path:url(#SVGID_86_);fill:#1A191A;} .st44{clip-path:url(#SVGID_88_);fill:#FFFFFF;} .st45{clip-path:url(#SVGID_90_);fill:#FFFFFF;} .st46{clip-path:url(#SVGID_92_);fill:#FFFFFF;} .st47{clip-path:url(#SVGID_94_);fill:#FFFFFF;} .st48{clip-path:url(#SVGID_96_);fill:#FFFFFF;} .st49{clip-path:url(#SVGID_98_);fill:#FFFFFF;} .st50{clip-path:url(#SVGID_100_);fill:#FFFFFF;} .st51{clip-path:url(#SVGID_102_);fill:#FFFFFF;} .st52{clip-path:url(#SVGID_104_);fill:#FFFFFF;} .st53{clip-path:url(#SVGID_106_);fill:#FFFFFF;} .st54{clip-path:url(#SVGID_108_);fill:#FFFFFF;} .st55{clip-path:url(#SVGID_110_);fill:#1A191A;} .st56{clip-path:url(#SVGID_112_);fill:#FFFFFF;} .st57{clip-path:url(#SVGID_114_);fill:#1A191A;} .st58{clip-path:url(#SVGID_116_);fill:#FFFFFF;} .st59{clip-path:url(#SVGID_118_);fill:#FFFFFF;} .st60{clip-path:url(#SVGID_120_);fill:#FFFFFF;} .st61{clip-path:url(#SVGID_122_);fill:#FFFFFF;} .st62{clip-path:url(#SVGID_124_);fill:#FFFFFF;} .st63{fill:none;} .st64{clip-path:url(#SVGID_126_);fill:#FFFFFF;} .st65{clip-path:url(#SVGID_128_);fill:#FFFFFF;} .st66{clip-path:url(#SVGID_130_);fill:#FFFFFF;} .st67{clip-path:url(#SVGID_132_);fill:#FFFFFF;} .st68{clip-path:url(#SVGID_134_);fill:#FFFFFF;} .st69{clip-path:url(#SVGID_136_);fill:#FFFFFF;} .st70{clip-path:url(#SVGID_138_);fill:#FFFFFF;} .st71{clip-path:url(#SVGID_140_);fill:#FFFFFF;} .st72{clip-path:url(#SVGID_142_);fill:#FFFFFF;} .st73{clip-path:url(#SVGID_144_);fill:#FFFFFF;} .st74{clip-path:url(#SVGID_146_);fill:#FFFFFF;} .st75{clip-path:url(#SVGID_148_);fill:#FFFFFF;} .st76{clip-path:url(#SVGID_150_);fill:#FFFFFF;} .st77{clip-path:url(#SVGID_152_);fill:#FFFFFF;} .st78{clip-path:url(#SVGID_154_);fill:#FFFFFF;} .st79{clip-path:url(#SVGID_156_);fill:#FFFFFF;} .st80{clip-path:url(#SVGID_158_);fill:#FFFFFF;} .st81{clip-path:url(#SVGID_160_);fill:#FFFFFF;} .st82{clip-path:url(#SVGID_162_);fill:#FFFFFF;} .st83{clip-path:url(#SVGID_164_);fill:#FFFFFF;} .st84{clip-path:url(#SVGID_166_);fill:#FFFFFF;} .st85{clip-path:url(#SVGID_168_);fill:#FFFFFF;} .st86{clip-path:url(#SVGID_170_);fill:#FFFFFF;} .st87{clip-path:url(#SVGID_172_);fill:#FFFFFF;} .st88{clip-path:url(#SVGID_174_);fill:#FFFFFF;} .st89{clip-path:url(#SVGID_176_);fill:#FFFFFF;} .st90{clip-path:url(#SVGID_178_);fill:#FFFFFF;} .st91{fill:none;stroke:#FFFFFF;stroke-width:0.379;stroke-miterlimit:10;}</style><g id="Layer_1"><defs><path id="SVGID_1_" d="M-154.406 296.594h1600v2349h-1600z"/></defs><clipPath id="SVGID_2_"><use xlink:href="#SVGID_1_" overflow="visible"/></clipPath><g class="st0"><defs><path id="SVGID_3_" d="M-106.333 326.365h302.667V467.61h-302.667z"/></defs><clipPath id="SVGID_4_"><use xlink:href="#SVGID_3_" overflow="visible"/></clipPath><path class="st1" d="M-110.92 321.336h311.84v150.896h-311.84z"/></g><g class="st0"><defs><path id="SVGID_5_" d="M-154.406 296.594h1600v2349h-1600z"/></defs><clipPath id="SVGID_6_"><use xlink:href="#SVGID_5_" overflow="visible"/></clipPath><g class="st2"><defs><path id="SVGID_7_" d="M-154.406 296.594h1600v2349h-1600z"/></defs><clipPath id="SVGID_8_"><use xlink:href="#SVGID_7_" overflow="visible"/></clipPath><g class="st3"><defs><path id="SVGID_9_" d="M-154.406 296.594h1600v2349h-1600z"/></defs><clipPath id="SVGID_10_"><use xlink:href="#SVGID_9_" overflow="visible"/></clipPath><g class="st4"><defs><path id="SVGID_11_" d="M-154.406 296.594h1600v2349h-1600z"/></defs><clipPath id="SVGID_12_"><use xlink:href="#SVGID_11_" overflow="visible"/></clipPath><g class="st5"><defs><path id="SVGID_13_" d="M-154.406 296.594h1600v2349h-1600z"/></defs><clipPath id="SVGID_14_"><use xlink:href="#SVGID_13_" overflow="visible"/></clipPath><g class="st6"><defs><path id="SVGID_15_" d="M-154.406 296.594h1600v2349h-1600z"/></defs><clipPath id="SVGID_16_"><use xlink:href="#SVGID_15_" overflow="visible"/></clipPath><g class="st7"><defs><path id="SVGID_17_" d="M-154.406 296.594h1600v2349h-1600z"/></defs><clipPath id="SVGID_18_"><use xlink:href="#SVGID_17_" overflow="visible"/></clipPath><g class="st8"><defs><path id="SVGID_19_" d="M-154.406 296.594h1600v2349h-1600z"/></defs><clipPath id="SVGID_20_"><use xlink:href="#SVGID_19_" overflow="visible"/></clipPath><g class="st9"><defs><path id="SVGID_21_" d="M-154.406 296.594h1600v2349h-1600z"/></defs><clipPath id="SVGID_22_"><use xlink:href="#SVGID_21_" overflow="visible"/></clipPath><g class="st10"><defs><path id="SVGID_23_" d="M-154.406 296.594h1600v2349h-1600z"/></defs><clipPath id="SVGID_24_"><use xlink:href="#SVGID_23_" overflow="visible"/></clipPath><g class="st11"><defs><path id="SVGID_25_" d="M-154.406 296.594h1600v2349h-1600z"/></defs><clipPath id="SVGID_26_"><use xlink:href="#SVGID_25_" overflow="visible"/></clipPath><g class="st12"><defs><path id="SVGID_27_" d="M-154.406 296.594h1600v2349h-1600z"/></defs><clipPath id="SVGID_28_"><use xlink:href="#SVGID_27_" overflow="visible"/></clipPath><g class="st13"><defs><path id="SVGID_29_" d="M-60.823 413.883l-.072.026-.03.01-.322.04h-1.737l-.1-.01-.757-.02c-.05 0-.18 0-.18.11 0 .06.04.1.11.1l.24.02c.2.04.26.12.28.38l.01 1.65v1.35l-.04 1.65c-.03.22-.07.35-.18.37l-.22.03c-.08 0-.12.05-.12.1 0 .12.13.12.18.12l.74-.02.28.01 1.59.04c.3 0 .4 0 .46-.24l.1-.76c0-.06 0-.17-.11-.17-.1 0-.12.1-.13.16-.05.29-.14.43-.31.51-.19.08-.51.08-.71.08-.74 0-.81-.1-.83-.58v-1.99l1.08.04c.26.02.32.13.34.23l.03.23c0 .07.04.13.11.13.11 0 .11-.14.11-.2l.03-.49.06-.44c0-.11-.08-.12-.1-.12l-.15.11c-.06.06-.15.08-.33.1l-1.2.01.01-2.14c-.01-.02 1.02 0 1.02 0 .42.04.46.13.49.22l.04.25c0 .14.08.16.12.16.04 0 .08-.03.11-.13l.03-.38v-.14l.05-.26.01-.1c0-.12-.07-.13-.09-.13h-.01"/></defs><clipPath id="SVGID_30_"><use xlink:href="#SVGID_29_" overflow="visible"/></clipPath><path class="st14" d="M-68.716 409.19h12.868v15.378h-12.868z"/></g><g class="st13"><defs><path id="SVGID_31_" d="M-52.235 413.96l-.13.008-.106-.006-.7-.016c-.05 0-.18 0-.18.117 0 .06.05.105.11.105l.24.02c.22.05.26.144.28.385l.01 1.65v.96c0 .914-.13 1.465-.43 1.838-.27.33-.71.54-1.15.54-.43 0-.75-.07-1.11-.41-.28-.26-.55-.69-.55-1.85v-1.07l.01-1.65c.02-.26.07-.36.23-.38l.18-.02c.07 0 .12-.04.12-.1 0-.11-.14-.11-.18-.11l-.76.03-.16-.01-.72-.01c-.05 0-.18 0-.18.12 0 .06.05.11.12.11l.24.02c.21.04.27.13.28.38l.01 1.65v1.12c0 1.24.36 1.75.68 2.06.51.49 1.22.56 1.6.56.41 0 1.02-.06 1.6-.58.64-.57.72-1.55.72-2.33v-.82l.01-1.65c.01-.26.07-.35.23-.38l.18-.02c.07 0 .12-.04.12-.1 0-.11-.14-.11-.18-.11l-.51.01"/></defs><clipPath id="SVGID_32_"><use xlink:href="#SVGID_31_" overflow="visible"/></clipPath><path class="st15" d="M-62.054 409.25h15.2v15.405h-15.2z"/></g><g class="st13"><defs><path id="SVGID_33_" d="M-50.196 414.275l-.008 4.395c0 .685-.037.874-.187.917l-.3.04c-.08 0-.12.055-.12.105 0 .118.12.118.18.118l.6-.016.12-.005h.11l.69.01c.05 0 .19 0 .19-.12 0-.05-.04-.11-.12-.11l-.37-.04c-.16-.05-.24-.19-.26-.84l-.1-3.51 1.87 2.08 1.98 2.08c.43.43.51.5.59.5.11 0 .12-.1.12-.61l.01-4.49c0-.48.04-.58.24-.63l.17-.02c.09 0 .14-.06.14-.11 0-.11-.13-.11-.2-.11l-.51.01h-.14l-.16-.01-.63-.02c-.07 0-.21 0-.21.11 0 .07.04.11.12.11l.36.03c.18.05.25.15.25.67 0 0 .07 3.03.08 3.74l-1.72-1.89-2.48-2.7-.24-.2c-.13 0-.14.17-.14.44"/></defs><clipPath id="SVGID_34_"><use xlink:href="#SVGID_33_" overflow="visible"/></clipPath><path class="st16" d="M-55.498 409.142h15.612v15.46h-15.612z"/></g><g class="st13"><defs><path id="SVGID_35_" d="M-42.41 413.96l-.124.007-.768-.023c-.043 0-.18 0-.18.118 0 .06.05.104.118.104l.22.028c.12.028.2.1.217.377l.014 1.66v1.35l-.037 1.66c-.032.23-.068.35-.175.37l-.216.03c-.09 0-.12.06-.12.11 0 .12.13.12.18.12l.74-.02.08.01.85.02c.16 0 .17-.08.17-.12 0-.05-.04-.11-.12-.11l-.34-.03c-.18-.02-.23-.14-.25-.37l-.04-1.65v-1.35l.01-1.65c.01-.26.07-.35.23-.38l.17-.02c.07 0 .12-.04.12-.1 0-.11-.14-.11-.18-.11l-.62.02z"/></defs><clipPath id="SVGID_36_"><use xlink:href="#SVGID_35_" overflow="visible"/></clipPath><path class="st17" d="M-48.174 409.25h11.447v15.292h-11.447z"/></g><g class="st13"><defs><path id="SVGID_37_" d="M-35.615 413.96l-.114.008-.17-.008-.56-.014c-.08 0-.22 0-.22.117 0 .043.02.105.14.105l.27.028c.05.025.06.086.06.12l-.07.27c-.15.513-1.09 2.997-1.56 4.117l-1.41-3.787c-.1-.26-.2-.522-.2-.616 0-.04.01-.075.07-.102l.27-.03c.12 0 .14-.072.14-.113 0-.11-.16-.11-.26-.11l-.55.014h-.15l-.19-.01-.7-.02c-.1 0-.25 0-.25.11 0 .07.05.11.12.11l.27.02c.24.07.35.14.51.56l1.86 4.69c.16.4.21.51.33.51.1 0 .13-.08.25-.34l.13-.28.88-2.08.48-1.17.48-1.16c.2-.51.31-.64.39-.7l.34-.08c.13 0 .15-.07.15-.11 0-.08-.07-.11-.19-.11l-.48.01"/></defs><clipPath id="SVGID_38_"><use xlink:href="#SVGID_37_" overflow="visible"/></clipPath><path class="st18" d="M-45.812 409.25h15.56v15.405h-15.56z"/></g><g class="st13"><defs><path id="SVGID_39_" d="M-31.394 413.883l-.073.026-.032.01-.32.04h-1.73l-.1-.01-.75-.02c-.04 0-.18 0-.18.11 0 .06.05.1.12.1l.25.02c.21.04.27.12.28.38l.02 1.65v1.35l-.04 1.65c-.03.22-.06.35-.17.37l-.22.03c-.08 0-.12.05-.12.1 0 .12.14.12.18.12l.75-.02.29.01 1.59.04c.3 0 .41 0 .47-.24l.1-.76c0-.06 0-.17-.1-.17-.09 0-.11.1-.12.16-.05.29-.13.43-.31.51-.18.08-.51.08-.7.08-.73 0-.8-.1-.82-.58v-1.99l1.08.04c.29.03.33.15.35.22l.03.23c0 .08.04.13.11.13.11 0 .11-.13.11-.2l.03-.49.06-.44c0-.11-.07-.12-.09-.12l-.14.09c-.07.08-.16.1-.33.11l-1.19.02.01-2.14c-.01-.02 1.02 0 1.02 0 .41.05.45.14.49.23l.04.25c0 .15.09.16.12.16.04 0 .09-.02.11-.13l.03-.36.01-.15.06-.36c0-.12-.06-.13-.09-.13h-.01"/></defs><clipPath id="SVGID_40_"><use xlink:href="#SVGID_39_" overflow="visible"/></clipPath><path class="st19" d="M-39.287 409.19h12.868v15.378h-12.86z"/></g><g class="st13"><defs><path id="SVGID_41_" d="M-28.216 414.302c.787 0 1.258.553 1.258 1.477 0 .52-.163.94-.438 1.13-.17.12-.377.13-.537.13-.36 0-.68-.06-.768-.11l-.03-2.55c0-.03.01-.03.02-.04l.48-.05zm-.602-.342l-.256.008-.1-.006-.76-.016c-.042 0-.177 0-.177.117 0 .06.04.105.11.105l.24.02c.2.045.26.128.28.385l.01 1.65v1.35l-.04 1.654c-.03.23-.07.352-.18.37 0 .003-.22.03-.22.03-.08 0-.12.056-.12.106 0 .118.13.118.18.118l.68-.01.12.01.84.02c.16 0 .18-.08.18-.11 0-.05-.04-.1-.12-.1l-.33-.03c-.19-.02-.23-.14-.25-.36l-.04-1.66v-.18l.93.02.06.03.28.38.54.75.1.14c.38.5.63.83.94 1 .21.12.41.15.84.15h.53c.1 0 .24 0 .24-.11 0-.06-.06-.1-.13-.1l-.29-.02c-.2-.03-.51-.12-.9-.53L-27 417.4l-.16-.21c.61-.58.907-1.145.907-1.77 0-.545-.347-.943-.55-1.093-.424-.304-.957-.344-1.42-.344l-.647.02z"/></defs><clipPath id="SVGID_42_"><use xlink:href="#SVGID_41_" overflow="visible"/></clipPath><path class="st20" d="M-34.804 409.25h15.245v15.292H-34.8z"/></g><g class="st13"><defs><path id="SVGID_43_" d="M-23.912 415.274c0 .52.17 1.016 1.008 1.707l.344.29c.668.56.852.85.852 1.34 0 .48-.352.96-1.028.96-.277 0-.935-.07-1.07-.73l-.02-.27c0-.04 0-.14-.11-.14-.102 0-.114.11-.12.18l-.007.08-.033.74c0 .21.006.27.15.35.293.15.632.22 1.043.22.462 0 .87-.11 1.18-.33.494-.35.67-.91.67-1.32 0-.6-.186-1.09-1.132-1.85l-.21-.16c-.728-.6-.906-.84-.906-1.24 0-.5.35-.83.87-.83.63 0 .84.27.9.38l.09.36c0 .06.02.16.11.16.11 0 .11-.15.11-.23l.02-.75c0-.17-.1-.17-.13-.17l-.25-.04-.72-.08c-.98 0-1.64.58-1.64 1.44"/></defs><clipPath id="SVGID_44_"><use xlink:href="#SVGID_43_" overflow="visible"/></clipPath><path class="st21" d="M-28.79 409.142h12.43v15.514h-12.43z"/></g><g class="st13"><defs><path id="SVGID_45_" d="M-18.814 413.96l-.127.007-.77-.023c-.05 0-.18 0-.18.118 0 .058.05.104.11.104l.22.028c.1.023.2.087.22.377l.01 1.66v1.35l-.04 1.66c-.03.23-.07.35-.18.37l-.22.03c-.08 0-.12.06-.12.11 0 .12.13.12.18.12l.74-.02.08.01.85.02c.16 0 .18-.08.18-.12 0-.05-.04-.11-.12-.11l-.33-.03c-.18-.02-.23-.14-.25-.37l-.04-1.65v-1.35l.01-1.65c.01-.26.07-.35.24-.38l.18-.02c.06 0 .11-.04.11-.1 0-.12-.14-.12-.18-.12l-.62.02z"/></defs><clipPath id="SVGID_46_"><use xlink:href="#SVGID_45_" overflow="visible"/></clipPath><path class="st22" d="M-24.58 409.25h11.448v15.292H-24.58z"/></g><g class="st13"><defs><path id="SVGID_47_" d="M-17.116 414.016l-.172.82c0 .094.052.128.095.128.078 0 .11-.06.13-.115l.125-.23c.105-.16.268-.21.727-.22l1.06-.02v3.18l-.04 1.65c-.03.22-.07.35-.18.37l-.22.03c-.08 0-.12.05-.12.1 0 .11.13.11.18.11l.74-.02h.09l.84.01c.16 0 .18-.07.18-.12 0-.05-.04-.11-.12-.11l-.34-.03c-.18-.02-.22-.14-.25-.37l-.04-1.66v-3.19c.1.01.9.01.9.01.73.01.85.19.87.37l.01.08c.01.07.02.18.12.18.02 0 .11-.01.11-.16l.02-.85c0-.04 0-.15-.1-.15l-.09.02-.66.06h-2.85l-.6-.04-.25-.07-.1-.03c-.07 0-.1.08-.13.18"/></defs><clipPath id="SVGID_48_"><use xlink:href="#SVGID_47_" overflow="visible"/></clipPath><path class="st23" d="M-21.98 409.142h14.32v15.402h-14.32z"/></g><g class="st13"><defs><path id="SVGID_49_" d="M-7.238 413.96l-.2.008-.122-.008-.38-.014c-.156 0-.18.064-.18.1 0 .08.076.105.15.13.03.01.088.023.088.162l-.122.362c-.123.206-.98 1.694-1.215 2.162l-1.34-2.328-.09-.27c0-.036.02-.064.07-.09.09-.032.15-.053.15-.117 0-.073-.05-.11-.15-.11l-.53.016-.1.006-.75-.03c-.15 0-.16.09-.16.11 0 .06.05.11.13.11l.3.11c.15.1.34.3.5.55.27.4 1.29 2.08 1.34 2.2.1.22.17.38.17.78v.65l-.02.76c-.01.15-.05.34-.19.37l-.21.03c-.08 0-.12.05-.12.1 0 .12.13.12.18.12l.74-.02h.09l.85.01c.16 0 .18-.08.18-.12 0-.05-.04-.11-.12-.11l-.33-.03c-.17-.03-.24-.13-.26-.37l-.02-.76v-.66c0-.25 0-.48.11-.75.13-.31 1.19-2.11 1.44-2.42l.39-.38.32-.1c.11 0 .16-.06.16-.12s-.06-.1-.15-.1l-.54.01"/></defs><clipPath id="SVGID_50_"><use xlink:href="#SVGID_49_" overflow="visible"/></clipPath><path class="st24" d="M-16.84 409.25h14.99v15.292h-14.99z"/></g><g class="st13"><defs><path id="SVGID_51_" d="M-3.147 416.675c0-1.52.83-2.464 2.16-2.464 1.083 0 2.25.87 2.25 2.78 0 2.45-1.697 2.57-2.038 2.57-1.397 0-2.372-1.18-2.372-2.88zm-.84.214c0 1.48.942 3.07 3.006 3.07 1.79 0 3.09-1.35 3.09-3.2 0-1.76-1.23-2.94-3.05-2.94-2.23 0-3.05 1.87-3.05 3.05z"/></defs><clipPath id="SVGID_52_"><use xlink:href="#SVGID_51_" overflow="visible"/></clipPath><path class="st25" d="M-8.68 409.142H6.803v15.514H-8.68z"/></g><g class="st13"><defs><path id="SVGID_53_" d="M6.126 413.883l-.07.028-.04.03-.234.03-.088.01-1.866.01h-.1l-.758-.01c-.046 0-.18 0-.18.12 0 .06.05.11.12.11l.243.02c.207.05.268.13.283.39l.017 1.65v1.35l-.04 1.66c-.03.23-.065.35-.173.37-.004.01-.217.03-.217.03-.082 0-.117.06-.117.11 0 .12.135.12.18.12l.742-.02.09.01.845.02c.162 0 .18-.08.18-.11 0-.05-.04-.11-.12-.11l-.333-.03c-.182-.02-.225-.14-.246-.36l-.038-1.65V417c-.006-.01 1.134.014 1.134.014.203.022.312.14.35.24l.036.21c.003.11.05.165.114.165.112 0 .112-.13.112-.21l.03-.51.063-.44c0-.11-.075-.12-.097-.12-.054 0-.086.05-.115.08-.065.09-.134.12-.32.14l-.34.01H4.2l.006-2.12c.008-.03 1.177-.01 1.177-.01.27 0 .43.13.468.21l.07.27c0 .11.06.15.11.15.04 0 .1-.02.12-.13l.03-.39.01-.13.05-.26.02-.1c0-.08-.04-.13-.1-.13h-.01"/></defs><clipPath id="SVGID_54_"><use xlink:href="#SVGID_53_" overflow="visible"/></clipPath><path class="st26" d="M-1.904 409.19h12.84v15.353h-12.84z"/></g><g class="st13"><defs><path id="SVGID_55_" d="M-75.216 424.053H5.816v.465h-81.032z"/></defs><clipPath id="SVGID_56_"><use xlink:href="#SVGID_55_" overflow="visible"/></clipPath><path class="st27" d="M-79.91 419.36h90.42v9.85h-90.42z"/></g><g class="st13"><defs><path id="SVGID_57_" d="M-67.052 428.857l-3.19 6.757c0-.108-3.15-6.67-3.15-6.67-.147-.297-.226-.384-.343-.384-.077 0-.18.056-.23.33l-1.16 7.716c-.065.435-.164.845-.458.91l-.345.04c-.055 0-.218 0-.218.11 0 .158.174.158.24.158l1.16-.038.378.014.855.024c.15 0 .31-.014.31-.158 0-.07-.073-.11-.205-.11l-.487-.062c-.22-.054-.328-.166-.328-.352l.036-.55.608-4.71c0 .025.59 1.278.59 1.278l.63 1.356 1.36 2.687.04.067c.18.338.29.54.4.54.13 0 .19-.117.46-.678l2.56-5.37c0 .05.7 5.195.7 5.195.01.104.02.188.02.257 0 .143-.03.207-.06.22-.08.035-.15.076-.15.16 0 .104.13.135.37.158l2.38.07c.22 0 .34-.056.34-.157 0-.11-.14-.11-.21-.11l-.72-.12c-.34-.104-.45-.46-.55-1.172l-1.06-7.312c-.04-.26-.12-.39-.24-.39-.13 0-.2.11-.29.3"/></defs><clipPath id="SVGID_58_"><use xlink:href="#SVGID_57_" overflow="visible"/></clipPath><path class="st28" d="M-80.84 423.865h21.563v18.65H-80.84z"/></g><g class="st13"><defs><path id="SVGID_59_" d="M-57.873 428.75l-.067.02c-.002.003-.502.072-.502.072l-2.93.013-.562-.02-.175-.006-.95-.01c-.14 0-.28 0-.28.13s.16.13.23.13l.45.03c.39.08.47.27.49.64l.02 2.51v2.08c0 1.08 0 2.02-.06 2.51-.05.38-.11.58-.31.62l-.42.05c-.05 0-.21 0-.21.12 0 .15.2.15.27.15l.81-.02.67-.02 1.54.05 1.72.02c.45 0 .58 0 .66-.33.06-.25.16-1.05.16-1.32 0-.12 0-.24-.12-.24-.11 0-.13.08-.16.2-.08.49-.22.72-.51.86-.3.14-.79.14-1.09.14-1.22 0-1.36-.2-1.38-.97v-2.77c0-.09.02-.09.04-.09l1.67.03c.37.04.57.17.63.44l.04.31.01.11c0 .08.05.13.13.13.14 0 .14-.16.14-.26l.05-.79.09-.87c0-.08-.04-.12-.11-.12l-.19.15c-.11.12-.28.16-.56.18l-1.87.02c-.03 0-.05-.01-.05-.1v-2.99c0-.09.03-.09.06-.09l1.66.04c.59.08.69.22.77.41l.06.42c0 .06 0 .19.13.19.12 0 .14-.11.15-.15l.04-.54.02-.25.08-.66.02-.12c0-.03 0-.14-.1-.14l-.13.02"/></defs><clipPath id="SVGID_60_"><use xlink:href="#SVGID_59_" overflow="visible"/></clipPath><path class="st29" d="M-68.04 424.03h15.368v18.52h-15.37z"/></g><g class="st13"><defs><path id="SVGID_61_" d="M-53.35 428.838l-.618.018-.597-.018-1.012-.018c-.145 0-.287.008-.287.136 0 .134.153.134.228.134l.38.036c.384.08.463.273.483.646l.023 2.508v2.083c0 1.085 0 2.02-.058 2.515-.044.316-.096.58-.32.625l-.414.05c-.054 0-.217 0-.217.12 0 .15.2.15.27.15l.81-.024.67-.02 1.81.04 1.61.02c.62 0 .69-.06.77-.34.1-.35.18-1.24.18-1.37 0-.12 0-.23-.12-.23s-.15.1-.16.2c-.02.22-.16.54-.29.69-.27.3-.69.32-1.35.32-.94 0-1.21-.09-1.4-.25-.24-.21-.24-1.03-.24-2.53v-2.08l.03-2.51c.02-.43.13-.59.41-.65l.45-.04c.13 0 .24-.02.24-.14 0-.13-.14-.14-.27-.14l-.97.02"/></defs><clipPath id="SVGID_62_"><use xlink:href="#SVGID_61_" overflow="visible"/></clipPath><path class="st30" d="M-60.557 424.125h15.593v18.425h-15.593z"/></g><g class="st13"><defs><path id="SVGID_63_" d="M-46.11 428.835l-.846.02-.452-.013-1.145-.023c-.144 0-.286 0-.286.13s.16.13.23.13l.45.03c.39.08.46.27.49.64l.03 2.51v2.08c0 1.08 0 2.02-.06 2.51-.04.32-.1.58-.31.62l-.41.05c-.05 0-.21 0-.21.12 0 .15.2.15.26.15l.81-.02.67-.02.88.04.45.02.38.01c2.18 0 3.16-1.31 3.16-2.61 0-1.36-1.11-2.23-2.15-2.59.74-.54 1.22-1.12 1.22-2.05 0-.42-.18-1.8-2.53-1.8l-.59.01zm.007.55l.38-.024c1.047 0 1.44 1.11 1.44 1.81 0 .56-.165.98-.472 1.24-.204.18-.478.22-.827.22l-.544-.03c-.036 0-.06-.02-.06-.1v-2.92c0-.12.02-.15.083-.17zm.31 7.742c-.36-.15-.394-.33-.394-1.11v-2.804c0-.05.016-.054.043-.054l.502.01c.443.02.71.1.958.27 1.015.71 1.125 1.87 1.125 2.33 0 1.41-1.15 1.48-1.39 1.48-.26 0-.53-.01-.84-.14z"/></defs><clipPath id="SVGID_64_"><use xlink:href="#SVGID_63_" overflow="visible"/></clipPath><path class="st31" d="M-53.532 424.125h16.17v18.425h-16.17z"/></g><g class="st13"><defs><path id="SVGID_65_" d="M-40.872 433.32c0 2.248 1.49 4.667 4.756 4.667 2.876 0 4.885-2.007 4.885-4.88 0-2.748-1.83-4.455-4.77-4.455-3.35 0-4.88 2.42-4.88 4.667zm1.677-.367c0-3.198 1.787-3.675 2.856-3.675 2.01 0 3.41 1.754 3.41 4.265 0 3.426-1.88 3.792-2.69 3.792-2.1 0-3.57-1.8-3.57-4.382z"/></defs><clipPath id="SVGID_66_"><use xlink:href="#SVGID_65_" overflow="visible"/></clipPath><path class="st32" d="M-45.566 423.96h19.028v18.72h-19.028z"/></g><g class="st13"><defs><path id="SVGID_67_" d="M-22.23 428.844l-.34.01c-.03-.003-1.348-.035-1.348-.035-.132 0-.274 0-.274.13s.154.13.23.13l.413.03c.39.08.47.27.49.64l.03 2.51v1.47c0 1.26-.05 2.28-.67 2.91-.56.56-1.3.63-1.6.63-.4 0-.93-.06-1.45-.49-.47-.39-.9-1-.9-2.89v-1.66l.02-2.51c.03-.43.13-.6.41-.65l.33-.04c.07 0 .22 0 .22-.14 0-.13-.14-.14-.28-.14l-1.44.04-.62-.02-1.09-.02c-.14 0-.28 0-.28.13s.16.13.23.13l.45.03c.38.08.46.27.48.64l.03 2.5v1.8c0 1.5.34 2.5 1.06 3.15.91.82 2.11.82 2.63.82.69 0 1.58-.1 2.46-.86.99-.85 1.13-2.23 1.13-3.58v-1.27l.02-2.51c.03-.43.13-.6.41-.65l.34-.03c.13 0 .25-.01.25-.13 0-.13-.14-.13-.27-.13l-.99.03"/></defs><clipPath id="SVGID_68_"><use xlink:href="#SVGID_67_" overflow="visible"/></clipPath><path class="st33" d="M-35.104 424.125h18.843v18.555h-18.85z"/></g><g class="st13"><defs><path id="SVGID_69_" d="M-17.155 428.835l-.86.02-.472-.013-1.137-.023c-.145 0-.288 0-.288.13s.155.13.23.13l.45.03c.384.08.46.27.482.64l.023 2.51v2.08c0 1.08 0 2.02-.056 2.51-.047.32-.098.58-.317.62l-.417.05c-.054 0-.216 0-.216.12 0 .15.198.15.262.15l.95-.02.48-.02.38.01 1.34.03c.06 0 .26 0 .26-.15 0-.04-.02-.12-.18-.12l-.57-.05c-.32-.04-.4-.25-.44-.63-.06-.5-.06-1.44-.06-2.53v-.17c0-.05.01-.06.06-.06l1.02.02c.08 0 .14.01.19.07l.55.78.6.85c.68.94 1.12 1.48 1.62 1.74.31.17.62.23 1.26.23h1.12c.08 0 .25 0 .25-.15 0-.04-.02-.12-.17-.12l-.32-.04c-.19-.04-.66-.13-1.3-.8-.61-.64-1.29-1.52-2.17-2.63l-.38-.49c1.09-.86 1.56-1.65 1.56-2.63 0-.87-.53-1.46-.81-1.65-.66-.45-1.47-.51-2.18-.51l-.8.02zm-.044 4.562c-.06-.026-.08-.056-.08-.184v-3.596c0-.088.02-.12.09-.138l.62-.05c.66 0 1.77.44 1.77 2.13 0 1.08-.42 1.56-.68 1.74-.2.15-.34.19-.81.19-.33 0-.66-.05-.88-.12z"/></defs><clipPath id="SVGID_70_"><use xlink:href="#SVGID_69_" overflow="visible"/></clipPath><path class="st34" d="M-24.605 424.125h18.702v18.39h-18.702z"/></g><g class="st13"><defs><path id="SVGID_71_" d="M-9.192 429.05l-.106 7.002c-.01 1.02-.06 1.35-.343 1.44l-.52.06c-.06 0-.22 0-.22.12 0 .15.16.15.29.15l1.07-.03.19-.008.32.013 1.13.024c.1 0 .3 0 .3-.14 0-.12-.16-.12-.23-.12l-.6-.08c-.26-.08-.37-.47-.39-1.28l-.13-4.96c0 .04.23.3.23.3l2.54 2.71 1.56 1.57 1.9 1.91c.13.14.27.27.41.27.16 0 .18-.2.18-.39l.12-7.46c.01-.66.11-.89.41-.98l.34-.03c.16 0 .24-.04.24-.13 0-.14-.18-.14-.3-.14l-.94.03-.22.01-.41-.01-1.01-.02c-.14 0-.34 0-.34.14 0 .12.11.14.22.14.16 0 .44 0 .61.07.25.1.36.29.38 1.04l.11 5.31c-.01-.02-.85-.9-.85-.9L-8.56 429l-.11-.117c-.14-.156-.23-.26-.345-.26-.163 0-.182.247-.182.433"/></defs><clipPath id="SVGID_72_"><use xlink:href="#SVGID_71_" overflow="visible"/></clipPath><path class="st35" d="M-15.07 423.92H4.24v18.737h-19.31z"/></g><g class="st13"><defs><path id="SVGID_73_" d="M5.53 428.75l-.068.02c-.003.003-.502.072-.502.072l-2.93.013-.564-.02-.174-.006-.952-.01c-.144 0-.285 0-.285.13s.153.13.23.13l.448.03c.385.08.46.27.483.64l.024 2.51v2.08c0 1.08 0 2.02-.058 2.51-.045.32-.098.58-.317.62l-.418.05c-.054 0-.217 0-.217.12 0 .15.2.15.262.15l.81-.02.67-.02 1.535.05 1.714.02c.46 0 .58 0 .67-.33.06-.24.16-1.04.16-1.32 0-.12 0-.24-.12-.24-.11 0-.13.08-.15.2-.08.49-.22.72-.51.86-.3.14-.79.14-1.09.14-1.22 0-1.36-.2-1.38-.97v-1.35l.01-.49v-.94c0-.09.02-.09.04-.09l1.66.03c.37.04.57.17.64.44l.04.31.01.11c0 .08.05.13.14.13.14 0 .14-.16.14-.26l.05-.79.09-.87c0-.08-.04-.12-.11-.12l-.19.15c-.11.12-.28.16-.55.18l-1.87.02c-.04 0-.05-.01-.05-.11v-2.99c0-.09.03-.09.06-.09l1.66.05c.59.07.68.22.76.41l.07.41c0 .06 0 .2.13.2.12 0 .14-.11.15-.16l.05-.54.02-.24.08-.66.02-.12c0-.03 0-.13-.1-.13l-.12.02"/></defs><clipPath id="SVGID_74_"><use xlink:href="#SVGID_73_" overflow="visible"/></clipPath><path class="st36" d="M-4.64 424.03h15.37v18.52H-4.64z"/></g><g class="st13"><defs><path id="SVGID_75_" d="M-75.978 414.003c-.007.023-.177.834-.177.834 0 .093.053.127.098.127.076 0 .11-.06.13-.115l.123-.23c.106-.16.27-.21.728-.22l1.062-.02v3.18l-.035 1.65c-.03.23-.06.35-.17.37l-.21.03c-.08 0-.12.05-.12.1 0 .11.14.11.18.11l.75-.02h.09l.85.01c.16 0 .18-.08.18-.12 0-.05-.04-.11-.12-.11l-.33-.03c-.18-.02-.22-.14-.24-.37l-.04-1.66v-3.19c.11.01.9.01.9.01.73.01.85.19.88.37l.01.08c.01.07.02.18.12.18.02 0 .11-.01.11-.16l.03-.85c0-.04 0-.15-.1-.15l-.09.02-.66.06h-2.85l-.59-.04-.25-.07-.09-.03c-.07 0-.1.08-.12.16"/></defs><clipPath id="SVGID_76_"><use xlink:href="#SVGID_75_" overflow="visible"/></clipPath><path class="st37" d="M-80.848 409.142h14.322v15.402h-14.322z"/></g><g class="st13"><defs><path id="SVGID_77_" d="M-65.75 413.96l-.123.007-.858-.023c-.05 0-.18 0-.18.118 0 .06.05.104.11.104l.24.02c.21.045.26.128.28.385l.01 1.66v.16l-3.21-.01.01-.14.02-1.65c.01-.26.07-.35.23-.38l.18-.02c.07 0 .12-.04.12-.1 0-.08-.06-.12-.18-.12l-.75.03h-.1l-.76-.02c-.05 0-.18 0-.18.12 0 .06.05.1.11.1l.24.02c.21.05.27.13.28.39l.02 1.65v1.35l-.04 1.66c-.04.23-.07.35-.18.37l-.22.03c-.08 0-.12.06-.12.11 0 .12.13.12.18.12l.74-.02h.09l.85.01c.16 0 .18-.08.18-.12 0-.05-.04-.1-.12-.1l-.34-.03c-.18-.02-.22-.14-.25-.37l-.04-1.65v-.81l3.21.01-.01.8-.05 1.66c-.03.22-.07.35-.17.37l-.22.03c-.08 0-.12.06-.12.11 0 .12.13.12.18.12l.74-.02.09.01.84.02c.16 0 .18-.08.18-.11 0-.05-.04-.1-.12-.1l-.34-.03c-.18-.03-.22-.15-.25-.37l-.04-1.66v-1.35l.02-1.65c.02-.26.07-.35.24-.38l.18-.02c.07 0 .12-.04.12-.11 0-.12-.13-.12-.18-.12l-.62.02"/></defs><clipPath id="SVGID_78_"><use xlink:href="#SVGID_77_" overflow="visible"/></clipPath><path class="st38" d="M-75.554 409.25h15.49v15.292h-15.49z"/></g><g class="st13"><defs><path id="SVGID_79_" d="M-10.71 358.603c.338-.544.576-1.185.684-1.64l.087-.37-.37.044c-1.21.15-1.74.335-2.7.666l-.4.138c0 .01-2.42.92-2.98 1.13l-1.98-2.63-1.1-1.42-.37.48c-.12.16-.23.31-.38.44-1.1 1.06-2.8.99-4.32.84l-2.97-.49-2.42-.36c-1.82-.27-4.54-.53-7.09-.25l-2.85.34c-.01.01-3.4.54-3.4.54-2.33.42-4.85.59-5.98-1.32l-.19-.33-.23.31-3.13 4.08c-.45-.12-1.01-.27-1.61-.37l-.26-.04.13.26c-.01.05.36.89.58 1.71l-.4.55-2.79 3.68-.14.19.24.25.02.01c1.85 1.37 2.28 3.49 2.28 5.75 0 .71-.04 1.45-.1 2.17l-.81 4.86-.34 2.61c-.14 1.3-.21 2.56-.21 3.77 0 .35.01.69.02 1.03.21 8.12 5.03 14.6 12.89 17.31l1.58.59.19.09c2.35 1.02 4.79 2.06 6.75 4.05l.19.19.21-.24.08-.08.09-.11c2.41-2.16 5.22-3.29 8.38-4.45 5.66-2.01 7.73-4.56 9.24-6.41l.05-.06c2.34-2.75 3.77-7.13 3.77-11.48v-.32l-.1-2.7-.31-2.92-.44-2.69-.41-2.61c-.08-.7-.12-1.37-.12-1.99 0-.15 0-.3.01-.44v-.09c0-2.66.78-4.54 2.39-5.76l.21-.15s-.85-1.14-1.04-1.41c.59-.57.71-1.36.71-1.78 0-.04 0-.08-.01-.12-.01-.08.25-.46.21-.53.58-.54 1.3-1.29 1.77-1.93.02-.02.01-.05.01-.07 0-.22-.11-.34-.19-.39-.11-.08-.28-.1-.49-.07"/></defs><clipPath id="SVGID_80_"><use xlink:href="#SVGID_79_" overflow="visible"/></clipPath><path class="st40" d="M-62.046 349.664h56.8v62.413h-56.8z"/></g><g class="st13"><defs><path id="SVGID_81_" d="M-45.36 356.858l1.045-.113 4.468-.708 3.004-.348c2.908-.34 5.804.12 8.563.51l3.968.65c1.684.12 3.488.08 4.633-1.18l.23-.25 2.54 3.37c-.41.15-.95.34-1.41.53l-.05-.01-1.29-1.72c-1.33.76-3 .87-4.62.76l-2.31-.37-2.86-.47-3.06-.37c-1.83-.15-3.71-.08-5.48.12l-2.53.36-4.22.64c-1.62.14-3.19-.06-4.5-.79l-1.43 1.87c-.57-.1-1.03-.28-1.54-.44l2.78-3.64c.96 1.4 2.55 1.5 4.12 1.55"/></defs><clipPath id="SVGID_82_"><use xlink:href="#SVGID_81_" overflow="visible"/></clipPath><path class="st41" d="M-56.954 350.608h44.73v13.47h-44.73z"/></g><g class="st13"><defs><path id="SVGID_83_" d="M-28.15 401.123c-2.275.893-4.496 1.934-6.522 3.42-2.025-1.5-4.218-2.558-6.478-3.476-8.678-2.624-13.397-10.63-13.083-16.88l.098-2.56.314-2.78.8-4.88.22-1.71c.08-2.755-.02-5.69-1.84-7.76l1.5-2.026s-.43-.51-.74-1.46c-.88 1.16-1.87 2.48-2.72 3.62.77.7 1.4 1.51 1.75 2.39.7 1.95.69 4.31.4 6.44l-.65 3.77-.39 2.78c-.22 1.84-.29 3.8-.21 5.63.17 5.46 3.43 13.38 12.74 16.36 2.92 1.13 5.82 2.34 8.27 4.55 1.76-1.61 3.79-2.61 5.86-3.53l2.45-.95c10.13-3.35 13.11-11.69 12.93-17.92l-.1-2.7-.25-2.31-.84-5.26c-.31-1.67-.25-3.57.01-5.27.09-.58.58-2.51 2.17-3.79-.58-.93-.08-.16-2.2 1.41 0 0-.19 1.11-1.41 1.98-.32 1.74-.38 3.93-.07 5.72l.52 3.23.38 2.59c.19 1.82.36 3.7.24 5.6-.12 5.17-3.16 12.97-13.21 15.83"/></defs><clipPath id="SVGID_84_"><use xlink:href="#SVGID_83_" overflow="visible"/></clipPath><path class="st42" d="M-61.284 356.317h53.546v54.908h-53.546z"/></g><g class="st13"><defs><path id="SVGID_85_" d="M-12.628 364.474c-.046-.058-.08-.084-.117-.09.036.006.07.03.117.09zm.002.008c-.002-.003-.002-.006-.002-.008 0 .002 0 .005.002.008zm.18.28c-.076-.127-.133-.217-.18-.28.044.06.105.155.18.28z"/></defs><clipPath id="SVGID_86_"><use xlink:href="#SVGID_85_" overflow="visible"/></clipPath><path class="st43" d="M-17.44 359.69h9.69v9.767h-9.69z"/></g><g class="st13"><defs><path id="SVGID_87_" d="M-48.708 374.96l1.144-.336-.556 1.013.973.756-1.17.1c0 .394.056.785.056 1.192l-.85-.77c-.31.224-.62.504-.92.77l.08-1.137c-.35-.14-.75-.155-1.11-.252l.98-.702-.54-1.027 1.04.38c.24-.4.31-.815.43-1.083.17.336.26.733.43 1.096"/></defs><clipPath id="SVGID_88_"><use xlink:href="#SVGID_87_" overflow="visible"/></clipPath><path class="st44" d="M-55.752 369.17h13.298v13.208h-13.298z"/></g><g class="st13"><defs><path id="SVGID_89_" d="M-49.25 374.185l-.32.762-1.043-.38.542 1.027-.99.702.45.09.66.162-.09 1.137.2-.178.71-.592.84.77-.06-1.193 1.17-.1-.98-.755.55-1.013-1.15.336-.2-.528-.23-.568-.11.32zm0 0l.113-.32.227.567.203.528 1.144-.336-.556 1.013.98.756-1.17.1.06 1.192-.84-.77-.71.592-.2.178.08-1.137-.66-.162-.45-.09.99-.702-.54-1.027 1.05.38.32-.762z"/></defs><clipPath id="SVGID_90_"><use xlink:href="#SVGID_89_" overflow="visible"/></clipPath><path class="st45" d="M-55.752 369.17h13.298v13.208h-13.298z"/></g><g class="st13"><defs><path id="SVGID_91_" d="M-42.01 376.686c.377-.042.75-.21 1.143-.307l-.542 1.02c.34.22.64.49.97.74l-1.17.1c0 .38.07.78.07 1.19l-.87-.78c-.29.25-.61.49-.9.77.02-.35.04-.78.11-1.15-.36-.13-.78-.15-1.14-.26l.99-.69-.54-1.01 1.05.35c.2-.32.28-.72.45-1.07l.42 1.06"/></defs><clipPath id="SVGID_92_"><use xlink:href="#SVGID_91_" overflow="visible"/></clipPath><path class="st46" d="M-49.057 370.93h13.3v13.206h-13.3z"/></g><g class="st13"><defs><path id="SVGID_93_" d="M-42.605 376.072l-.267.614-1.045-.35.542 1.01-.988.69.535.116.607.136-.11 1.153.57-.49.33-.27.87.78-.07-1.19 1.17-.1-.27-.21-.7-.53.54-1.02-.44.13-.71.18-.42-1.06-.18.45zm0 0l.178-.45.416 1.065.7-.177.43-.13-.54 1.024.69.53.26.213-1.17.1.07 1.195-.88-.776-.33.277-.58.5.11-1.154-.61-.14-.54-.12.98-.69-.55-1.02 1.04.35.26-.62z"/></defs><clipPath id="SVGID_94_"><use xlink:href="#SVGID_93_" overflow="visible"/></clipPath><path class="st47" d="M-49.057 370.93h13.3v13.206h-13.3z"/></g><g class="st13"><defs><path id="SVGID_95_" d="M-49.962 383.583c.378-.068.755-.21 1.145-.324l-.547 1c.295.27.642.49.964.75l-1.17.1c0 .39.058.8.058 1.21-.28-.27-.574-.51-.85-.79-.308.25-.616.5-.922.78l.097-1.15c-.345-.14-.766-.14-1.113-.26.32-.23.654-.44.975-.69l-.528-1c.32.08.696.22 1.043.35.154-.34.278-.72.433-1.08l.415 1.08"/></defs><clipPath id="SVGID_96_"><use xlink:href="#SVGID_95_" overflow="visible"/></clipPath><path class="st48" d="M-56.993 377.807h13.287v13.21h-13.287z"/></g><g class="st13"><defs><path id="SVGID_97_" d="M-50.566 382.983l-.244.6-.078-.03-.965-.32.528 1-.668.476-.306.21.5.1.62.14-.09 1.15.87-.75.06-.04.49.46.36.32-.06-1.21 1.17-.1-.4-.31-.56-.45.55-1-.36.11-.78.21-.42-1.09-.19.48zm0 0l.19-.482.415 1.09.77-.21.36-.11-.55 1 .56.45.4.31-1.17.1.06 1.21-.36-.33-.5-.45-.06.04-.87.75.09-1.15-.61-.14-.5-.1.3-.21.67-.48-.53-1 .96.32.08.03.24-.59z"/></defs><clipPath id="SVGID_98_"><use xlink:href="#SVGID_97_" overflow="visible"/></clipPath><path class="st49" d="M-56.993 377.807h13.287v13.21h-13.287z"/></g><g class="st13"><defs><path id="SVGID_99_" d="M-42.12 384.005h1.03l-.834.647.318 1.025-.85-.617-.847.617.302-1.025c-.27-.212-.55-.42-.84-.633l1-.02c.19-.28.23-.66.37-1 .1.33.19.67.33.99"/></defs><clipPath id="SVGID_100_"><use xlink:href="#SVGID_99_" overflow="visible"/></clipPath><path class="st50" d="M-48.526 378.316h12.13v12.055h-12.13z"/></g><g class="st13"><defs><path id="SVGID_101_" d="M-42.58 383.385c.006-.014.124-.376.133-.348l.226.67-.24-.698-.12.37zm-.002.006l-.248.62-1.003.02.832.64-.31 1.03.84-.61.85.62-.32-1.02.83-.64h-1.03s-.06-.17-.1-.3l.1.3h1.03l-.84.65.32 1.03-.85-.61-.85.62.3-1.02-.84-.63 1-.01.25-.62-.01.01z"/></defs><clipPath id="SVGID_102_"><use xlink:href="#SVGID_101_" overflow="visible"/></clipPath><path class="st51" d="M-48.526 378.316h12.13v12.055h-12.13z"/></g><g class="st13"><defs><path id="SVGID_103_" d="M-42.05 391.085c.374-.072.736-.24 1.127-.324l-.543 1 .96.76c-.376.07-.794.07-1.183.14l.09 1.18-.86-.8-.9.79c0-.36.06-.74.09-1.15l-1.12-.25c.34-.24.67-.43.99-.69l-.53-1.01 1.05.37.45-1.09.42 1.1"/></defs><clipPath id="SVGID_104_"><use xlink:href="#SVGID_103_" overflow="visible"/></clipPath><path class="st52" d="M-49.11 385.295h13.3v13.235h-13.3z"/></g><g class="st13"><defs><path id="SVGID_105_" d="M-42.914 391.085l-1.046-.366.53 1.01-.6.42-.388.26 1.128.25-.037.43-.047.72.906-.79.862.8-.083-1.18 1.19-.14-.96-.76.55-1-.54.16-.59.16-.42-1.1-.44 1.1zm.446-1.097l.418 1.097.59-.167.538-.157-.543 1 .96.76-1.183.14.083 1.18-.862-.8-.906.79.047-.72.037-.43-1.12-.25.39-.26.6-.42-.53-1.01 1.05.37.45-1.1z"/></defs><clipPath id="SVGID_106_"><use xlink:href="#SVGID_105_" overflow="visible"/></clipPath><path class="st53" d="M-49.11 385.295h13.3v13.235h-13.3z"/></g><g class="st13"><defs><path id="SVGID_107_" d="M-42.427 375.623c-.167.35-.252.744-.445 1.066l-1.045-.36.542 1.01-.988.69c.36.11.78.12 1.142.25-.07.37-.1.8-.12 1.15.29-.29.61-.53.9-.78l.87.77c0-.41-.07-.82-.07-1.2l1.17-.1c-.32-.26-.63-.52-.96-.75l.54-1.03c-.39.1-.77.26-1.15.31l-.42-1.07"/></defs><clipPath id="SVGID_108_"><use xlink:href="#SVGID_107_" overflow="visible"/></clipPath><path class="st54" d="M-49.057 370.93h13.3v13.206h-13.3z"/></g><g class="st13"><defs><path id="SVGID_109_" d="M-10.61 358.556l-.282.133c.26-.36.51-.82.773-1.43l.36-.83-.88.18c-1.51.32-2.98.89-4.42 1.45-.4.15-.8.31-1.21.46-.53.19-1.06.39-1.59.58-.46.17-.92.35-1.39.49-1.25.39-2.53.68-3.83.81-.36.03-.73.05-1.09.09-.57.05-1.14.09-1.7.15-.69.08-1.37.2-2.03.4-.61.18-1.19.45-1.67.87-.28.24-.55.56-.7.9-.26.58-.38 1.17-.48 1.71-.15.89-.79 2.06-1.31 1.88-.52-.18-.63-.54-.61-.99.02-.45.44-.91.44-.91s.35.25.77-.16c.2-.19.29-.5.36-.75.05-.15.08-.31.11-.47.03-.13.09-.28.07-.4-.01-.08-.09-.12-.15-.17-.08-.21-.25-.33-.46-.38-.04-.12-.11-.22-.2-.29-.09-.07-.2-.11-.31-.12-.13-.23-.44-.67-1.1-.88-.38-.13-.76-.13-1.1-.09l-.19-.07c-.65-.21-1.64-.12-2.05.52-.11.18-.23.54-.2.75.01.05.02.1.04.14-.03.08-.05.16-.05.24 0 .05.01.09.02.13l.01.04c.01.04-.13.21-.16.26-.04.08-.08.17-.11.27-.04.12-.08.24-.08.37 0 .15.07.22.14.34l-.09.34-.16.58c-.09.32.02.5.36.51-.04 0 .18.47.21.51.1.13.09.26.17.4.05.09.13.16.21.22.21.13.47.1.7.05l-.06.36c-.01-.01-.13.03-.13.03-.09.02-.2.04-.31.1l-.31-.23c-.66-.5-1.28-1.1-1.32-1.99 0-.16.01-.32-.04-.47-.05-.15-.21-.23-.26-.37-.05-.15-.04-.33-.07-.49-.04-.2-.09-.4-.15-.6-.12-.4-.32-.8-.58-1.12-.56-.7-1.7-.79-2.52-.89-.31-.04-.61-.06-.92-.08l-.82-.06c-1.13-.07-2.2-.13-3.21-.43-.06-.02-1.46-.44-2.45-.65-.47-.1-.96-.19-1.44-.28-.32-.07-.64-.12-.97-.2-.56-.14-1.12-.3-1.68-.44l-1.62-.42c-.02-.01-.35-.08-.35-.09 0 0 .11.59.23 1.04.13.45.7 1.58.7 1.58.37.82 1.05 2.36 2.48 3.46l.29.17.2.54c.18.49.53.9.93 1.23.29.23.59.44.92.61.24.11.71.38.99.32-.08.01-.15.04-.21.06l-.4.14c-.14.05.06.19-.08.27-.2.11-.7.18-.87.34-.17.16-.09.21-.24.4-.11.12-.46.36-.54.49-.04.06-.08.14-.11.21-.02.04-.06.2-.09.22-.26.15-.54.37-.68.64-.09.17-.07.38-.01.56.04.11.1.21.16.3.1.13.17.09.3 0 .06-.04.11-.08.17-.11.09-.06.15-.09.21-.11-.05.02-.04.34-.03.39.01.11.04.22.08.32.08.18.21.33.34.47.09.08.16.17.25.25.06.04.13.11.19.05.06-.05.06-.17.08-.23.02-.07.18-.69.28-.67.05.01.44.44.53.5.04.02.07.06.12.05.05-.03.09-.11.11-.15.07-.13.12-.27.17-.4.07-.18.05-.48.08-.5.03-.02.25.03.26.03.15 0 .23.05.28-.09.03-.1.05-.37.15-.42.12-.07.18.1.31.04.15-.08.37-.45.51-.51.15-.06.3.02.41.04.11.02.19-.01.22.03.08.09-.04.22-.15.42-.04.06.3.15.26.22-.05.08-.38.26-.46.33-.11.1-.19.23-.27.35-.06.1.2.13.16.22-.13.31-.62.58-.95.67-.1.02-.22.03-.32.07-.15.05-.04.32-.03.44.02.16.12.31.27.39.05.03.11.05.17.07 0 0-.14.17-.16.18-.06.06-.12.11-.183.16-.07.056-.386.215-.36.33.02.065.21.11.26.14.1.06.18.13.29.17.21.07.42.05.633-.015.11-.03.21-.07.31-.11.09-.04.202-.11.3-.12.14 0 .3.09.45.07.3-.04.7-.49.96-.65s.45-.06.68-.27c.25-.24.16-.42.35-.71.18-.27.56-.65.63-.97l.13-.61c.3.17.61.33.91.5.14.07.27.24.4.34.23.19.5.4.8.46.14.02.27-.01.4-.06.043-.02.26-.13.303-.098.11.085.24.125.4.145-.03 0-.086.26-.09.28-.006.05.03.69.075.69l.66-.07c-.03.13-.08.26-.07.4.02.183.11.37.17.54.04.08.76-.15.75-.17.09.26.19.5.3.67.16.243.3.53.48.76.01-.03-.01.103-.01.103s-.98 3.49-.84 4.28l.09.49c-.11.28-.11.627.02 1.09-.15.137-.21.31-.21.497 0 .39.17.75.28 1.11.22.66.07 1.77.09 2.1l.05.77c.05.75.02 1.503.3 2.22.1.26.23.48.4.71l-.05.36c-.05.31-.07.65-.07.99 0 1.16.23 2.32.67 3.39.28.68.84 1.21 1.55 1.38.19.05.37.08.56.1.59.06 1.18-.026 1.75-.15.35-.07.65-.167.9-.427.24-.24.41-.62.55-.92-.01.09-.03.19-.03.28 0 .18.03.35.09.52.28.74 1.06.94 1.15.96.688.13 1.13.01 1.46-.2.01.04.01.08.03.12.16.34.47.46 1.68.15-.033.1-.07.2-.07.3 0 .18.068.35.196.48.49.5 1.67.19 1.95.06.44-.23.73-.44.94-.64-.06.06.52.35.554.36.394.11.82.087 1.22.007.535-.11 1.11-.28 1.56-.62.34-.26.58-.61.77-.99.11-.22.194-.45.29-.68l.25-.61c.06-.16.11-.29.75-.22l1.32.15-.942-.95c-.48-.48-1.05-1.24-1.6-1.98-.61-.827-1.25-1.68-1.85-2.26l-1.93-2.33c.08-.046.16-.11.24-.2l.41-.04c.49-.04 1.09-.506 1.21-1 .077-.316-.1-.58-.22-.86-.05-.11-.08-.24-.152-.34-.114-.14-.294-.21-.44-.307-.183-.12-.36-.25-.545-.36-.388-.25-.77-.49-1.158-.74-.77-.49-1.56-.97-2.35-1.43-.4-.24-1.01-.302-1.3-.703-.208-.27-.33-.6-.51-.885-.19-.31-.39-.61-.58-.93-.144-.25-.29-.5-.42-.75-.203-.4-.35-.83-.53-1.25.007.01.27-.2.3-.23.04-.04.43-.583.375-.624.09.06.19.12.28.18l.72.496c.07.05.302-.22.343-.27.06-.08.394-.58.29-.68.07.07.13.14.21.2l.33.24.28-.3c.26-.28.34-.61.34-.93 0-.14-.022-.27-.05-.41.16.04.31.09.38.14l.56.43.17-.68c.028-.1.038-.2.038-.307 0-.12-.05-.237-.07-.35.03.01.69.27.69.27l.08-.58c.01-.056.01-.11.01-.16 0-.32-.13-.61-.24-.857.042-.05.09-.1.13-.16.47.3 1.06.55 1.76.37l.56-.15-.02-.04c.65.24 1.33.38 2.275-.1l.39-.19-.11-.27c.72.13 1.51.21 2.08-.16l.38-.25-.24-.39c-.02-.03-.05-.047-.067-.07.48-.05.99-.21 1.25-.69.08-.16.07-.28 0-.44.2-.01.4-.05.6-.126.714-.26 1.24-.91 1.55-1.9l.05-.15c.603-.37 1.15-.9 1.66-1.62l.47-1.1c.24-.28.46-.62.56-.88.07-.15.26-.52.02-.82l-.04-.05c.73-.53 1.56-1.75 1.87-2.35l.63-1.23-1.214.58"/></defs><clipPath id="SVGID_110_"><use xlink:href="#SVGID_109_" overflow="visible"/></clipPath><path class="st55" d="M-59.47 351.744H-4.7v48.872h-54.77z"/></g><g class="st13"><defs><path id="SVGID_111_" d="M-13.365 358.02l-3.37 1.268-2.33.838-1.498.404c-1.74.554-3.747.46-5.592.72-1.418.255-3.01.482-3.772 1.928-.75 1.16-.295 3.076-1.875 3.643.213 0 .51 0 .71.04.268-.08.748.06 1.015.15 1.09.31 1.433.72 2.552.95.55.14 1.13.41 1.667.12-.28-.3-.845-.46-1.206-.43.376-.21.918-.44.674-.87-.426-.3-.88.08-1.252.15.173-.3.915-.92.433-1.32-.54-.22-.98.02-1.39.35.14-.32.68-.77.29-1.12-.38-.34-.91-.04-1.06 0-.05-.25-.24-.77-.49-.94l.03-.01c.19.02.39.11.55.28 1.13-.81 2.25-1.55 3.66-2.02.96-.37 3.23-1.21 6.27-.11.8-.29 1.49-.79 2.21-1.04l4.31-1.36c1.07-.38 1.61-.82 2.31-2.43-.95.2-1.91.58-2.82.86zm.9 1.926c-2.543.688-4.487 1.246-6.827 2.407l.604.08c.985.176 1.175.288 2.205.14 1.445-.243 2.99-.54 4.164-1.206.65-.366 1.56-1.68 1.88-2.3-.49.198-.66.4-2.02.88zm-23.59 1.57c-.124.147-.404.544-.15.69.414-.812 1.036-.76 1.554-.892-.41-.136-.99-.104-1.41.203zm23.66.436c-1.88.732-3.16.872-4.33 1.02-.314.18-.23.664-1.724 1.27.18.41 2.15.24 3.22.095 1.4-.243 1.61-.472 2.12-.914.34-.288.73-.834.82-1.123.15-.278.13-.406-.09-.348zm-9.023-.05c-3.205-.16-4.58.717-7.48 2.348.19-.028.738.12.872.255.094.094.365.49.325.587 4.23-1.716 5.58-1.98 8.07-2.52.3-.095-.13-.327-.9-.52-.24-.095-.62-.15-.9-.15zm-11.925-.44c-.58-.18-1.18-.044-1.607.09-.36.124-.88.447-1.06.706.668.176 1.503.054 2.198.163.375.11.653.59 1.106.38.28-.28.273-.47.237-.6-.07-.16-.3-.55-.87-.72zm1.12.9c-.175.107-.28.31-.256.5.22.058.28-.063.39-.144.05-.08.09-.115.09-.22s-.12-.165-.21-.136zm10.616 1.1l-5.286 1.708c.508.293.433.724.175 1.19 1.265-.186 2.362-.462 3.18-.65l3.002-.874c1.03-.207 1.134-.437 2.1-.984.133-.166.905-.367.977-.695-.99-.595-2.45-.187-4.14.304zm-14.503-1.007c-.078-.04-.23-.025-.2.098.16.135.628.57.8.676l1.93.07c.24.02.508.05.655.28.04.11.014.24-.094.3-.18.05-.4.01-.5-.17.03-.03.08 0 .12-.02.04-.02.11-.02.11-.08-.29-.11-.62-.11-.93-.15-.17.04-1-.14-1.1.02.05.51 1.08.52 1.76.51.07.18.23.34.37.44.1.12.14.27.11.43.05-.15.22-.31.36-.36.16-.19.27-.44.22-.69-.16-.32-.79-.96-1.14-1.07-.71-.1-1.79-.07-2.44-.3zm4.292.303c-.267.12-.682.295-.682.648 0 0 .198.053.28.107.148.12.374.066.52-.013.16-.095.295-.257.295-.46-.093-.107-.16-.082-.135-.19-.04-.12-.186-.12-.278-.092zm-21.622-2.076c.58 1.313 1.835 4.032 5.19 4.423l2.794.173c-.42-1.062-.48-1.604-2.112-2.084-.844-.15-3.575-.834-5.872-2.512zm34.447 3.958c-.73.23-.115.77 1.206 1.575.717.374 1.23.094 1.83-.05 1.056-.24 1.88-.856 2.656-1.95-1.05.4-3.44 1.004-5.7.425zm-13.382-1.1c-.146.11 0 .27 0 .405.052.107.135.23.28.216.148-.13.536-.14.444-.45-.09-.01-.14.03-.21.04-.22.07-.4-.02-.52-.2zm-15.052 2.066c-.413-.02-1.59-.096-2.986-.502.432.547 1.908 1.645 2.81 1.718l3.078-.014-.433-.434c-.73-.87-1.513-.728-2.47-.768zm3.312.097c-.287-.116-.668-.152-1.148-.155.737 1.26 2.244 1.607 3.565 1.68.495.136.16-.202.256-.423-.95-.564-1.62-.776-2.673-1.102zm25.316.374c-.91-.965-.53-1.224-3.01-.414l-4.08.998c.33.55-.25.81-.25.81.43.35 1.38.36 1.9.34l2.32-.32c.34-.52.91-.56 1.39-.78.15-.02.24-.2.4-.2.06 0 .11.07.14.11.1.16.02.46-.09.61.24-.05.36-.1.7-.09.41.01.56.19.54.31.41-.11.87-.16 1.09-.59l-1.03-.73zm-1.48.743c-.25.147-.45.39-.78.377-.49.053-.57.78-1.13.674l-3.14.42c-.47.06-.91.21-1.36.26-1.04-.41-2.2-.47-3.17-1.06-.51-.16-1.03-.43-1.6-.28-1.02.74-.51 2.23-.36 3.23.03.07.05.18.15.18.27-.31.3-.75.37-1.17-.13-.09-.33-.02-.47 0 .08-.17.27-.23.43-.29 1.29-.08 2.49.25 3.71.48.78.26 1.72.09 2.48-.11l2.2-.65c.43-.09.85-.22 1.31-.21.81.14 1.56-.2 2.23-.56.19-.09.41-.41.36-.62-.05-.2-1.1.02-1.43.12-.13.18-.35.3-.55.31l.23-.16c.16-.33.64-.43.68-.85 0-.07-.08-.04-.12-.04zm3.01-.087s-.04.49-.79.73c.7.445 2.31.86 3-1.35-.68.34-1.14.68-2.2.62zm-27.18.322s-.47.19-1.18.21c-.52 0-.88-.057-1.97-.12.48.295 1.73.75 2.37.83 1.07-.016 1.77.33 2.66.78.27.187.31-.333.48-.44 0 0-.14-.087-.19-.244-.05-.15-.08-.3.2-.38-.83-.27-1.46-.49-2.35-.62zm-1.73 1.345c.37.025.87.114 1.13.364-.35.085-.43.378-.65.523l-.05.128c.14.12.37.023.51-.043.35-.108.64-.247 1.03-.285.1.107-.1.054-.1.147.69.647 1.5 1.054 2.29 1.47.68.462 1 1.05 1.66.525l2.57-1.53.99-.45c.07-.53.49-.93.45-1.5l-.15-.17c-.8-.12-1.46.46-1.95 1.04-.76.32-1.47.81-2.15 1.33.05.07.2.15.16.24-1.1-.35-1.95-1.11-3.03-1.47-.54-.38-.97-.43-1.64-.56-.41-.13-.81-.02-.93.09l-.1.11zm27.71-.61c-.15.004-.3-.137-.52.175-.46.665-1.79 1.04-2.87.852-1.21.214-2.28.808-3.46 1.05.55.446 1.17.917 1.94.715-.2-.405-.54-.23-.66-.662.22.065.19.014.42.08 1.14.406 1.74.934 2.96.325-.17-.404-1.06-.404-.77-.648.29-.245 2.23.615 3.09.048-.3-.497-1.16-.438-.96-.68.2-.243 1.74.202 2.15-.554-.11-.44-1.29-.7-1.29-.7zm-11.03 1.902c-.61-.027-1.4-.228-1.72.417-.09.7-.23 1.44-.92 1.8 0 0-.59.29-.1.45.43.32.87.37 1.12.69.06.23-.15.23-.27.36.48.26.81.89 1.11 1.32.31-.19.56-1.21.65-1.18-.02.32.89.68 1.11.95.34-.45.23-1.2.16-1.69.35.33.55.81.96 1.1.44-.49.11-1.23-.02-1.74.28.21.99.24 1.32.49.11-.43-.18-1.03-.38-1.36l1.11.43c.05-.38-.25-.8-.34-1.13.26.09.53-.58.25-.73-.54.05-.98.3-1.55.23-.82-.15-1.63-.35-2.46-.46zm-8.06.436c-.73.284-1.83.824-2.49 1.27.04.096.83.048.87.197-.17.256-.44.456-.39.778.19-.04.87-.096.87-.096.01.23-.27.77-.19.97.23-.025.61-.287.77-.436 0 .37.18.9.36 1.2.1-.23.48-1.1 1.19-1.65-.22-.1-.45-.22-.65-.4-.4-.32-.63-.83-.45-1.34.07-.16.27-.28.25-.47h-.13zm4.57 2.427c-.28-.175-1.06-.214-1.41-.2-.68.093-1.44-.02-2.03.264 0 0-.09.04-.13.09-.16.19-.15.16-.26.38-.02.07-.49.7-.46.77-.1.2-.17.41-.14.56.12.27.36.13.58.23-.18-.14-.18-.26-.2-.38-.06-.32.42-.99.61-1.28.12-.11.22-.18.3-.19h.04c-.29.36-.49.73-.64 1.18-.06.16-.02.33.08.47.11.11.61.16.76.16-.04-.48.22-.66.08-1.12.07-.03.18-.03.22.05.17.47-.12.87.24 1.24.51.13.71-.18 1.05-.44.13-.57.04-1.15-.1-1.67.37.11.44.94.64 1.19.16.05.3-.04.42-.15.36-.36-.06-.91-.3-1.25.04-.03.36.01.61.52s.01.45.18.73c.11-.04.54-.03.65-.11.52-.4.37-.51.61-.52-.37-.27-.94-.44-1.37-.59zm-4.91 9.134h-.02c-.23.12.01.6.07.77.15.43.13.92.15 1.37.04.84.03 1.69.1 2.53.04.49.1 1.14.42 1.54.79 1 1.52 2.01 2.09 3.11l-.03.01c-.53-.31-1.35-1.34-1.87-2.23-.21 1.51.14 3.42.82 4.62.91 1.17 3.43.39 3.43.39.83-.51.43-1.48 1.3-2.12-.27-.44-.53-.54-1.06-1.21-.52-.87-1.04-1.51-1.4-2.23-.7-1.18-1.48-2.31-2.1-3.53l-1.09-1.74-.8-1.31zm14.79 1.59c-.38.18-.35.66-.36 1.03l.12-.01c.31-.15.83-.26.83-.72-.11-.2-.33-.34-.57-.31zm-4.29-3.3c.63.8 1.16 1.51 1.16 1.51-.21-.15-.92-.42-2.15-1.78-.31-.42-.84-1-.94-.9-.04.16.32.47.39.58 0 0 1.51 2.02 1.29 2.03-.22.01-1.08-.81-1.59-1.61-.55-.88-1.56-2.46-1.71-3.51 0 0 1.68 2.15 2.12 2.4 0 0-1.22-1.9-1.43-2.48-.21-.59-.87-2.25-1.39-2.71 0 0 .08.12-.5.42-.49.25-.64-.03-1.17.16-.53.19-.43.29-.72.54-.38.32-1.26.99-1.69.17 0 0-.72.44-1.3.14 0 0-1.06 3.55-.92 4.33 0 0 .44-.35.78-.15.34.19.67-.4 1.11-.21.46.2-.14 1.22.04 1.38.22.2.36-.33.77-.11.4.21.08.8.47.8s-.01-1.78.43-1.78c0 0 .03 1.14.51 1.48 0 0-.58-2.67.27-4.89 0 0-.14 3.13.15 4.48 0 0 .53-1.16 1.16-.73.63.43 0 1.36.39 1.46.39.09.94-.54 1.17-.76.23-.22.62-.3.74-.03.33.76-.41.53-.21.97.17.38.5.17.82.36.6.34-.92.6-.29 1.02.56.36 1.61.46 2.48.42 0 .01 1.78.63 2.35 1.08-.17-.31-.38-.49-.41-.88h.03c.66.32.95.79 1.09 1.37.11 0 .26-.03.33-.35.16-.47-.2-.8.25-1.16.28-.21.64-.24.99-.16-.93-.67-4.31-2.78-4.78-2.98zm-17.2-10.41c-.34-.02-.87.44-1.05.62.69-.22.94-.09 1.1-.29.01-.11.04-.27-.05-.34zm.42.19c-.09.43.19.86.53 1.08l.07-.33c-.04-.32-.35-.61-.59-.76zm-.21.82c-.04.12-.15.27-.12.41.04.24.42.35.53.71.22-.33-.04-1.02-.4-1.13zm-.29.71l-.18.29c-.29.42.21.77.2 1.04.16-.17.35-.61.26-.92-.04-.16-.13-.31-.28-.42zm-1.03.03c-.19.06-.64.35-.87.31.11.15.6.13.78.16.3.03.52-.32.69-.56l-.6.09zm.47.76c-.61.13-.25.86-.77 1.26.36-.06.51-.06.75-.48.11-.21.16-.58.03-.79zm-4.69-1.5c-.13.47-.02.58.19.87-.09-.66.69-.92.35-1.44-.25.05-.47.35-.54.57zm2.52 1.89c.02.14.6.12.87.01.14-.03.59-.19.64-.35-1.04-.27-.67.13-1.51.33zm1.28-1.49c.04.14.61.02.86-.14.13-.05.55-.29.57-.46-1.07-.08-.64.25-1.43.59zm-3.43-1.51c-.15-.07-.58.13-.7.21-.27.12-.69.52-.6.63.73-.46.76.09 1.3-.85zm1.49-1.8c.36.11.52.33.76.37.28.02.38-.06.44-.16-.1-.37-.83-.35-1.2-.22zm1.63 1.66c-.01-.38.14-.61.1-.85-.08-.28-.19-.35-.3-.37-.31.22-.05.91.2 1.21zm-1.69-1.36c-.3-.12-.83.09-1 .23.39-.03.63.42 1.09.24l.31-.15c-.09-.16-.23-.26-.38-.32zm.58.78c-.11.3.11.83.26 1-.04-.39.39-.64.2-1.11l-.16-.29c-.15.09-.25.24-.3.4zm1.4 4.05l-.34.01c-.49.05-.5.56-.85.71.22.05.79-.02 1-.26.12-.12.19-.28.2-.46zm-3.29-4.22c-.45.15-.48.3-.61.64.5-.44 1.13.06 1.38-.52-.18-.18-.55-.19-.77-.13zm1.02.91c.03.48.17.55.46.76-.3-.6.35-1.09-.14-1.48-.21.13-.33.49-.32.71zm-.55-.06c-.04.65-.05 1.16.22 1.48.2-.53.21-.77.08-1.09-.04-.15-.16-.4-.29-.39zm16.49-2.67c-.85-.34-.56-1.34-.68-2.02-.05-.14-.19-.19-.32-.16-.28.07-.53.39-.83.19.18-.03.33-.06.47-.16.08-.11.19-.22.15-.4-.05-.07-.15-.07-.23-.07-.08.02-.12.1-.12.18-.36.02-.55-.35-.92-.21-.17 0-.3-.17-.42-.31-.1-.46-.56-.7-.89-.98-.16.24-.28.5-.28.79.02.2.4.12.53.14.31.11-.27.32-.25.48-.03-.05-.04-.15.01-.2.1-.14-.1-.12-.16-.19-.01.36-.24.66-.27 1l.33.05c.08.08.03.22.04.34l.01.01c.07.01.14.02.17.02s.06.02.06.06c0 .03-.02.05-.05.05 0 0-.04 0-.1-.01.02.09.02.2.15.25.11.12-.03.38.17.43.64.03 1.06-.48 1.58-.82-.08.31-.48.44-.61.73-.07.33-.04.7-.15 1.02-.15.46-.71.21-.89.58.06.4-.13.98.28 1.21.58.08 1.09-.1 1.54-.37.81-.29 1.39-1.07 2.09-1.57-.13-.04-.27-.06-.39-.11zm-4.1.36c-.77-.02-1.42.31-1.94 1.2-.78.15-1.32.48-2.04 1.26-.52-.13-1.46-.68-1.46-.68s.48-.54.57-.58c-.13-.19-.46-.14-.36-.62.1-.48.81-.12 1.29-.35-.2-.19-.54-.39-.41-.77.13-.39.83-.18 1.11-.2-.01-.27-.32-.69-.04-.88.27-.18.94-.12.94-.12.02-.33.19-.61.35-.88-.04-.06-.66.32-.76.54-.86-.07-.99.3-1.03.83-.2.33-.79.07-.92.42-1.06-.64-1.61-.73-3.3-1.19-.54-.23-1.04-.83-1.07-1.62.69.08 1.04.2 1.51.25l3.22.89c.01 0 .01-.02.03-.03-1.41-1.24-3.27-1.14-4.99-1.6-.94-.18-1.53-.3-1.82-.4-1.12-.21-5.6-1.54-6.3-3.77 1.05.24 1.92.49 2.86.75.74.17 1.34.25 2.4.48.98.21 2.41.64 2.41.64 2.24.64 4.74.23 6.93.98.76.64.94 1.59 1.08 2.51l.23.24c0 1.28.5 1.91 1.52 2.68zm-3.07-2.88c-.16-.72-.47-1.49-1.15-1.74-1.59-.58-3.67-.66-5.39-.95l1.19.41c2.29.48 4.02.49 5.35 2.27zm20.89 27.64c-.55-.06-1.03-.03-1.22.49-.61 1.42-.61 2.01-2.05 2.53-.8.18-1.71.25-1.84-.19.18-.88 1.38-1 1.88-1.27.81-.43 1.03-1.3 1.06-2.16-.04-.18-.5-.53-.68-.62l-1.33-.93-1.95-1.44c-.01-.01-.02-.03-.04-.01l-.01.01s2.32 2.29 3.32 2.95c.12 1.48-.86 1.55-2.05 2.16-.75.42-.27 1.18-1.65 1.89-.4.18-1.76.37-1.44-.31.47-.71-.03-.71-.03-.71-.52.15-2.63.74-1.16-.25.2-.13.37-.49.37-.49.21-.59-.44-.7-.67-.45-.51.56-.55 1.53-2.02 1.25 0 0-1.73-.4-.33-2.37.65-.45-1.03-1.25-1.32-1.93l-.86-1.4-2.13-3.34-1.62-2.48c-.36-.53-.79-1.07-1.15-1.63-.46-1.24-.12-1.45.32-1.51.57.32.61.16.884.07.3-.1.26.32 0 .53-.15.29-.14.41.06.68.38.14.38-.17.717-.07.34.09.73 1.13 1.34 1.31.12-.02.25.01.3-.08-.03-.31-.26-.8-.28-1.1.32.36 1.5 1.47 1.334.84-.16-.64-.145-1.02-.145-1.02.12-.16.11-.45.31-.45.12 0 .22.01.31.08.26.49.1 1.14.56 1.51.11.03.25.15.33.06 1.03 1.92 2.67 3.53 4.37 4.9.12.08.33.22.47.22.05-.27-.72-.86-1-1.35l-2.14-2.09c-.315-.39-1.48-1.56-1.26-2.08.1-.42.58-.74.79-.77-.04.15-.35.33-.24.69.14.29.27.39.58.51-.8.79.49 1.45 1.87 1.63 1.43-.31 2.26.75 3.6.96 0 0 .11.44.4.48l2.02 2.44c1.11 1.07 2.41 3.21 3.47 4.26zm-8.62-1.53s-4.15-5.68-5.23-6.48l3.52 5.33c.47.62 1.28 1.51 1.63 2.13.11-.18.25-.42.09-.97zm-4.49-23.05c-1.14 1.09.47 4.12-1.03 4.8-2.55-.35-3.01.08-3.38-.02-.02-.05.11-.14.14-.22-.41-.07-.75-.11-.98-.5-.51-.71.27-1.27.53-1.83 0 0 .22-.45.34-.83.04-.15.15.46.63.44.48-.03.76-.07 1.49-.37-.61.62-.8.65-1.59.87.32.07.93 0 1.56-.33.76-.41 1.72-1.7 1.72-1.7.23-.21.68-.4.59-.33zm-1.05 3.91c-.2.25-.43.38-1.16.38-.86 0-1.29-.55-1.29-.55.04.24.2.61.65.73.37.1.5.12 1.08.07s.73-.63.73-.63z"/></defs><clipPath id="SVGID_112_"><use xlink:href="#SVGID_111_" overflow="visible"/></clipPath><path class="st56" d="M-58.783 352.463h53.037v47.782h-53.037z"/></g><g class="st13"><defs><path id="SVGID_113_" d="M-65.53 392.217h-.252l.063.248c.6 2.343-.03 4.622-1.67 6.092l-.52.466.69-.122c.53-.09 1.22-.19 1.95-.13 1.72.11 2.93.47 3.91 1.13-.05.27-1.03 5.15-1.03 5.15-.01.08-.02.16-.02.23 0 .33.16.62.33.86l.01.01.01.01c.75.8 1.71 1.06 2.64 1.32l.08.03c4.05.95 8.31.1 12.02-2.38l2-1.31.88-.54 1.06-.65c2.04-1.21 3.71-1.88 5.61-2.21 3.91-.69 8.11.15 11.22 2.25l.41.24 2.63 1.74c0 .01 1.64 1.05 1.64 1.05 3.62 2.29 8.3 2.97 12.23 1.78.67-.22 2.04-.68 2.23-1.89l.01-.03-1.03-5.41.15-.1-.04.03c1.65-.93 3.81-1.26 5.79-.87l.71.14-.54-.48c-1.65-1.46-2.26-3.74-1.65-6.1l.07-.24h-.25c-2.51-.02-4.84.33-6.94 1.04-1.04.41-2.61 1.02-3.07 2.44l-.01.03-.06 4.14-.01 1.63c-2.44-.05-4.46-1.28-6.16-2.45l-.59-.41-2.44-1.61c-2.89-1.81-5.75-2.88-8.75-3.29-5.13-.67-10.26.59-14.82 3.66l-2.29 1.57c-1.8 1.2-3.76 2.36-6.14 2.39 0-.3.03-5.48.03-5.48-.02-.82-.65-1.58-1.87-2.27-2.25-1.1-4.9-1.63-8.11-1.61"/></defs><clipPath id="SVGID_114_"><use xlink:href="#SVGID_113_" overflow="visible"/></clipPath><path class="st57" d="M-72.613 387.523h75.41v25.184h-75.41z"/></g><g class="st13"><defs><path id="SVGID_115_" d="M-58.003 398.18c.655-.19 1.325-.4 1.872-.915-.01.28-.02 4.18-.02 4.32-1.43-.04-3.03-.235-4.23-1.327 0-.003-.05-.07-.05-.07-.14-.173-.25-.318-.25-.5 0-.063.01-.132.04-.207.35-.65 1.04-.84 1.71-1.03l.54-.16.36-.11"/></defs><clipPath id="SVGID_116_"><use xlink:href="#SVGID_115_" overflow="visible"/></clipPath><path class="st58" d="M-65.364 392.57h13.926v13.708h-13.926z"/></g><g class="st13"><defs><path id="SVGID_117_" d="M-13.782 397.493c.655.576 1.458.82 2.242 1.04.69.196 1.403.397 1.993.838.18.17.264.31.264.46 0 .07-.016.13-.048.2-.38.73-1.27 1.09-1.9 1.3-.84.24-1.68.36-2.56.38v-4.2"/></defs><clipPath id="SVGID_118_"><use xlink:href="#SVGID_117_" overflow="visible"/></clipPath><path class="st59" d="M-18.475 392.8h13.887v13.588h-13.887z"/></g><g class="st13"><defs><path id="SVGID_119_" d="M-64.958 394.167c0-.462-.052-.928-.14-1.398 2.44.09 5.247.38 7.683 1.71.61.39 1.298.93 1.298 1.64 0 .02 0 .03-.002.05-.11.91-1.03 1.19-1.84 1.44l-1.05.32c-.86.24-1.74.5-2.14 1.4-1.38-.84-3.13-1.23-5.19-1.15.9-1.08 1.39-2.51 1.39-4.04"/></defs><clipPath id="SVGID_120_"><use xlink:href="#SVGID_119_" overflow="visible"/></clipPath><path class="st60" d="M-71.034 388.075h19.61v15.973h-19.61z"/></g><g class="st13"><defs><path id="SVGID_121_" d="M-10.303 398.315l-.086-.034-1.02-.31c-.83-.22-1.62-.43-2.21-1.09-.11-.15-.15-.35-.15-.56 0-.18.04-.35.1-.5.77-1.19 2.08-1.6 3.35-2l.34-.1c1.56-.43 3.29-.65 5.27-.7-.08.51-.14 1-.14 1.48 0 1.55.47 2.91 1.34 3.96-2.01-.08-3.76.3-5.2 1.12-.23-.71-.96-1.01-1.56-1.24"/></defs><clipPath id="SVGID_122_"><use xlink:href="#SVGID_121_" overflow="visible"/></clipPath><path class="st61" d="M-18.47 388.31H1.16v15.94h-19.63z"/></g><g class="st13"><defs><path id="SVGID_123_" d="M-49.773 400.11l3.546-2.303c4.295-2.754 8.915-3.844 13.73-3.236 2.777.37 5.427 1.32 8.095 2.91l2.282 1.44 2.334 1.54c2.24 1.54 4.965 2.15 7.673 1.73 1.093-.24 2.314-.53 3.135-1.53l.94 4.89c-.133.65-.832.96-1.394 1.22l-.14.07c-4.07 1.36-9.006.55-12.877-2.13l-3.51-2.33c-3.66-2.38-8.03-3.23-12.32-2.4-2.1.41-4.16 1.3-6.48 2.81L-48 404.9c-3.17 2.05-6.89 2.84-10.48 2.24-1.09-.214-2.23-.434-3.1-1.24-.17-.195-.26-.368-.29-.56 0 0 .85-4.24.97-4.848 1.18 1.31 2.89 1.6 4.57 1.69 2.18.11 4.27-.54 6.58-2.04zm-9.118 2.885l-1.26-.19c-.04.026-.05.1-.05.1.12.06.13.09.12.157l-.35 2.374c-.01.067-.02.092-.13.088-.03.026-.04.106-.04.106.02.03.82.148.82.148l.03.006.01-.105c-.1-.05-.12-.08-.12-.12v-.04l.13-.95c0 .03.56.11.56.11.72.11 1.04-.29 1.11-.7.05-.42-.14-.89-.87-1zm-.27 1.173l-.5-.072c.02-.005.11-.602.13-.683.05.01.47.07.47.07.21.032.34.085.4.17l.04.25c-.04.25-.19.32-.55.265zm2.68-.883c-.36-.012-.67.1-.91.324-.27.25-.43.64-.45 1.1-.03.88.48 1.48 1.25 1.51.35.01.67-.1.9-.32.27-.26.43-.65.44-1.11.01-.45-.12-.86-.38-1.13-.23-.24-.53-.37-.89-.38zm.4 2.27c-.12.115-.29.17-.48.165-.46-.017-.7-.366-.68-.988.01-.352.1-.62.27-.777.12-.115.28-.168.47-.162.19.007.35.07.46.196.15.16.23.44.22.78-.01.35-.11.62-.27.77zm2.5-1.424c-.34 0-.63 0-.68-.21-.04-.19.07-.32.32-.38.42-.09.67.05.69.15l.01.07c.02.05.1.07.1.07.03-.01.28-.75.28-.75l.03-.1-.14.07-.09.08-.14-.02-.16-.03c-.2-.03-.43-.03-.66.02-.75.17-.92.67-.84 1.05.12.58.7.59 1.17.59.36.01.67.01.72.24l-.04.26c-.07.12-.24.2-.5.26-.22.05-.55.04-.69-.06l-.07-.08-.02-.07-.08-.01c-.04.02-.21.74-.21.74s.01.01.02.01l.06.02c0-.01 0-.01.01-.02h.02c.02-.03.03-.05.04-.05l.16.01.16.03.64-.02c.83-.18 1.12-.72 1.03-1.16-.14-.65-.75-.65-1.24-.66zm3.33.47l-.89-1.96c.01.03.56-.23.56-.23.1-.05.13-.04.18.03.03.01.1-.02.1-.02.01-.03-.26-.65-.26-.65-.04-.01-.11.02-.11.02-.01.09-.02.12-.13.17l-1.65.76c-.12.05-.14.04-.17 0-.04-.01-.1.02-.1.02-.01.04.26.65.26.65.03.02.1-.01.1-.01l-.01-.04c0-.08.03-.11.12-.15l.58-.26c0 .07.85 1.95.85 1.95.01.03.02.05.02.07 0 .03-.02.05-.05.07v.01c0 .04.02.09.02.09.04.02.73-.3.73-.3l.02-.01-.04-.09c-.13.01-.15 0-.18-.07zm2.94-2.21v.05c0 .05-.02.08-.1.13l-1.03.67c0-.04-.32-.54-.36-.61.04-.03.54-.36.54-.36.1-.06.13-.06.16-.03.03.01.1-.03.1-.03.01-.04-.34-.57-.34-.57-.04-.01-.1.04-.1.04v.04c0 .06-.02.09-.1.14l-.57.37c0-.04-.33-.57-.34-.57.02.03.96-.59.96-.59.1-.07.13-.06.16-.03.03.01.1-.04.1-.04.01-.04-.34-.57-.34-.57-.04-.01-.11.03-.11.03.01.09.01.12-.1.19l-1.57 1.02c-.01.04.03.1.03.1.18-.06.2-.04.23.02l1.29 2.01c.04.06.05.08-.06.18-.01.04.03.11.03.11.04.01 1.66-1.05 1.66-1.05.11-.06.13-.06.17-.02.04.01.1-.03.1-.03.01-.04-.34-.58-.34-.58-.04-.01-.1.03-.1.03zm2.39-1.29l-.09-.05-.79-.45.02-.03c.26-.25.29-.6.06-.96-.28-.42-.75-.47-1.25-.15l-1.12.73c-.01.04.03.11.03.11.12-.03.14-.01.18.05l1.29 2.01c.04.06.03.09-.02.14-.01.04.03.1.03.1.04.01.69-.41.69-.41l.03-.01-.06-.09c-.12.03-.14.02-.18-.05l-.52-.8c.01.03.39-.22.39-.22 0 .02.8.48.8.48l.13.1v.02c0 .01-.01.03-.05.07v.01c0 .03.03.09.03.09.04.01.7-.43.7-.43 0-.04-.04-.1-.04-.1-.1.02-.15-.01-.32-.11zm-1.45-.61l-.52.34c0-.04-.31-.52-.35-.59l.48-.32c.24-.16.42-.14.55.06l.06.25c-.02.1-.1.19-.24.28zm6.75-2.38c-.04 0-.09.04-.09.04-.01.04.04.13.04.13 0 .01-.03.18-.03.18-.07.14-.22.26-.39.31-.19.06-.38.04-.55-.05-.21-.11-.38-.33-.46-.62-.11-.35-.11-.63 0-.83.08-.16.24-.28.47-.35.25-.08.53 0 .58.17v.02l.03.06h.05c.03-.02.18-.74.18-.74l.01-.08-.1.04-.09.07c0 .01-.12-.02-.12-.02l-.14-.03c-.19-.03-.38-.02-.58.04-.65.2-1.18.85-.88 1.84.25.81.93 1.23 1.67 1 .47-.15.63-.39.73-.55l.09-.1c.02 0 .05 0 .08.03.04-.01.07-.07.07-.07-.01-.03-.61-.46-.61-.46zm2.88.12l-.06-.08s-.52-.73-.52-.75c.01 0 .01-.01.03-.01.34-.11.51-.42.45-.84-.07-.49-.48-.75-1.07-.67l-1.32.19c-.03.04-.02.11-.02.11.12.03.14.05.14.12l.33 2.37c.01.08 0 .1-.08.13-.02.03-.01.1-.01.1.03.03.8-.08.8-.08h.03l-.02-.1c-.13-.03-.14-.05-.15-.12l-.13-.94c0 .03.45-.03.45-.03 0 .03.53.78.53.78l.08.14v.01c0 .01-.01.03-.07.05-.02.02-.02.05-.02.07v.04c.03.03.81-.08.81-.08.02-.03.01-.11.01-.11-.11-.02-.14-.07-.25-.23zm-.72-1.32c-.06.09-.17.14-.34.16l-.6.09v-.03c0-.12-.07-.58-.08-.66l.58-.08c.29-.04.44.06.47.29l-.05.25zm3.16 1.14h-1.22l.03-.71h.65c.12 0 .14.02.15.07l.1.02.03-.66-.11-.03c-.04.08-.06.1-.18.1h-.69l.03-.67 1.12.03c.13 0 .14.02.15.07l.1.02.02-.66-.1-.03c-.04.08-.05.1-.18.1h-1.86l-.03.11c.18.05.18.08.18.14v2.4c0 .07 0 .1-.14.11l-.03.11 1.96.03c.13 0 .14.02.15.07l.11.03.03-.67-.1-.03c-.04.07-.06.09-.18.09zm2.43-1.23c.04 0 .51-.61.51-.61l-.02-.02h-.01l-.06-.05c-.04.03-.06.05-.11.04l-.12-.06-.14-.08c-.18-.1-.39-.16-.62-.19-.76-.1-1.09.31-1.14.7-.08.59.47.79.91.95.34.13.63.24.6.47l-.12.23c-.11.09-.3.11-.55.07-.23-.02-.53-.14-.64-.28l-.04-.11.01-.07-.07-.04c-.04.01-.44.63-.44.63l-.01.02.07.05c.05-.01.12-.05.12-.05 0 .01.14.08.14.08l.15.09.62.21c.53.07.86-.07 1.03-.2.17-.14.29-.33.31-.54.09-.66-.48-.87-.94-1.04-.32-.11-.59-.22-.56-.43l.1-.19c.07-.05.19-.08.33-.05.38.06.52.22.56.27l.04.11-.02.09c.02.03.09.07.09.07zm2.66 2.41c.04.02.09-.02.09-.02.01-.03-.27-.72-.27-.72-.03-.02-.1-.01-.1-.01-.03.03-.04.13-.04.13 0 .01-.13.15-.13.15-.13.08-.32.1-.48.05-.44-.12-.64-.58-.5-1.11.1-.35.25-.59.44-.7.16-.09.35-.1.58-.04.16.05.3.15.37.27l.03.21-.01.07.04.03c.04 0 .54-.53.54-.53l.06-.06-.11-.02-.11.02-.08-.07-.11-.11c-.14-.13-.31-.23-.51-.28-.36-.1-.73-.06-1.03.11-.33.19-.57.53-.69.97-.22.82.14 1.54.88 1.74.47.13.74.01.91-.06l.13-.04c.03.01.04.03.06.06zm2.23 1.02l.17-2.42.02-.15c0-.02.02-.06.1-.03.03-.02.06-.09.06-.09-.02-.04-.84-.39-.84-.39-.04.02-.06.09-.06.09.07.06.08.09.08.1v.01l-.11.14-1.61 1.82c-.04.04-.08.08-.12.07-.04.02-.07.09-.07.09.01.04.66.32.66.32l.03.01.04-.1c-.06-.05-.08-.08-.08-.11 0-.01.01-.02.01-.02l.05-.07.31-.35c0 .02.84.39.85.39-.02 0-.05.5-.05.5l-.01.09c-.01.01-.01.02-.08 0-.04.02-.07.09-.07.09.01.04.68.32.68.32.04-.01.07-.08.07-.08-.05-.06-.06-.08-.05-.18zm-.34-2.26c-.05.22-.13 1.07-.14 1.1l-.02-.01c-.06-.05-.47-.23-.56-.27l.71-.85v.03zm2.96 3.9l1.29-2.09c.02-.04.05-.05.11-.01.04-.01.08-.07.08-.07-.01-.05-.8-.54-.8-.54-.04.01-.08.07-.08.07.03.05.04.07.04.09 0 .01-.01.02-.01.03-.03.04-.31.24-.6.45l-.75.54v-.04c.05-.16.14-.63.14-.63.06-.38.15-.91.17-.95.01-.01.02-.02.08-.01.03-.01.07-.07.07-.07-.01-.04-.81-.55-.81-.55-.04.01-.08.08-.08.08.06.08.05.11.03.15l-1.29 2.09c-.03.05-.06.05-.11.02-.04.01-.08.08-.08.08.01.04.62.43.62.43l.03.02.05-.09c-.05-.06-.07-.09-.07-.12 0-.01.01-.03.02-.04l1.01-1.62-.01.05c-.09.32-.3 1.38-.3 1.38l-.14.77c.01.03.08.07.08.07.03 0 .73-.5.73-.5l1.12-.84-.04.08c-.25.34-1 1.55-1 1.55-.02.03-.05.06-.13.01-.04.01-.08.07-.08.07.01.04.64.44.64.44.04-.01.08-.08.08-.08-.08-.09-.07-.13-.05-.16zm3.33 1.73c-.1.07-.12.08-.22.01l-.98-.65c.03 0 1.18-1.76 1.18-1.76.04-.06.06-.08.19-.01.03-.01.08-.07.08-.07-.01-.04-.74-.52-.74-.52-.04.01-.08.07-.08.07.1.13.09.15.06.21l-1.31 2.01c-.04.06-.06.07-.16.02-.04.01-.08.07-.08.07 0 .04 1.55 1.06 1.55 1.06.1.07.11.1.09.15.01.04.07.08.07.08.04-.01.41-.57.41-.57-.01-.04-.07-.09-.07-.09zm1.92-1.35c.09.08.08.1.07.11l-.11.12-1.68 1.76c-.04.04-.09.08-.13.06-.04.02-.07.08-.07.08.01.04.65.34.65.34l.02.02.04-.1c-.05-.05-.07-.08-.07-.11 0-.01 0-.02.01-.03l.05-.07s.32-.33.32-.34c0 .02.83.42.83.42-.02 0-.07.49-.07.49l-.01.09c0 .01-.01.02-.08 0-.03.01-.06.08-.06.08.01.04.67.35.67.35.04-.01.07-.08.07-.08-.05-.06-.06-.07-.05-.17l.25-2.35.04-.22c.01-.02.02-.05.1-.02.04-.01.07-.09.07-.09-.01-.04-.82-.42-.82-.42-.04.02-.07.09-.07.09zm.17.74c-.06.22-.17 1.06-.18 1.09h-.02c-.06-.05-.46-.25-.55-.29l.74-.82-.01.03zm2.98.4c.1.07.11.1.09.17l-.38 1.54c-.09.35-.34.51-.69.42-.17-.04-.3-.13-.37-.24-.07-.12-.09-.28-.05-.45l.38-1.54c.02-.07.04-.09.13-.08.03-.02.05-.1.05-.1-.03-.03-.81-.22-.81-.22l-.03-.01-.01.03-.02.07c.13.08.13.11.11.17l-.37 1.53c-.17.71.11 1.16.84 1.34.37.1.68.07.91-.07.22-.13.37-.37.46-.71l.38-1.53c.01-.07.03-.09.13-.08.03-.02.05-.09.05-.09-.02-.03-.76-.22-.76-.22-.04.03-.06.1-.06.1zm2.13.12H-15c-.03.03-.03.11-.03.11.12.05.13.07.13.14l-.01 2.4c0 .07-.015.1-.11.11l-.022.1c.03.03 1.092.04 1.092.04.46 0 .82-.12 1.06-.36.24-.24.36-.6.36-1.07 0-.9-.49-1.45-1.313-1.45zm.72 1.44c-.01.71-.23.93-.93.93h-.31c.03 0 .04-1.7.04-1.86l.28.01c.7 0 .93.23.93.92v.01zm3.39.21c-.04-.02-.11 0-.11 0-.02.09-.03.11-.15.14l-1.19.31v-.01c0-.08-.14-.61-.16-.69l.63-.16c.12-.03.14-.02.16.03.03.02.1 0 .1 0 .02-.03-.14-.64-.14-.64-.04-.02-.11 0-.11 0-.02.08-.03.11-.15.14l-.66.17v-.01c0-.09-.14-.64-.14-.64 0 .03 1.09-.26 1.09-.26.12-.03.14-.02.16.03.03.01.11-.01.11-.01.02-.04-.14-.65-.14-.65-.04-.02-.11 0-.11 0-.02.08-.03.11-.15.14l-1.81.47c-.02.04-.01.11-.01.11.18 0 .2.02.21.09l.6 2.32c.01.07.01.1-.12.15-.02.04 0 .11 0 .11.04.02 1.9-.47 1.9-.47.13-.03.14-.01.17.04.03.02.1 0 .1 0 .02-.04-.14-.66-.14-.66zm-32.72-5.28l-1.71-1.62-.15-.15c-.01-.02-.02-.05.04-.09.01-.04-.02-.1-.02-.1-.04-.01-.83.41-.83.41-.02.04.02.11.02.11.12-.02.13-.01.13 0l.04.17.38 2.41c.01.06.01.12-.03.14-.01.04.02.11.02.11.04.02.66-.32.66-.32l.02-.01-.05-.09c-.09.01-.13.01-.15-.03l-.02-.08-.08-.47c.01.02.82-.41.83-.42 0 .03.35.35.35.35l.05.06v.01c0 .01-.01.02-.05.05v.02c0 .04.03.09.03.09.04.01.68-.33.68-.33.01-.04-.02-.1-.02-.1-.08 0-.09 0-.16-.07zm-1.21-.35c-.08.01-.47.22-.56.26-.02-.07-.19-1-.21-1.1l.02.03c.13.17.73.78.76.8l-.02.01z"/></defs><clipPath id="SVGID_124_"><use xlink:href="#SVGID_123_" overflow="visible"/></clipPath><path class="st62" d="M-66.58 389.714h63.234v22.435H-66.58z"/></g></g></g></g></g></g></g></g></g></g></g></g></g><path class="st63" d="M130.167 414.33h1.585v8.06h-1.585z"/><path class="st63" d="M-154.406 296.594h1600v2349h-1600z"/><path class="st63" d="M-154.406 296.594h1600v2349h-1600z"/><path class="st63" d="M-154.406 296.594h1600v2349h-1600z"/><path class="st63" d="M-154.406 296.594h1600v2349h-1600z"/><path class="st63" d="M-154.406 296.594h1600v2349h-1600z"/><path class="st63" d="M-154.406 296.594h1600v2349h-1600z"/><path class="st63" d="M-154.406 296.594h1600v2349h-1600z"/><path class="st63" d="M-154.406 296.594h1600v2349h-1600z"/><path class="st63" d="M-154.406 296.594h1600v2349h-1600z"/><path class="st63" d="M-154.406 296.594h1600v2349h-1600z"/><path class="st63" d="M-154.406 296.594h1600v2349h-1600z"/><path class="st63" d="M-154.406 296.594h1600v2349h-1600z"/><path class="st63" d="M-154.406 296.594h1600v2349h-1600z"/><path class="st63" d="M-154.406 296.594h1600v2349h-1600z"/><path class="st63" d="M-154.406 296.594h1600v2349h-1600z"/><path class="st63" d="M-154.406 296.594h1600v2349h-1600z"/><path class="st63" d="M-154.406 296.594h1600v2349h-1600z"/><path class="st63" d="M-154.406 296.594h1600v2349h-1600z"/><path class="st63" d="M-154.406 296.594h1600v2349h-1600z"/><path class="st63" d="M-154.406 296.594h1600v2349h-1600z"/><path class="st63" d="M-154.406 296.594h1600v2349h-1600z"/><path class="st63" d="M-154.406 296.594h1600v2349h-1600z"/><path class="st63" d="M-154.406 296.594h1600v2349h-1600z"/><path class="st63" d="M-154.406 296.594h1600v2349h-1600z"/><path class="st63" d="M-154.406 296.594h1600v2349h-1600z"/><path class="st63" d="M-154.406 296.594h1600v2349h-1600z"/><path class="st63" d="M-154.406 296.594h1600v2349h-1600z"/><path class="st63" d="M-154.406 296.594h1600v2349h-1600z"/><path class="st63" d="M-154.406 296.594h1600v2349h-1600z"/><path class="st63" d="M-154.406 296.594h1600v2349h-1600z"/><path class="st63" d="M-154.406 296.594h1600v2349h-1600z"/><path class="st63" d="M-154.406 296.594h1600v2349h-1600z"/><path class="st63" d="M-154.406 296.594h1600v2349h-1600z"/><path class="st63" d="M-154.406 296.594h1600v2349h-1600z"/><path class="st63" d="M-154.406 296.594h1600v2349h-1600z"/><path class="st63" d="M-154.406 296.594h1600v2349h-1600z"/><path class="st63" d="M-154.406 296.594h1600v2349h-1600z"/><path class="st63" d="M-154.406 296.594h1600v2349h-1600z"/><path class="st63" d="M-154.406 296.594h1600v2349h-1600z"/><path class="st63" d="M-154.406 296.594h1600v2349h-1600z"/><path class="st63" d="M-154.406 296.594h1600v2349h-1600z"/><path class="st63" d="M-154.406 296.594h1600v2349h-1600z"/><path class="st63" d="M-154.406 296.594h1600v2349h-1600z"/><path class="st63" d="M-154.406 296.594h1600v2349h-1600z"/><path class="st63" d="M-154.406 296.594h1600v2349h-1600z"/><path class="st63" d="M-154.406 296.594h1600v2349h-1600z"/><path class="st63" d="M-154.406 296.594h1600v2349h-1600z"/><path class="st63" d="M-154.406 296.594h1600v2349h-1600z"/><path class="st63" d="M-154.406 296.594h1600v2349h-1600z"/><path class="st63" d="M-154.406 296.594h1600v2349h-1600z"/><path class="st63" d="M-154.406 296.594h1600v2349h-1600z"/><path class="st63" d="M-154.406 296.594h1600v2349h-1600z"/><path class="st63" d="M-154.406 296.594h1600v2349h-1600z"/><path class="st63" d="M-154.406 296.594h1600v2349h-1600z"/><path class="st63" d="M-154.406 296.594h1600v2349h-1600z"/><path class="st63" d="M-154.406 296.594h1600v2349h-1600z"/><path class="st63" d="M-154.406 296.594h1600v2349h-1600z"/><path class="st63" d="M-154.406 296.594h1600v2349h-1600z"/><path class="st63" d="M-154.406 296.594h1600v2349h-1600z"/><path class="st63" d="M-154.406 296.594h1600v2349h-1600z"/><path class="st63" d="M-154.406 296.594h1600v2349h-1600z"/><path class="st63" d="M-154.406 296.594h1600v2349h-1600z"/><path class="st63" d="M-154.406 296.594h1600v2349h-1600z"/><path class="st63" d="M-154.406 296.594h1600v2349h-1600z"/><path class="st63" d="M-154.406 296.594h1600v2349h-1600z"/></g><g id="Layer_2"><defs><path id="SVGID_125_" d="M105.22 371.777c2.096.655 5.762 1.702 5.762 5.892 0 2.48-1.31 3.92-2.357 4.71-1.44 1.05-3.535 1.31-5.237 1.31-1.048 0-3.798-.13-5.762-1.7-1.702-1.44-2.095-3.54-2.095-4.19 0-1.31 1.31-1.57 1.84-1.57.92 0 1.18.52 1.31.78.53 1.44.53 1.57.79 1.96.92 1.3 2.49 1.83 4.06 1.83 2.23 0 3.93-1.18 3.93-3.01 0-1.97-1.7-2.49-3.66-3.01l-2.22-.66c-2.09-.66-5.37-1.7-5.37-5.5 0-1.05.4-5.76 6.94-5.76 6.42 0 7.47 4.45 7.47 5.23 0 1.18-1.04 1.44-1.57 1.44-.78 0-1.05-.4-1.7-1.57-.39-.66-1.44-2.49-4.45-2.49-.52 0-1.44 0-2.22.52-.66.39-1.05 1.18-1.05 1.96 0 1.83 1.57 2.22 3.27 2.75l2.36 1.05z"/></defs><clipPath id="SVGID_126_"><use xlink:href="#SVGID_125_" overflow="visible"/></clipPath><path class="st64" d="M88.984 356.325h28.546v33.915H88.984z"/><defs><path id="SVGID_127_" d="M68.687 383.038v-10.083c0-2.095 0-3.535.917-4.845.916-1.44 2.357-1.964 3.928-1.964 3.143 0 3.405 2.62 3.536 3.274.13.524.13.916.13 2.75v11h3.536v-10.74c0-1.572 0-2.88.786-4.19.655-.917 1.833-1.965 3.928-1.965 3.536 0 3.536 2.88 3.536 4.19v12.705h3.535v-12.704c0-1.963-.14-3.665-1.44-5.236-1.45-1.703-3.41-1.965-5.24-1.965-2.88 0-4.72 1.31-6.16 3.143-.26-.524-.79-1.57-2.23-2.357-1.05-.52-2.1-.78-3.28-.78-2.36 0-4.06.79-5.63 2.62 0-1.31 0-1.96-.79-2.36-.52-.26-1.44-.26-1.83 0-.79.4-.79.92-.79 1.44v18.2h3.53v-.13z"/></defs><clipPath id="SVGID_128_"><use xlink:href="#SVGID_127_" overflow="visible"/></clipPath><path class="st65" d="M58.604 356.718h40.462v32.998H58.604z"/><defs><path id="SVGID_129_" d="M126.04 380.157c-.785.393-1.7.524-2.618.524-4.452 0-5.37-4.05-5.37-7.33 0-.91.132-1.7.263-2.62.524-2.62 1.965-4.71 5.107-4.71 1.44 0 3.274.4 4.583 2.36.917 1.57 1.18 3.41 1.18 4.98-.132.92-.132 5.24-3.144 6.81m3.02 2.88h3.41v-24.36c0-.52-.13-1.18-.78-1.57-.39-.13-.78-.13-.91-.13-.78 0-1.31.53-1.44.79-.13.26-.13.53-.13.92v7.34c-.52-.65-2.22-3.01-6.28-3.01-6.15 0-8.25 5.37-8.25 10.21 0 5.37 2.49 10.48 8.51 10.48 1.58 0 3.15-.39 4.59-1.31.79-.52 1.31-1.05 1.57-1.44-.26.53-.26 1.83-.26 2.1"/></defs><clipPath id="SVGID_130_"><use xlink:href="#SVGID_129_" overflow="visible"/></clipPath><path class="st66" d="M108.102 350.433h30.903v39.807h-30.903z"/><defs><path id="SVGID_131_" d="M73.4 420.88v-5.76l-1.963 3.797h-1.31l-1.964-3.797v5.76H66.33v-9.95h1.833l2.62 5.368 2.618-5.37h1.97v9.953z"/></defs><clipPath id="SVGID_132_"><use xlink:href="#SVGID_131_" overflow="visible"/></clipPath><path class="st67" d="M59.783 404.382h22.13v23.046h-22.13z"/><defs><path id="SVGID_133_" d="M81.52 415.774c-.13-.392-.655-.785-1.18-.785-.653 0-1.046.26-1.177.78-.13.26-.13.52-.13.78h2.75c-.132-.27-.132-.53-.263-.79zm-2.62 2.095c0 .91.525 1.57 1.572 1.57.786 0 1.18-.26 1.703-.66l1.047 1.05c-.786.78-1.44 1.18-2.75 1.18-1.702 0-3.404-.79-3.404-3.8 0-2.36 1.31-3.67 3.142-3.67 2.096 0 3.143 1.44 3.143 3.53v.78H78.9z"/></defs><clipPath id="SVGID_134_"><use xlink:href="#SVGID_133_" overflow="visible"/></clipPath><path class="st68" d="M70.52 407H89.9v20.56H70.52z"/><defs><path id="SVGID_135_" d="M87.15 420.88c-1.44 0-2.095-1.046-2.095-2.094v-7.857h1.834v7.72c0 .39.13.65.65.65h.65v1.57h-1.04z"/></defs><clipPath id="SVGID_136_"><use xlink:href="#SVGID_135_" overflow="visible"/></clipPath><path class="st69" d="M78.508 404.382h16.237v23.046H78.508z"/><defs><path id="SVGID_137_" d="M92.78 415.25c-1.046 0-1.177.917-1.177 2.096s.13 2.095 1.178 2.095 1.18-.91 1.18-2.09c0-1.31-.13-2.09-1.18-2.09m2.23 5.11c-.39.4-1.04.66-1.83.66s-1.31-.26-1.83-.78v.66h-1.71v-9.95h1.84v3.28c.53-.52 1.05-.78 1.7-.78s1.31.26 1.84.66c.78.79.78 1.97.78 3.01 0 1.31 0 2.49-.78 3.28"/></defs><clipPath id="SVGID_138_"><use xlink:href="#SVGID_137_" overflow="visible"/></clipPath><path class="st70" d="M83.09 404.382h19.25v23.177H83.09z"/><defs><path id="SVGID_139_" d="M101.162 415.512c-.262-.26-.524-.26-.917-.26s-.655.13-.786.26c-.4.393-.4 1.048-.4 1.703 0 .785 0 1.44.39 1.833.26.262.52.262.78.262.39 0 .65-.13.91-.262.39-.393.39-1.048.39-1.833 0-.655 0-1.31-.39-1.703m1.44 4.584c-.4.523-1.18.916-2.23.916s-1.83-.393-2.23-.916c-.66-.655-.79-1.572-.79-2.88s.13-2.096.79-2.882c.39-.524 1.18-.917 2.23-.917s1.83.393 2.22.917c.65.655.78 1.57.78 2.88 0 1.44-.13 2.227-.79 2.882"/></defs><clipPath id="SVGID_140_"><use xlink:href="#SVGID_139_" overflow="visible"/></clipPath><path class="st71" d="M90.817 406.87h19.118v20.69H90.817z"/><defs><path id="SVGID_141_" d="M109.28 420.88v-.654c-.524.524-1.178.786-1.833.786-.786 0-1.31-.262-1.702-.655-.655-.654-.786-1.31-.786-2.095v-4.714h1.83V418c0 1.048.65 1.31 1.18 1.31s1.17-.393 1.17-1.31v-4.452h1.83v7.333h-1.71z"/></defs><clipPath id="SVGID_142_"><use xlink:href="#SVGID_141_" overflow="visible"/></clipPath><path class="st72" d="M98.412 407h19.118v20.56H98.412z"/><defs><path id="SVGID_143_" d="M117.137 415.643c-.262-.26-.524-.392-.917-.392-.524 0-1.178.4-1.178 1.31v4.46h-1.833v-7.33h1.83v.66c.39-.39 1.04-.78 1.83-.78.65 0 1.18.13 1.7.66l-1.44 1.44z"/></defs><clipPath id="SVGID_144_"><use xlink:href="#SVGID_143_" overflow="visible"/></clipPath><path class="st73" d="M106.66 407h18.464v20.56H106.66z"/><defs><path id="SVGID_145_" d="M123.684 420.88v-4.45c0-1.048-.655-1.31-1.178-1.31s-1.18.392-1.18 1.31v4.45h-1.832v-7.332h1.833v.655c.524-.524 1.18-.786 1.833-.786.786 0 1.31.262 1.703.655.523.524.785 1.31.785 2.095v4.714h-1.964z"/></defs><clipPath id="SVGID_146_"><use xlink:href="#SVGID_145_" overflow="visible"/></clipPath><path class="st74" d="M112.947 406.87h19.25v20.558h-19.25z"/><defs><path id="SVGID_147_" d="M131.54 415.774c-.13-.392-.654-.785-1.178-.785-.654 0-1.047.26-1.178.78-.13.26-.13.52-.13.78h2.75c-.132-.27-.132-.53-.263-.79zm-2.618 2.095c0 .91.524 1.57 1.57 1.57.787 0 1.18-.26 1.704-.66l1.047 1.05c-.786.78-1.44 1.18-2.75 1.18-1.702 0-3.404-.79-3.404-3.8 0-2.36 1.3-3.67 3.14-3.67 1.96 0 3.14 1.44 3.14 3.53v.78h-4.45z"/></defs><clipPath id="SVGID_148_"><use xlink:href="#SVGID_147_" overflow="visible"/></clipPath><path class="st75" d="M120.54 407h19.38v20.56h-19.38z"/><defs><path id="SVGID_149_" d="M69.08 437.118c-1.57 0-2.62-.262-3.666-1.31l1.31-1.31c.654.656 1.44.787 2.356.787 1.18 0 1.702-.393 1.702-1.178 0-.393-.13-.655-.262-.786-.13-.13-.392-.26-.916-.39l-1.18-.13c-.915-.13-1.44-.39-1.963-.78-.52-.52-.65-1.18-.65-1.96 0-1.83 1.31-3.01 3.54-3.01 1.31 0 2.36.39 3.28 1.18l-1.18 1.18c-.65-.65-1.44-.65-2.09-.65-1.05 0-1.57.53-1.57 1.31 0 .26.13.53.26.66.26.13.53.4.92.4l1.18.13c.92.14 1.44.4 1.97.79.52.53.79 1.18.79 2.1-.13 1.97-1.7 3.01-3.79 3.01"/></defs><clipPath id="SVGID_150_"><use xlink:href="#SVGID_149_" overflow="visible"/></clipPath><path class="st76" d="M58.866 420.488h20.558v23.177H58.866z"/><defs><path id="SVGID_151_" d="M77.33 437.118c-1.44 0-3.274-.785-3.274-3.797 0-3.01 1.833-3.66 3.274-3.66 1.047 0 1.702.26 2.357.92l-1.18 1.18c-.392-.39-.654-.52-1.177-.52-.393 0-.786.13-1.048.53-.262.39-.393.79-.393 1.57s.13 1.31.39 1.57.65.53 1.05.53c.52 0 .78-.13 1.17-.52l1.18 1.18c-.66.79-1.44 1.05-2.36 1.05"/></defs><clipPath id="SVGID_152_"><use xlink:href="#SVGID_151_" overflow="visible"/></clipPath><path class="st77" d="M67.51 423.107h18.724v20.558H67.51z"/><defs><path id="SVGID_153_" d="M85.317 437.118v-4.452c0-.916-.654-1.31-1.178-1.31s-1.18.394-1.18 1.31v4.452h-1.84v-9.95h1.83v3.272c.52-.524 1.04-.785 1.7-.785 1.57 0 2.48 1.178 2.48 2.618v4.714H85.3v.13z"/></defs><clipPath id="SVGID_154_"><use xlink:href="#SVGID_153_" overflow="visible"/></clipPath><path class="st78" d="M74.58 420.62h19.118v23.045H74.58z"/><defs><path id="SVGID_155_" d="M92.65 431.62c-.262-.263-.524-.263-.916-.263s-.655.13-.786.262c-.393.39-.393 1.04-.393 1.7 0 .78 0 1.44.393 1.83.262.26.524.26.786.26.392 0 .654-.13.916-.26.393-.4.393-1.05.393-1.84.13-.66 0-1.31-.393-1.7m1.44 4.58c-.392.52-1.178.91-2.226.91-1.047 0-1.833-.39-2.226-.92-.654-.66-.785-1.57-.785-2.88s.13-2.1.785-2.88c.393-.53 1.18-.92 2.226-.92 1.048 0 1.834.39 2.227.91.66.65.79 1.57.79 2.88 0 1.44-.13 2.22-.78 2.88"/></defs><clipPath id="SVGID_156_"><use xlink:href="#SVGID_155_" overflow="visible"/></clipPath><path class="st79" d="M82.306 422.976h19.118v20.69H82.306z"/><defs><path id="SVGID_157_" d="M100.245 431.62c-.262-.263-.524-.263-.917-.263s-.654.13-.785.262c-.393.39-.393 1.04-.393 1.7 0 .78 0 1.44.393 1.83.262.26.523.26.785.26.393 0 .655-.13.917-.26.393-.4.393-1.05.393-1.84.13-.66 0-1.31-.393-1.7m1.44 4.58c-.392.52-1.178.91-2.226.91s-1.84-.39-2.23-.92c-.66-.66-.79-1.57-.79-2.88s.13-2.1.78-2.88c.39-.53 1.18-.92 2.22-.92s1.83.39 2.22.91c.65.65.78 1.57.78 2.88 0 1.44-.13 2.22-.79 2.88"/></defs><clipPath id="SVGID_158_"><use xlink:href="#SVGID_157_" overflow="visible"/></clipPath><path class="st80" d="M89.9 422.976h19.118v20.69H89.9z"/><defs><path id="SVGID_159_" d="M106.268 437.118c-1.44 0-2.095-1.047-2.095-2.095v-7.856h1.834v7.725c0 .393.13.655.654.655h.66v1.57h-1.05z"/></defs><clipPath id="SVGID_160_"><use xlink:href="#SVGID_159_" overflow="visible"/></clipPath><path class="st81" d="M97.626 420.62h16.237v23.045H97.626z"/><defs><path id="SVGID_161_" d="M115.696 431.62c-.26-.263-.523-.263-.785-.263-.39 0-.65.13-.78.262-.39.39-.39 1.04-.39 1.7 0 .78 0 1.44.4 1.83.26.26.53.26.79.26.4 0 .66-.13.79-.26.4-.4.4-1.05.4-1.84 0-.66 0-1.31-.39-1.7m1.44 4.58c-.39.52-1.18.91-2.22.91s-1.83-.39-2.22-.92c-.65-.66-.79-1.57-.79-2.88s.13-2.1.79-2.88c.39-.53 1.18-.92 2.23-.92s1.84.39 2.23.91c.65.65.78 1.57.78 2.88 0 1.44-.13 2.22-.79 2.88"/></defs><clipPath id="SVGID_162_"><use xlink:href="#SVGID_161_" overflow="visible"/></clipPath><path class="st82" d="M105.352 422.976h19.118v20.69h-19.118z"/><defs><path id="SVGID_163_" d="M121.72 431.357v5.63h-1.833v-5.63h-.786v-1.44h.79v-.786c0-1.04.66-2.09 2.1-2.09h1.05v1.57h-.65c-.39 0-.65.27-.65.66v.79h1.31v1.44h-1.31v-.13z"/></defs><clipPath id="SVGID_164_"><use xlink:href="#SVGID_163_" overflow="visible"/></clipPath><path class="st83" d="M112.554 420.488h17.023v23.046h-17.023z"/><defs><path id="SVGID_165_" d="M132.72 429.393c-.394-.393-.786-.655-1.44-.655h-1.44v6.547h1.44c.654 0 1.177-.262 1.44-.655.392-.392.392-1.178.392-2.618s-.13-2.096-.393-2.62m1.31 6.68c-.66.654-1.58.915-2.62.915h-3.54v-9.95h3.53c1.04 0 1.96.26 2.62.915 1.17 1.18 1.04 2.488 1.04 3.93 0 1.7.13 3.14-1.05 4.19"/></defs><clipPath id="SVGID_166_"><use xlink:href="#SVGID_165_" overflow="visible"/></clipPath><path class="st84" d="M121.327 420.488h20.3v23.046h-20.3z"/><defs><path id="SVGID_167_" d="M140.97 432.012c-.263-.393-.656-.786-1.18-.786-.654 0-1.047.262-1.178.786-.13.26-.13.523-.13.785h2.75c-.132-.393-.263-.524-.263-.785zm-2.62 1.964c0 .916.524 1.57 1.57 1.57.787 0 1.18-.26 1.704-.654l1.047 1.048c-.78.786-1.44 1.178-2.75 1.178-1.7 0-3.4-.785-3.4-3.797 0-2.35 1.31-3.66 3.14-3.66 1.97 0 3.15 1.44 3.15 3.54v.79h-4.45z"/></defs><clipPath id="SVGID_168_"><use xlink:href="#SVGID_167_" overflow="visible"/></clipPath><path class="st85" d="M129.97 423.107h19.38v20.558h-19.38z"/><defs><path id="SVGID_169_" d="M146.992 437.118c-1.178 0-2.226-.13-3.142-1.047l1.178-1.17c.655.66 1.44.66 1.964.66.655 0 1.31-.26 1.31-.78 0-.39-.262-.65-.786-.65l-1.178-.13c-1.31-.13-2.096-.65-2.096-2.09 0-1.57 1.31-2.35 2.88-2.35 1.18 0 2.096.13 2.75.92l-1.177 1.18c-.393-.39-1.048-.52-1.703-.52-.785 0-1.047.39-1.047.65s.13.52.785.66l1.18.13c1.44.14 2.225.92 2.225 2.1-.13 1.71-1.44 2.49-3.143 2.49"/></defs><clipPath id="SVGID_170_"><use xlink:href="#SVGID_169_" overflow="visible"/></clipPath><path class="st86" d="M137.302 422.976h19.38v20.69h-19.38z"/><defs><path id="SVGID_171_" d="M151.575 429.785h1.834v7.333h-1.84v-7.333zm0-2.75h1.834v1.44h-1.84v-1.44z"/></defs><clipPath id="SVGID_172_"><use xlink:href="#SVGID_171_" overflow="visible"/></clipPath><path class="st87" d="M145.028 420.488h14.928v23.177h-14.928z"/><defs><path id="SVGID_173_" d="M158.123 431.357c-1.048 0-1.18.916-1.18 1.833 0 .917.132 1.964 1.18 1.964 1.047 0 1.178-.916 1.178-1.964 0-.917-.13-1.833-1.17-1.833m-.26 8.51c-1.18 0-1.83-.26-2.62-.915l1.18-1.18c.4.394.79.525 1.44.525 1.05 0 1.44-.786 1.44-1.57v-.787c-.52.524-1.04.786-1.7.786s-1.31-.262-1.7-.655c-.65-.65-.78-1.57-.78-2.88s0-2.22.79-2.88c.4-.39 1.05-.65 1.71-.65.79 0 1.31.26 1.83.79v-.65h1.7v7.07c0 1.71-1.31 3.02-3.27 3.02"/></defs><clipPath id="SVGID_174_"><use xlink:href="#SVGID_173_" overflow="visible"/></clipPath><path class="st88" d="M148.564 423.107h19.118v23.308h-19.118z"/><defs><path id="SVGID_175_" d="M167.42 437.118v-4.452c0-1.047-.655-1.31-1.18-1.31-.523 0-1.177.394-1.177 1.31v4.452h-1.833v-7.333h1.833v.655c.524-.524 1.178-.785 1.833-.785.786 0 1.31.26 1.702.654.524.52.786 1.31.786 2.09v4.71h-1.964z"/></defs><clipPath id="SVGID_176_"><use xlink:href="#SVGID_175_" overflow="visible"/></clipPath><path class="st89" d="M156.682 423.107h19.25v20.558h-19.25z"/><defs><path id="SVGID_177_" d="M36.082 353.314v90.352"/></defs><clipPath id="SVGID_178_"><use xlink:href="#SVGID_177_" overflow="visible"/></clipPath><path class="st90" d="M29.535 346.766H42.63v103.447H29.535z"/><path class="st91" d="M36.082 353.314v90.352"/></g></svg>