<svg id="Layer_1" xmlns="http://www.w3.org/2000/svg" xmlns:xlink="http://www.w3.org/1999/xlink" viewBox="0 0 500 500"><style>.st0{clip-path:url(#SVGID_2_);} .st1{clip-path:url(#SVGID_2_);fill:#F9AB7C;} .st2{clip-path:url(#SVGID_2_);fill:#F391BC;} .st3{clip-path:url(#SVGID_2_);fill:#F38EB8;} .st4{clip-path:url(#SVGID_2_);fill:#F38CB6;} .st5{clip-path:url(#SVGID_2_);fill:#F38AB3;} .st6{clip-path:url(#SVGID_2_);fill:#F388B1;} .st7{clip-path:url(#SVGID_2_);fill:#F386AE;} .st8{clip-path:url(#SVGID_2_);fill:#F283AC;} .st9{clip-path:url(#SVGID_2_);fill:#F281AA;} .st10{clip-path:url(#SVGID_2_);fill:#F27FA8;} .st11{clip-path:url(#SVGID_2_);fill:#F27DA5;} .st12{clip-path:url(#SVGID_2_);fill:#F27BA3;} .st13{clip-path:url(#SVGID_2_);fill:#F279A1;} .st14{clip-path:url(#SVGID_2_);fill:#F2769F;} .st15{clip-path:url(#SVGID_2_);fill:#F1749D;} .st16{clip-path:url(#SVGID_2_);fill:#F1729B;} .st17{clip-path:url(#SVGID_2_);fill:#F16F99;} .st18{clip-path:url(#SVGID_2_);fill:#F16D97;} .st19{clip-path:url(#SVGID_2_);fill:#F16A95;} .st20{clip-path:url(#SVGID_2_);fill:#F16892;} .st21{clip-path:url(#SVGID_2_);fill:#F06691;} .st22{clip-path:url(#SVGID_2_);fill:#F0638E;} .st23{clip-path:url(#SVGID_2_);fill:#F0608C;} .st24{clip-path:url(#SVGID_2_);fill:#F05E8B;} .st25{clip-path:url(#SVGID_2_);fill:#F05B89;} .st26{clip-path:url(#SVGID_2_);fill:#F05887;} .st27{clip-path:url(#SVGID_2_);fill:#F05685;} .st28{clip-path:url(#SVGID_2_);fill:#EF5383;} .st29{clip-path:url(#SVGID_2_);fill:#EF5081;} .st30{clip-path:url(#SVGID_2_);fill:#EF4D7F;} .st31{clip-path:url(#SVGID_2_);fill:#EF4A7D;} .st32{clip-path:url(#SVGID_2_);fill:#EF477C;} .st33{clip-path:url(#SVGID_2_);fill:#EF447A;} .st34{clip-path:url(#SVGID_2_);fill:#EF4078;} .st35{clip-path:url(#SVGID_2_);fill:#EE3D76;} .st36{clip-path:url(#SVGID_2_);fill:#EE3A74;} .st37{clip-path:url(#SVGID_2_);fill:#EE3673;} .st38{clip-path:url(#SVGID_2_);fill:#EE3171;} .st39{clip-path:url(#SVGID_2_);fill:#EE2D6F;} .st40{clip-path:url(#SVGID_2_);fill:#EE286E;} .st41{clip-path:url(#SVGID_2_);fill:#EE236C;} .st42{clip-path:url(#SVGID_2_);fill:#ED1D6A;} .st43{clip-path:url(#SVGID_2_);fill:#924C8D;} .st44{clip-path:url(#SVGID_2_);fill:#8F4E8F;} .st45{clip-path:url(#SVGID_2_);fill:#8D4F90;} .st46{clip-path:url(#SVGID_2_);fill:#8A5191;} .st47{clip-path:url(#SVGID_2_);fill:#885292;} .st48{clip-path:url(#SVGID_2_);fill:#855393;} .st49{clip-path:url(#SVGID_2_);fill:#835594;} .st50{clip-path:url(#SVGID_2_);fill:#805695;} .st51{clip-path:url(#SVGID_2_);fill:#7D5796;} .st52{clip-path:url(#SVGID_2_);fill:#7B5897;} .st53{clip-path:url(#SVGID_2_);fill:#785999;} .st54{clip-path:url(#SVGID_2_);fill:#755B9A;} .st55{clip-path:url(#SVGID_2_);fill:#725C9B;} .st56{clip-path:url(#SVGID_2_);fill:#6F5D9C;} .st57{clip-path:url(#SVGID_2_);fill:#6C5E9D;} .st58{clip-path:url(#SVGID_2_);fill:#695F9F;} .st59{clip-path:url(#SVGID_2_);fill:#6660A0;} .st60{clip-path:url(#SVGID_2_);fill:#6361A1;} .st61{clip-path:url(#SVGID_2_);fill:#5F62A2;} .st62{clip-path:url(#SVGID_2_);fill:#5C63A3;} .st63{clip-path:url(#SVGID_2_);fill:#5864A4;} .st64{clip-path:url(#SVGID_2_);fill:#5464A5;} .st65{clip-path:url(#SVGID_2_);fill:#5065A6;} .st66{clip-path:url(#SVGID_2_);fill:#4C66A7;} .st67{clip-path:url(#SVGID_2_);fill:#4767A8;} .st68{clip-path:url(#SVGID_2_);fill:#4368A9;} .st69{clip-path:url(#SVGID_2_);fill:#3E68AB;} .st70{clip-path:url(#SVGID_2_);fill:#3869AC;} .st71{clip-path:url(#SVGID_2_);fill:#326AAD;} .st72{clip-path:url(#SVGID_2_);fill:#2B6BAE;} .st73{clip-path:url(#SVGID_2_);fill:#226BAF;} .st74{clip-path:url(#SVGID_2_);fill:#186CB0;} .st75{clip-path:url(#SVGID_2_);fill:#046DB2;} .st76{clip-path:url(#SVGID_2_);fill:#006EB3;} .st77{clip-path:url(#SVGID_2_);fill:#006EB4;} .st78{clip-path:url(#SVGID_2_);fill:#006FB5;} .st79{clip-path:url(#SVGID_2_);fill:#0070B7;} .st80{clip-path:url(#SVGID_2_);fill:#0071B8;} .st81{clip-path:url(#SVGID_2_);fill:#0071B9;} .st82{clip-path:url(#SVGID_2_);fill:#0072BB;} .st83{clip-path:url(#SVGID_2_);fill:#0073BD;} .st84{clip-path:url(#SVGID_4_);} .st85{clip-path:url(#SVGID_2_);fill:#B41E8E;} .st86{clip-path:url(#SVGID_2_);fill:#AF258F;} .st87{clip-path:url(#SVGID_2_);fill:#A92B91;} .st88{clip-path:url(#SVGID_2_);fill:#A43092;} .st89{clip-path:url(#SVGID_2_);fill:#9E3493;} .st90{clip-path:url(#SVGID_2_);fill:#993995;} .st91{clip-path:url(#SVGID_2_);fill:#933C96;} .st92{clip-path:url(#SVGID_2_);fill:#8E3F98;} .st93{clip-path:url(#SVGID_2_);fill:#884299;} .st94{clip-path:url(#SVGID_2_);fill:#83459B;} .st95{clip-path:url(#SVGID_2_);fill:#7D479C;} .st96{clip-path:url(#SVGID_2_);fill:#774A9D;} .st97{clip-path:url(#SVGID_2_);fill:#714C9F;} .st98{clip-path:url(#SVGID_2_);fill:#6A4EA0;} .st99{clip-path:url(#SVGID_2_);fill:#6350A1;} .st100{clip-path:url(#SVGID_2_);fill:#5B52A3;} .st101{clip-path:url(#SVGID_2_);fill:#5354A4;} .st102{clip-path:url(#SVGID_2_);fill:#4B55A5;} .st103{clip-path:url(#SVGID_2_);fill:#4157A6;} .st104{clip-path:url(#SVGID_2_);fill:#3659A8;} .st105{clip-path:url(#SVGID_2_);fill:#285AA9;} .st106{clip-path:url(#SVGID_2_);fill:#125CAA;} .st107{clip-path:url(#SVGID_2_);fill:#005DAC;} .st108{clip-path:url(#SVGID_2_);fill:#005EAD;} .st109{clip-path:url(#SVGID_6_);} .st110{clip-path:url(#SVGID_2_);fill:#FFF456;} .st111{clip-path:url(#SVGID_2_);fill:#FFEB58;} .st112{clip-path:url(#SVGID_2_);fill:#FFE459;} .st113{clip-path:url(#SVGID_2_);fill:#FEDE5B;} .st114{clip-path:url(#SVGID_2_);fill:#FBD85C;} .st115{clip-path:url(#SVGID_2_);fill:#F9D25D;} .st116{clip-path:url(#SVGID_2_);fill:#F7CC5E;} .st117{clip-path:url(#SVGID_2_);fill:#F5C65E;} .st118{clip-path:url(#SVGID_2_);fill:#F3C05F;} .st119{clip-path:url(#SVGID_2_);fill:#F1BA5F;} .st120{clip-path:url(#SVGID_2_);fill:#EFB45F;} .st121{clip-path:url(#SVGID_2_);fill:#EDAE5F;} .st122{clip-path:url(#SVGID_2_);fill:#EBA85F;} .st123{clip-path:url(#SVGID_2_);fill:#EAA25F;} .st124{clip-path:url(#SVGID_2_);fill:#E89C5F;} .st125{clip-path:url(#SVGID_2_);fill:#E7975E;} .st126{clip-path:url(#SVGID_2_);fill:#E5915E;} .st127{clip-path:url(#SVGID_2_);fill:#E38C5E;} .st128{clip-path:url(#SVGID_2_);fill:#E2865D;} .st129{clip-path:url(#SVGID_2_);fill:#E0815D;} .st130{clip-path:url(#SVGID_2_);fill:#DF7B5C;} .st131{clip-path:url(#SVGID_2_);fill:#DD755C;} .st132{clip-path:url(#SVGID_2_);fill:#DC705B;} .st133{clip-path:url(#SVGID_2_);fill:#DB6A5A;} .st134{clip-path:url(#SVGID_2_);fill:#D9635A;} .st135{clip-path:url(#SVGID_2_);fill:#D85D59;} .st136{clip-path:url(#SVGID_2_);fill:#D75658;} .st137{clip-path:url(#SVGID_2_);fill:#D54F57;} .st138{clip-path:url(#SVGID_2_);fill:#D44757;} .st139{clip-path:url(#SVGID_2_);fill:#D33F56;} .st140{clip-path:url(#SVGID_2_);fill:#D23655;} .st141{clip-path:url(#SVGID_2_);fill:#D02C54;} .st142{clip-path:url(#SVGID_2_);fill:#CF2153;} .st143{clip-path:url(#SVGID_2_);fill:#ED1260;} .st144{clip-path:url(#SVGID_2_);fill:#EE2161;} .st145{clip-path:url(#SVGID_2_);fill:#EE2B62;} .st146{clip-path:url(#SVGID_2_);fill:#EE3564;} .st147{clip-path:url(#SVGID_2_);fill:#EF3D65;} .st148{clip-path:url(#SVGID_2_);fill:#EF4366;} .st149{clip-path:url(#SVGID_2_);fill:#EF4A67;} .st150{clip-path:url(#SVGID_2_);fill:#F05068;} .st151{clip-path:url(#SVGID_2_);fill:#F05669;} .st152{clip-path:url(#SVGID_2_);fill:#F15C6A;} .st153{clip-path:url(#SVGID_2_);fill:#F1616B;} .st154{clip-path:url(#SVGID_2_);fill:#F1666C;} .st155{clip-path:url(#SVGID_2_);fill:#F26B6D;} .st156{clip-path:url(#SVGID_2_);fill:#F2706F;} .st157{clip-path:url(#SVGID_2_);fill:#F3746F;} .st158{clip-path:url(#SVGID_2_);fill:#F37971;} .st159{clip-path:url(#SVGID_2_);fill:#F47D72;} .st160{clip-path:url(#SVGID_2_);fill:#F48172;} .st161{clip-path:url(#SVGID_2_);fill:#F58573;} .st162{clip-path:url(#SVGID_2_);fill:#F58A74;} .st163{clip-path:url(#SVGID_2_);fill:#F68E75;} .st164{clip-path:url(#SVGID_2_);fill:#F69276;} .st165{clip-path:url(#SVGID_2_);fill:#F69677;} .st166{clip-path:url(#SVGID_2_);fill:#F79A78;} .st167{clip-path:url(#SVGID_2_);fill:#F89E79;} .st168{clip-path:url(#SVGID_2_);fill:#F8A27A;} .st169{clip-path:url(#SVGID_2_);fill:#F9A67B;} .st170{clip-path:url(#SVGID_2_);fill:#FFF21F;} .st171{clip-path:url(#SVGID_2_);fill:#ED1C2C;} .st172{clip-path:url(#SVGID_2_);fill:#EE262D;} .st173{clip-path:url(#SVGID_2_);fill:#EE2F2D;} .st174{clip-path:url(#SVGID_2_);fill:#EF372D;} .st175{clip-path:url(#SVGID_2_);fill:#EF3E2D;} .st176{clip-path:url(#SVGID_2_);fill:#EF442D;} .st177{clip-path:url(#SVGID_2_);fill:#F04B2D;} .st178{clip-path:url(#SVGID_2_);fill:#F0502D;} .st179{clip-path:url(#SVGID_2_);fill:#F1562D;} .st180{clip-path:url(#SVGID_2_);fill:#F15B2E;} .st181{clip-path:url(#SVGID_2_);fill:#F1602E;} .st182{clip-path:url(#SVGID_2_);fill:#F2652E;} .st183{clip-path:url(#SVGID_2_);fill:#F26A2E;} .st184{clip-path:url(#SVGID_2_);fill:#F36F2E;} .st185{clip-path:url(#SVGID_2_);fill:#F3732E;} .st186{clip-path:url(#SVGID_2_);fill:#F4772E;} .st187{clip-path:url(#SVGID_2_);fill:#F47D2F;} .st188{clip-path:url(#SVGID_2_);fill:#FFF33D;} .st189{clip-path:url(#SVGID_2_);fill:#F4783A;} .st190{clip-path:url(#SVGID_2_);fill:#FFF453;} .st191{clip-path:url(#SVGID_2_);fill:#F37345;} .st192{clip-path:url(#SVGID_2_);fill:#FFF467;} .st193{clip-path:url(#SVGID_2_);fill:#F36F4F;} .st194{clip-path:url(#SVGID_2_);fill:#F26957;} .st195{clip-path:url(#SVGID_2_);fill:#F1635E;} .st196{clip-path:url(#SVGID_2_);fill:#F15D64;} .st197{clip-path:url(#SVGID_2_);fill:#F0576A;} .st198{clip-path:url(#SVGID_2_);fill:#F05070;} .st199{clip-path:url(#SVGID_2_);fill:#EF4875;} .st200{clip-path:url(#SVGID_2_);fill:#EE407A;} .st201{clip-path:url(#SVGID_2_);fill:#EE367E;} .st202{clip-path:url(#SVGID_2_);fill:#ED2B82;} .st203{clip-path:url(#SVGID_2_);fill:#ED1A86;} .st204{clip-path:url(#SVGID_2_);fill:#EC008C;} .st205{clip-path:url(#SVGID_2_);fill:#EC0084;} .st206{clip-path:url(#SVGID_2_);fill:#EC0083;} .st207{clip-path:url(#SVGID_2_);fill:#EC0082;} .st208{clip-path:url(#SVGID_2_);fill:#ED0081;} .st209{clip-path:url(#SVGID_2_);fill:#ED0180;} .st210{clip-path:url(#SVGID_2_);fill:#ED017F;} .st211{clip-path:url(#SVGID_2_);fill:#ED027E;} .st212{clip-path:url(#SVGID_2_);fill:#ED037D;} .st213{clip-path:url(#SVGID_2_);fill:#ED037C;} .st214{clip-path:url(#SVGID_2_);fill:#ED047B;} .st215{clip-path:url(#SVGID_2_);fill:#ED047A;} .st216{clip-path:url(#SVGID_2_);fill:#ED0579;} .st217{clip-path:url(#SVGID_2_);fill:#ED0678;} .st218{clip-path:url(#SVGID_2_);fill:#ED0677;} .st219{clip-path:url(#SVGID_2_);fill:#ED0776;} .st220{clip-path:url(#SVGID_2_);fill:#ED0775;} .st221{clip-path:url(#SVGID_2_);fill:#ED0875;} .st222{clip-path:url(#SVGID_2_);fill:#ED0874;} .st223{clip-path:url(#SVGID_2_);fill:#ED0973;} .st224{clip-path:url(#SVGID_8_);} .st225{clip-path:url(#SVGID_2_);fill:#005DA7;} .st226{clip-path:url(#SVGID_2_);fill:#275CA2;} .st227{clip-path:url(#SVGID_2_);fill:#3B5B9D;} .st228{clip-path:url(#SVGID_2_);fill:#4A5A98;} .st229{clip-path:url(#SVGID_2_);fill:#565894;} .st230{clip-path:url(#SVGID_2_);fill:#61578F;} .st231{clip-path:url(#SVGID_2_);fill:#6C568B;} .st232{clip-path:url(#SVGID_2_);fill:#755486;} .st233{clip-path:url(#SVGID_2_);fill:#7E5282;} .st234{clip-path:url(#SVGID_2_);fill:#87517D;} .st235{clip-path:url(#SVGID_2_);fill:#8F4E79;} .st236{clip-path:url(#SVGID_2_);fill:#974C74;} .st237{clip-path:url(#SVGID_2_);fill:#9F4A70;} .st238{clip-path:url(#SVGID_2_);fill:#A7476B;} .st239{clip-path:url(#SVGID_2_);fill:#AE4567;} .st240{clip-path:url(#SVGID_2_);fill:#B64162;} .st241{clip-path:url(#SVGID_2_);fill:#BE3E5E;} .st242{clip-path:url(#SVGID_2_);fill:#C63A5A;} .st243{clip-path:url(#SVGID_2_);fill:#CD3555;} .st244{clip-path:url(#SVGID_2_);fill:#D53051;} .st245{clip-path:url(#SVGID_2_);fill:#DD2A4C;} .st246{clip-path:url(#SVGID_2_);fill:#E42247;} .st247{clip-path:url(#SVGID_2_);fill:#ED1942;} .st248{clip-path:url(#SVGID_2_);fill:#0061AF;} .st249{clip-path:url(#SVGID_2_);fill:#0064B1;} .st250{clip-path:url(#SVGID_2_);fill:#0067B4;} .st251{clip-path:url(#SVGID_2_);fill:#006BB6;} .st252{clip-path:url(#SVGID_2_);fill:#006EB9;} .st253{clip-path:url(#SVGID_2_);fill:#0071BB;} .st254{clip-path:url(#SVGID_2_);fill:#0075BE;} .st255{clip-path:url(#SVGID_2_);fill:#0078C1;} .st256{clip-path:url(#SVGID_2_);fill:#007CC4;} .st257{clip-path:url(#SVGID_2_);fill:#007FC7;} .st258{clip-path:url(#SVGID_2_);fill:#0083CA;} .st259{clip-path:url(#SVGID_2_);fill:#0086CD;} .st260{clip-path:url(#SVGID_2_);fill:#008AD0;} .st261{clip-path:url(#SVGID_2_);fill:#008DD3;} .st262{clip-path:url(#SVGID_2_);fill:#0091D6;} .st263{clip-path:url(#SVGID_2_);fill:#0094D9;} .st264{clip-path:url(#SVGID_2_);fill:#0098DC;} .st265{clip-path:url(#SVGID_2_);fill:#009BDF;} .st266{clip-path:url(#SVGID_2_);fill:#009EE2;} .st267{clip-path:url(#SVGID_2_);fill:#00A2E5;} .st268{clip-path:url(#SVGID_2_);fill:#00A5E8;} .st269{clip-path:url(#SVGID_2_);fill:#00A9EB;} .st270{clip-path:url(#SVGID_2_);fill:#00AEEF;} .st271{clip-path:url(#SVGID_2_);fill:#00A770;} .st272{clip-path:url(#SVGID_2_);fill:#00B06F;} .st273{clip-path:url(#SVGID_2_);fill:#00A775;} .st274{clip-path:url(#SVGID_2_);fill:#00B074;} .st275{clip-path:url(#SVGID_2_);fill:#00A77A;} .st276{clip-path:url(#SVGID_2_);fill:#00B079;} .st277{clip-path:url(#SVGID_2_);fill:#00A77F;} .st278{clip-path:url(#SVGID_2_);fill:#00B07E;} .st279{clip-path:url(#SVGID_2_);fill:#00A884;} .st280{clip-path:url(#SVGID_2_);fill:#00B083;} .st281{clip-path:url(#SVGID_2_);fill:#00A888;} .st282{clip-path:url(#SVGID_2_);fill:#00AF88;} .st283{clip-path:url(#SVGID_2_);fill:#00A88D;} .st284{clip-path:url(#SVGID_2_);fill:#00AF8C;} .st285{clip-path:url(#SVGID_2_);fill:#00A891;} .st286{clip-path:url(#SVGID_2_);fill:#00AF91;} .st287{clip-path:url(#SVGID_2_);fill:#00A995;} .st288{clip-path:url(#SVGID_2_);fill:#00AF95;} .st289{clip-path:url(#SVGID_2_);fill:#00A99A;} .st290{clip-path:url(#SVGID_2_);fill:#00AF9A;} .st291{clip-path:url(#SVGID_2_);fill:#00A99E;} .st292{clip-path:url(#SVGID_2_);fill:#00AF9E;} .st293{clip-path:url(#SVGID_2_);fill:#00A9A3;} .st294{clip-path:url(#SVGID_2_);fill:#00AFA3;} .st295{clip-path:url(#SVGID_2_);fill:#00AAA7;} .st296{clip-path:url(#SVGID_2_);fill:#00AFA7;} .st297{clip-path:url(#SVGID_2_);fill:#00AAAC;} .st298{clip-path:url(#SVGID_2_);fill:#00AFAC;} .st299{clip-path:url(#SVGID_2_);fill:#00AAB0;} .st300{clip-path:url(#SVGID_2_);fill:#00AFB1;} .st301{clip-path:url(#SVGID_2_);fill:#00ABB5;} .st302{clip-path:url(#SVGID_2_);fill:#00AFB5;} .st303{clip-path:url(#SVGID_2_);fill:#00ABBA;} .st304{clip-path:url(#SVGID_2_);fill:#00AEBA;} .st305{clip-path:url(#SVGID_2_);fill:#00ABBE;} .st306{clip-path:url(#SVGID_2_);fill:#00AEBF;} .st307{clip-path:url(#SVGID_2_);fill:#00ABC3;} .st308{clip-path:url(#SVGID_2_);fill:#00AEC3;} .st309{clip-path:url(#SVGID_2_);fill:#00ACC8;} .st310{clip-path:url(#SVGID_2_);fill:#00AEC8;} .st311{clip-path:url(#SVGID_2_);fill:#00ACCC;} .st312{clip-path:url(#SVGID_2_);fill:#00AECC;} .st313{clip-path:url(#SVGID_2_);fill:#00ACD1;} .st314{clip-path:url(#SVGID_2_);fill:#00AED1;} .st315{clip-path:url(#SVGID_2_);fill:#00ACD5;} .st316{clip-path:url(#SVGID_2_);fill:#00AED6;} .st317{clip-path:url(#SVGID_2_);fill:#00AEDA;} .st318{clip-path:url(#SVGID_2_);fill:#00AEDF;} .st319{clip-path:url(#SVGID_2_);fill:#00AEE3;} .st320{clip-path:url(#SVGID_2_);fill:#00AEE8;} .st321{clip-path:url(#SVGID_10_);} .st322{clip-path:url(#SVGID_12_);fill:#00A0E3;} .st323{clip-path:url(#SVGID_12_);fill:#009FE2;} .st324{clip-path:url(#SVGID_12_);fill:#009EE2;} .st325{clip-path:url(#SVGID_12_);fill:#009EE1;} .st326{clip-path:url(#SVGID_12_);fill:#009DE1;} .st327{clip-path:url(#SVGID_12_);fill:#009CE0;} .st328{clip-path:url(#SVGID_12_);fill:#009BDF;} .st329{clip-path:url(#SVGID_12_);fill:#009ADE;} .st330{clip-path:url(#SVGID_12_);fill:#0099DD;} .st331{clip-path:url(#SVGID_12_);fill:#0098DC;} .st332{clip-path:url(#SVGID_12_);fill:#0097DC;} .st333{clip-path:url(#SVGID_12_);fill:#0096DB;} .st334{clip-path:url(#SVGID_12_);fill:#0096DA;} .st335{clip-path:url(#SVGID_12_);fill:#0095DA;} .st336{clip-path:url(#SVGID_14_);fill:#00AEEF;} .st337{clip-path:url(#SVGID_14_);fill:#00ACEE;} .st338{clip-path:url(#SVGID_14_);fill:#00ABED;} .st339{clip-path:url(#SVGID_14_);fill:#00AAEC;} .st340{clip-path:url(#SVGID_14_);fill:#00A9EB;} .st341{clip-path:url(#SVGID_14_);fill:#00A8EA;} .st342{clip-path:url(#SVGID_14_);fill:#00A7E9;} .st343{clip-path:url(#SVGID_14_);fill:#00A6E9;} .st344{clip-path:url(#SVGID_14_);fill:#00A6E8;} .st345{clip-path:url(#SVGID_14_);fill:#00A5E7;} .st346{clip-path:url(#SVGID_14_);fill:#00A4E7;} .st347{clip-path:url(#SVGID_14_);fill:#00A3E6;} .st348{clip-path:url(#SVGID_14_);fill:#00A2E5;} .st349{clip-path:url(#SVGID_14_);fill:#00A1E4;} .st350{clip-path:url(#SVGID_14_);fill:#00A0E3;} .st351{clip-path:url(#SVGID_14_);fill:#009FE2;} .st352{clip-path:url(#SVGID_14_);fill:#009EE2;} .st353{clip-path:url(#SVGID_14_);fill:#009EE1;} .st354{clip-path:url(#SVGID_14_);fill:#009DE1;} .st355{clip-path:url(#SVGID_14_);fill:#009CE0;} .st356{clip-path:url(#SVGID_14_);fill:#009BDF;} .st357{clip-path:url(#SVGID_14_);fill:#009ADE;} .st358{clip-path:url(#SVGID_14_);fill:#0099DD;} .st359{clip-path:url(#SVGID_14_);fill:#0098DC;} .st360{clip-path:url(#SVGID_14_);fill:#0097DC;} .st361{clip-path:url(#SVGID_14_);fill:#0096DB;} .st362{clip-path:url(#SVGID_14_);fill:#0096DA;} .st363{clip-path:url(#SVGID_14_);fill:#0095DA;} .st364{clip-path:url(#SVGID_2_);fill:#12C3F4;} .st365{clip-path:url(#SVGID_2_);fill:#02C1F2;} .st366{clip-path:url(#SVGID_2_);fill:#00BFF1;} .st367{clip-path:url(#SVGID_2_);fill:#00BDF0;} .st368{clip-path:url(#SVGID_2_);fill:#00BBEF;} .st369{clip-path:url(#SVGID_2_);fill:#00B9EE;} .st370{clip-path:url(#SVGID_2_);fill:#00B8ED;} .st371{clip-path:url(#SVGID_2_);fill:#00B6EC;} .st372{clip-path:url(#SVGID_2_);fill:#00B5EC;} .st373{clip-path:url(#SVGID_2_);fill:#00B3EB;} .st374{clip-path:url(#SVGID_2_);fill:#00B2EA;} .st375{clip-path:url(#SVGID_2_);fill:#00B0E9;} .st376{clip-path:url(#SVGID_2_);fill:#00AFE8;} .st377{clip-path:url(#SVGID_2_);fill:#00ADE8;} .st378{clip-path:url(#SVGID_2_);fill:#00ACE7;} .st379{clip-path:url(#SVGID_2_);fill:#00AAE6;} .st380{clip-path:url(#SVGID_2_);fill:#00A9E5;} .st381{clip-path:url(#SVGID_2_);fill:#00A8E5;} .st382{clip-path:url(#SVGID_2_);fill:#00A6E4;} .st383{clip-path:url(#SVGID_2_);fill:#00A5E3;} .st384{clip-path:url(#SVGID_2_);fill:#00A4E2;} .st385{clip-path:url(#SVGID_2_);fill:#00A2E2;} .st386{clip-path:url(#SVGID_2_);fill:#00A1E1;} .st387{clip-path:url(#SVGID_2_);fill:#00A0E0;} .st388{clip-path:url(#SVGID_2_);fill:#009FDF;} .st389{clip-path:url(#SVGID_2_);fill:#009DDF;} .st390{clip-path:url(#SVGID_2_);fill:#009CDE;} .st391{clip-path:url(#SVGID_2_);fill:#009BDD;} .st392{clip-path:url(#SVGID_2_);fill:#009ADC;} .st393{clip-path:url(#SVGID_2_);fill:#0097DB;} .st394{clip-path:url(#SVGID_2_);fill:#0096DA;} .st395{clip-path:url(#SVGID_2_);fill:#0095DA;}</style><defs><path id="SVGID_1_" d="M-21.952-60.145h841.89V535.13h-841.89z"/></defs><clipPath id="SVGID_2_"><use xlink:href="#SVGID_1_" overflow="visible"/></clipPath><path class="st0" d="M0 0h500v500H0z"/><path class="st1" d="M300.485 367.523h.256v.318h-.25z"/><path class="st0" d="M240.82 426.046H127.59v-1.153h113.323v.065H127.657v1.023h113.227z"/><path class="st2" d="M127.666 424.965h114.256v1.01H127.666z"/><path class="st0" d="M240.85 423.18H127.592v-1.156H240.85l.065.065H127.657v1.02h113.258z"/><path class="st3" d="M127.666 422.098h114.256v1.01H127.666z"/><path class="st0" d="M240.85 420.315H127.592v-1.157H240.85l.065.065H127.657v1.026h113.258z"/><path class="st4" d="M127.666 419.23h114.256v1.01H127.666z"/><path class="st0" d="M240.85 417.446H127.592v-1.157H240.85l.065.06H127.657v1.02h113.258z"/><path class="st5" d="M127.666 416.364h114.256v1.01H127.666z"/><path class="st0" d="M240.85 414.58H127.592v-1.156H240.85l.065.065H127.657v1.02h113.258z"/><path class="st6" d="M127.666 413.497h114.256v1.01H127.666z"/><path class="st0" d="M240.85 411.712H127.592v-1.154H240.85l.065.065H127.657v1.023h113.258z"/><path class="st7" d="M127.666 410.63h114.256v1.01H127.666z"/><path class="st0" d="M240.85 408.846H127.592v-1.157H240.85l.065.06H127.657v1.02h113.258z"/><path class="st8" d="M127.666 407.763h114.256v1.01H127.666z"/><path class="st0" d="M240.915 405.98H127.592v-1.157h113.323v.066H127.657v1.02h113.258z"/><path class="st9" d="M127.666 404.896h114.256v1.01H127.666z"/><path class="st0" d="M240.915 403.11H127.592v-1.155h113.323v.065H127.657v1.026h113.258z"/><path class="st10" d="M127.666 402.03h114.256v1.008H127.666z"/><path class="st0" d="M240.915 400.245H127.592v-1.156h113.323v.06H127.657v1.02h113.258z"/><path class="st11" d="M127.666 399.163h114.256v1.008H127.666z"/><path class="st0" d="M240.915 397.38H127.592v-1.157h113.323v.065H127.657v1.026h113.258z"/><path class="st12" d="M127.666 396.296h114.256v1.01H127.666z"/><path class="st0" d="M240.915 394.51H127.592v-1.156h113.323v.066H127.657v1.026h113.258z"/><path class="st13" d="M127.666 393.428h114.256v1.01H127.666z"/><path class="st0" d="M240.915 391.645H127.592v-1.156h113.323v.06H127.657v1.02h113.258z"/><path class="st14" d="M127.666 390.562h114.256v1.01H127.666z"/><path class="st0" d="M240.915 388.776H127.592v-1.153h113.323v.065H127.657v1.023h113.258z"/><path class="st15" d="M127.666 387.695h114.256v1.01H127.666z"/><path class="st0" d="M240.915 385.91H127.592v-1.156h113.323v.065H127.657v1.02h113.258z"/><path class="st16" d="M127.666 384.827h114.256v1.01H127.666z"/><path class="st0" d="M240.915 383.042H127.592v-1.157h113.323v.066H127.657v1.03h113.258z"/><path class="st17" d="M127.666 381.96h114.256v1.01H127.666z"/><path class="st0" d="M240.915 380.176H127.592v-1.156h113.323v.065H127.657v1.026h113.258z"/><path class="st18" d="M127.666 379.094h114.256v1.01H127.666z"/><path class="st0" d="M240.915 377.31H127.592v-1.156h113.323v.065H127.657v1.02h113.258z"/><path class="st19" d="M127.666 376.227h114.256v1.01H127.666z"/><path class="st0" d="M240.915 374.442H127.592v-1.157h113.323v.065H127.657v1.026h113.258z"/><path class="st20" d="M127.666 373.36h114.256v1.008H127.666z"/><path class="st0" d="M240.915 371.576H127.592v-1.157h113.323v.06H127.657v1.02h113.258z"/><path class="st21" d="M127.666 370.492h114.256v1.01H127.666z"/><path class="st0" d="M240.915 368.707H127.592v-1.154h113.323v.066H127.657v1.02h113.258z"/><path class="st22" d="M127.666 367.626h114.256v1.01H127.666z"/><path class="st0" d="M240.915 365.84H127.592v-1.155h113.323v.065H127.657v1.026h113.258z"/><path class="st23" d="M127.666 364.76h114.256v1.008H127.666z"/><path class="st0" d="M240.915 362.973H127.592v-1.157h113.323v.065H127.657v1.03h113.258z"/><path class="st24" d="M127.666 361.89h114.256v1.01H127.666z"/><path class="st0" d="M240.915 360.107H127.592v-1.157h113.323v.065H127.657v1.027h113.258z"/><path class="st25" d="M127.666 359.025h114.256v1.01H127.666z"/><path class="st0" d="M240.915 357.24H127.592v-1.156h113.323v.066H127.657v1.026h113.258z"/><path class="st26" d="M127.666 356.158h114.256v1.01H127.666z"/><path class="st0" d="M240.915 354.372H127.592v-1.153h113.323v.06H127.657v1.02h113.258z"/><path class="st27" d="M127.666 353.29h114.256v1.01H127.666z"/><path class="st0" d="M240.915 351.506H127.592v-1.156h113.323v.065H127.657v1.026h113.258z"/><path class="st28" d="M127.666 350.424h114.256v1.01H127.666z"/><path class="st0" d="M240.915 348.64H127.592v-1.156h113.323v.065H127.657v1.02h113.258z"/><path class="st29" d="M127.666 347.557h114.256v1.01H127.666z"/><path class="st0" d="M240.915 345.772H127.592v-1.157h113.323v.066H127.657v1.03h113.258z"/><path class="st30" d="M127.666 344.69h114.256v1.01H127.666z"/><path class="st0" d="M240.85 342.906H127.592v-1.156H240.85l.065.065H127.657v1.026h113.258z"/><path class="st31" d="M127.666 341.823h114.256v1.01H127.666z"/><path class="st0" d="M240.85 340.04H127.592v-1.156H240.85l.065.065H127.657v1.02h113.258z"/><path class="st32" d="M127.666 338.957h114.256v1.01H127.666z"/><path class="st0" d="M240.85 337.172H127.592v-1.157H240.85l.065.065H127.657v1.026h113.258z"/><path class="st33" d="M127.666 336.09h114.256v1.008H127.666z"/><path class="st0" d="M240.85 334.306H127.592v-1.157H240.85l.065.06H127.657v1.02h113.258z"/><path class="st34" d="M127.666 333.222h114.256v1.01H127.666z"/><path class="st0" d="M240.85 331.437H127.592v-1.156H240.85l.065.07H127.657v1.03h113.258z"/><path class="st35" d="M127.666 330.355h114.256v1.01H127.666z"/><path class="st0" d="M240.85 328.57H127.592v-1.155H240.85l.065.065H127.657v1.026h113.258z"/><path class="st36" d="M127.666 327.49h114.256v1.008H127.666z"/><path class="st0" d="M240.85 325.703H127.592v-1.154H240.85l.065.06H127.657v1.02h113.258z"/><path class="st37" d="M127.666 324.622h114.256v1.008H127.666z"/><path class="st0" d="M240.85 322.837H127.592v-1.157H240.85l.065.066H127.657v1.026h113.258z"/><path class="st38" d="M127.666 321.754h114.256v1.01H127.666z"/><path class="st0" d="M240.85 319.968H127.592v-1.153H240.85l.065.065H127.657v1.023h113.258z"/><path class="st39" d="M127.666 318.887h114.256v1.01H127.666z"/><path class="st0" d="M240.85 317.102H127.592v-1.153H240.85l.065.06H127.657v1.02h113.258z"/><path class="st40" d="M127.666 316.02h114.256v1.01H127.666z"/><path class="st0" d="M240.85 314.237H127.592v-1.157H240.85l.065.065H127.657v1.026h113.258z"/><path class="st41" d="M127.666 313.154h114.256v1.01H127.666z"/><path class="st0" d="M128.312 310.21l-.066.067h4.21l.065-.066h-4.2zm4.918 0l-.066.067h4.21l.065-.066h-4.21zm4.918 0l-.065.067h4.206l.06-.066h-4.21zm4.918 0l-.065.067h4.21l.07-.066h-4.2zm4.918 0l-.065.067h4.2l.06-.066h-4.21zm4.918 0l-.065.067h4.204l.07-.066h-4.2zm4.918 0l-.065.067h4.204l.06-.066h-4.21zm4.918 0l-.065.067h4.204l.065-.066h-4.204zm4.92 0l-.064.067h4.2l.066-.066h-4.2zm4.917 0l-.066.067h4.2l.06-.066h-4.21zm4.918 0l-.066.067h4.207l.065-.066h-4.21zm4.918 0l-.06.067h4.21l.07-.066h-4.2zm4.92 0l-.06.067h4.21l.07-.066h-4.2zm4.92 0l-.06.067h4.21l.07-.066h-4.2zm4.92 0l-.06.067h4.2l.07-.066h-4.2zm4.92 0l-.06.067h4.2l.07-.066h-4.2zm4.92 0l-.06.067h4.21l.07-.066H207zm4.92 0l-.06.067h4.21l.07-.066h-4.21zm4.93 0l-.07.067h4.2l.07-.066h-4.2zm4.92 0l-.06.067h4.2l.07-.066h-4.2zm4.92 0l-.06.067h4.2l.07-.066h-4.2zm4.92 0l-.06.067h4.2l.07-.066h-4.2zm4.92 0l-.07.067h4.03l.07-.066h-4.03zm4.34 1.158l.07-.065H127.66v-1.026h.026l.01-.01-.103.018v1.083H240.85z"/><path class="st42" d="M127.666 310.286h114.256v1.01H127.666z"/><path class="st0" d="M354.893 196.684l.238-.1H352l.1.1h2.8zm-4.906 0l.238-.1h-3.138l.1.1h2.8zm-4.907 0l.238-.1h-3.135l.1.1h2.797zm-4.907 0l.238-.1h-3.13l.1.1h2.8zm-4.907 0l.238-.1h-3.132l.1.1h2.794zm-4.904 0l.238-.1h-3.132l.1.1h2.794zm-4.91 0l.24-.1h-3.128l.1.1h2.79zm-4.906 0l.238-.1h-3.13l.1.1h2.792zm-4.904 0l.238-.1h-3.13l.1.1h2.792zm-4.91 0l.238-.1h-3.126l.1.1h2.788zm-4.906 0l.238-.1h-3.124l.1.1h2.786zm-4.907 0l.23-.1h-3.13l.1.1h2.78zm-4.91 0l.24-.1h-3.13l.1.1h2.79zm-4.91 0l.24-.1h-3.13l.1.1h2.78zm-4.91 0l.24-.1h-3.13l.1.1h2.78zm-4.91 0l.24-.1h-3.13l.1.1h2.79zm-4.91 0l.24-.1h-3.12l.1.1h2.78zm-4.92 0l.24-.1h-3.13l.1.1h2.78zm-4.91 0l.24-.1h-3.12l.1.1h2.78zm-4.91 0l.24-.1h-3.12l.1.1h2.78zm-4.91 0l.24-.1h-3.12l.1.1h2.78zm-4.91 0l.24-.1h-3.12l.1.1h2.77zm-4.91 0l.24-.1h-3.12l.1.1h2.77zm-4.53-2.016l-.1.1h114.45v1.817l.1-.105v-1.812H242.41z"/><path class="st43" d="M242.314 194.768h114.45v1.818h-114.45z"/><path class="st0" d="M242.417 191.834h114.446v1.953H242.417l-.1-.1h114.447v-1.754H242.318z"/><path class="st44" d="M242.314 191.932h114.45v1.756h-114.45z"/><path class="st0" d="M242.417 189h114.446v1.952H242.417l-.1-.1h114.447V189.1H242.318z"/><path class="st45" d="M242.314 189.098h114.45v1.756h-114.45z"/><path class="st0" d="M242.417 186.164h114.446v1.954H242.417l-.1-.1h114.447v-1.754H242.318z"/><path class="st46" d="M242.314 186.263h114.45v1.756h-114.45z"/><path class="st0" d="M242.417 183.33h114.446v1.953H242.417l-.1-.1h114.447v-1.754H242.318z"/><path class="st47" d="M242.314 183.428h114.45v1.756h-114.45z"/><path class="st0" d="M242.417 180.495h114.446v1.956H242.417l-.1-.09h114.447v-1.76H242.318z"/><path class="st48" d="M242.314 180.594h114.45v1.757h-114.45z"/><path class="st0" d="M242.417 177.66h114.446v1.956H242.417l-.1-.1h114.447v-1.756H242.318z"/><path class="st49" d="M242.314 177.76h114.45v1.756h-114.45z"/><path class="st0" d="M242.417 174.826h114.446v1.953H242.417l-.1-.1h114.447v-1.76H242.318z"/><path class="st50" d="M242.314 174.925h114.45v1.756h-114.45z"/><path class="st0" d="M242.417 171.99h114.446v1.957H242.417l-.1-.1h114.447v-1.757H242.318z"/><path class="st51" d="M242.314 172.09h114.45v1.757h-114.45z"/><path class="st0" d="M242.417 169.157h114.446v1.953H242.417l-.1-.1h114.447v-1.754H242.318z"/><path class="st52" d="M242.314 169.256h114.45v1.756h-114.45z"/><path class="st0" d="M242.417 166.322h114.446v1.953H242.417l-.1-.1h114.447v-1.754H242.318z"/><path class="st53" d="M242.314 166.42h114.45v1.757h-114.45z"/><path class="st0" d="M242.417 163.487h114.446v1.956H242.417l-.1-.1h114.447v-1.757H242.318z"/><path class="st54" d="M242.314 163.587h114.45v1.756h-114.45z"/><path class="st0" d="M242.417 160.653h114.446v1.953H242.417l-.1-.1h114.447v-1.754H242.318z"/><path class="st55" d="M242.314 160.752h114.45v1.756h-114.45z"/><path class="st0" d="M242.417 157.818h114.446v1.953H242.417l-.1-.09h114.447v-1.75H242.318z"/><path class="st56" d="M242.314 157.917h114.45v1.756h-114.45z"/><path class="st0" d="M242.417 154.983h114.446v1.956H242.417l-.1-.1h114.447v-1.76H242.318z"/><path class="st57" d="M242.314 155.083h114.45v1.756h-114.45z"/><path class="st0" d="M242.417 152.15h114.446v1.952H242.417l-.1-.1h114.447v-1.754H242.318z"/><path class="st58" d="M242.314 152.248h114.45v1.756h-114.45z"/><path class="st0" d="M242.417 149.314h114.446v1.953H242.417l-.1-.1h114.447v-1.754H242.318z"/><path class="st59" d="M242.314 149.413h114.45v1.756h-114.45z"/><path class="st0" d="M242.417 146.48h114.446v1.955H242.417l-.1-.1h114.447v-1.756H242.318z"/><path class="st60" d="M242.314 146.58h114.45v1.755h-114.45z"/><path class="st0" d="M242.417 143.645h114.446v1.953H242.417l-.1-.1h114.447v-1.754H242.318z"/><path class="st61" d="M242.314 143.744h114.45v1.756h-114.45z"/><path class="st0" d="M242.417 140.81h114.446v1.953H242.417l-.1-.1h114.447v-1.754H242.318z"/><path class="st62" d="M242.314 140.91h114.45v1.755h-114.45z"/><path class="st0" d="M242.417 137.975h114.446v1.956H242.417l-.1-.09h114.447v-1.75H242.318z"/><path class="st63" d="M242.314 138.075h114.45v1.757h-114.45z"/><path class="st0" d="M242.417 135.14h114.446v1.957H242.417l-.1-.1h114.447v-1.757H242.318z"/><path class="st64" d="M242.314 135.24h114.45v1.757h-114.45z"/><path class="st0" d="M242.417 132.306h114.446v1.956H242.417l-.1-.1h114.447v-1.757H242.318z"/><path class="st65" d="M242.314 132.406h114.45v1.756h-114.45z"/><path class="st0" d="M242.417 129.472h114.446v1.955H242.417l-.1-.1h114.447v-1.756H242.318z"/><path class="st66" d="M242.314 129.572h114.45v1.756h-114.45z"/><path class="st0" d="M242.417 126.637h114.446v1.956H242.417l-.1-.1h114.447v-1.757H242.318z"/><path class="st67" d="M242.314 126.737h114.45v1.756h-114.45z"/><path class="st0" d="M242.417 123.802h114.446v1.956H242.417l-.1-.1h114.447V123.9H242.318z"/><path class="st68" d="M242.314 123.9h114.45v1.758h-114.45z"/><path class="st0" d="M242.417 120.968h114.446v1.953H242.417l-.1-.1h114.447v-1.75H242.318z"/><path class="st69" d="M242.314 121.067h114.45v1.756h-114.45z"/><path class="st0" d="M242.417 118.133h114.446v1.953H242.417l-.1-.1h114.447v-1.754H242.318z"/><path class="st70" d="M242.314 118.232h114.45v1.756h-114.45z"/><path class="st0" d="M242.417 115.298h114.446v1.953H242.417l-.1-.09h114.447v-1.76H242.318z"/><path class="st71" d="M242.314 115.397h114.45v1.756h-114.45z"/><path class="st0" d="M242.417 112.464h114.446v1.953H242.417l-.1-.1h114.447v-1.754H242.318z"/><path class="st72" d="M242.314 112.562h114.45v1.756h-114.45z"/><path class="st0" d="M242.417 109.63h114.446v1.952H242.417l-.1-.1h114.447v-1.754H242.318z"/><path class="st73" d="M242.314 109.728h114.45v1.756h-114.45z"/><path class="st0" d="M242.417 106.794h114.446v1.953H242.417l-.1-.1h114.447v-1.753H242.318z"/><path class="st74" d="M242.314 106.893h114.45v1.756h-114.45z"/><path class="st0" d="M242.417 103.96h114.446v1.953H242.417l-.1-.1h114.447v-1.754H242.318z"/><path class="st75" d="M242.314 104.058h114.45v1.756h-114.45z"/><path class="st0" d="M242.417 101.125h114.446v1.956H242.417l-.1-.09h114.447v-1.76H242.318z"/><path class="st76" d="M242.314 101.225h114.45v1.756h-114.45z"/><path class="st0" d="M242.417 98.29h114.446v1.956H242.417l-.1-.1h114.447V98.39H242.318z"/><path class="st77" d="M242.314 98.39h114.45v1.756h-114.45z"/><path class="st0" d="M242.417 95.456h114.446v1.953H242.417l-.1-.1h114.447v-1.76H242.318z"/><path class="st78" d="M242.314 95.554h114.45v1.757h-114.45z"/><path class="st0" d="M242.417 92.62h114.446v1.957H242.417l-.1-.1h114.447V92.72H242.318z"/><path class="st79" d="M242.314 92.72h114.45v1.757h-114.45z"/><path class="st0" d="M242.417 89.786h114.446v1.956H242.417l-.1-.1h114.447v-1.756H242.318z"/><path class="st80" d="M242.314 89.885h114.45v1.757h-114.45z"/><path class="st0" d="M242.417 86.952h114.446v1.953H242.417l-.1-.1h114.447V87.05H242.318z"/><path class="st81" d="M242.314 87.05h114.45v1.757h-114.45z"/><path class="st0" d="M242.417 84.117h114.446v1.956H242.417l-.1-.1h114.447v-1.757H242.318z"/><path class="st82" d="M242.314 84.217h114.45v1.756h-114.45z"/><path class="st0" d="M242.432 81.283h114.43v1.953H242.32v-.1h114.446v-1.754h-114.45v.017z"/><path class="st83" d="M242.314 81.382h114.45v1.756h-114.45z"/><g class="st0"><defs><path id="SVGID_3_" d="M197.687 239.872l-.097.227 1.987-1.94-.136-.01-1.75 1.71zm2.486-2.42l-.097.226 1.985-1.93-.13-.003-1.75 1.707zm2.483-2.418l-.097.227 1.98-1.93h-.14l-1.75 1.71zm2.486-2.42l-.097.226 1.988-1.934-.14-.002-1.75 1.71zm2.483-2.425l-.096.23 1.98-1.94-.14-.01-1.75 1.7zm2.486-2.42l-.09.23 1.99-1.94-.14-.01-1.75 1.7zm2.49-2.43l-.09.23 1.99-1.94-.14-.01-1.75 1.7zm2.49-2.42l-.09.23 1.99-1.93-.14-.01-1.75 1.7zm2.49-2.42l-.09.23 1.99-1.94-.14-.01-1.75 1.7zm2.49-2.42l-.09.23 1.99-1.94h-.14l-1.75 1.7zm2.49-2.42l-.09.23 1.99-1.94-.14-.01-1.75 1.7zm2.49-2.42l-.09.23 1.99-1.93-.14-.01-1.75 1.7zm2.49-2.42l-.09.23 1.99-1.94-.14-.01-1.75 1.7zm2.48-2.42l-.09.23 1.99-1.93-.14-.01-1.75 1.7zm2.49-2.42l-.09.23 1.99-1.93-.14-.01-1.75 1.7zm2.49-2.42l-.1.23 1.99-1.94h-.14l-1.75 1.7zm2.49-2.42l-.09.23 1.99-1.94-.14-.01-1.75 1.7zm2.49-2.43l-.1.23 2.03-1.97h-.04v-.1l-1.88 1.83zm116.83-2.25v.1h-.01l-55.48 55.63-.69.69.24-.1.52-.53L357 196.48v-.02h-.216zm-4.77.24v-.14l-56.4 56.34h-.12l.1.1h.07l56.36-56.3zm-52.5 56.3l.25-.1h-.95l56.33-56.34-.23.1L298.59 253h.95zm47.58-56.3v-.14l-56.47 56.34h-.14l.1.1h.08l56.44-56.3zM294.53 253l.246-.1h-.93l56.4-56.34-.237.1L293.6 253h.93zm47.68-56.3v-.14l-56.55 56.35h-.15l.1.1h.094l56.51-56.31zm-52.68 56.31l.247-.1h-.914l56.48-56.346-.24.1-56.48 56.343h.91zm47.767-56.305v-.14l-56.62 56.36h-.163l.1.1h.104l56.58-56.31zm-52.754 56.31l.243-.1h-.905l56.55-56.35-.24.1-56.55 56.36h.9zm47.85-56.31v-.14l-56.695 56.37h-.18l.1.1h.118l56.657-56.32zm-52.843 56.32l.243-.1h-.894l56.63-56.35-.24.1-56.62 56.36h.89zm47.94-56.31v-.14l-56.77 56.37h-.193l.1.1h.13l56.73-56.33zm-52.93 56.32l.24-.1h-.873l56.7-56.36-.237.1-56.7 56.36h.874zm48.025-56.32v-.14l-56.85 56.38h-.202l.1.1h.15l56.804-56.335zm-53.013 56.33l.248-.1h-.873l56.77-56.37-.24.1-56.77 56.37h.87zm48.11-56.32v-.14l-56.913 56.38h-.22l.1.1h.16l56.87-56.34zm-53.11 56.335l.246-.1h-.86l56.85-56.37-.23.1-56.85 56.375h.86zm48.2-56.33v-.14l-56.99 56.38h-.227l.1.1h.17l56.95-56.344zm-53.19 56.34l.245-.1h-.843l56.92-56.38-.24.095-56.92 56.38h.84zm48.284-56.34v-.14l-57.07 56.388h-.24l.1.1h.18l57.02-56.348zm-53.28 56.34l.24-.1H254l56.99-56.384-.24.098-56.99 56.39h.83zm48.37-56.343v-.14l-57.14 56.397h-.26l.1.1h.19l57.096-56.36zm-53.36 56.347l.25-.1h-.82l57.05-56.39-.24.094-57.06 56.39h.818zm48.45-56.35v-.14l-57.21 56.4h-.26l.1.1h.2l57.17-56.36zm-53.44 56.36l.24-.1h-.78l-.02-.02 57.12-56.38-.24.094-57.02 56.27.11.125h.58zm48.53-56.36v-.14l-57.29 56.404h-.273l.1.1h.218l57.24-56.37zm-53.53 56.36l.243-.1h-.77l-.02-.02 57.19-56.37-.24.1-57.08 56.27.11.123h.56zm48.617-56.36v-.14L230.866 253h-.297l.1.1h.24l57.31-56.374zm-53.61 56.362l.248-.1h-.74l-.03-.03 57.26-56.38-.24.1-57.16 56.28.13.122h.53zm48.706-56.37v-.14L225.88 253h-.31l.1.1h.25l57.383-56.376zm-53.69 56.37l.24-.1h-.72l-.04-.036 57.32-56.38-.24.1-57.23 56.28.14.136h.51zm48.78-56.37v-.14L220.91 253h-.32l.1.1h.255l57.46-56.385zm-53.78 56.38l.24-.1h-.69l-.04-.04 57.39-56.377-.25.1L224 252.96l.133.14h.493zm48.87-56.38v-.14l-57.58 56.43h-.33l.1.1h.26l57.53-56.39zM219.64 253.1l.23-.1h-.67l-.04-.047 57.46-56.38-.245.1-57.35 56.27.133.152h.475zm48.95-56.383v-.14l-57.64 56.435h-.348l.1.1h.283l57.6-56.4zm-53.95 56.39l.238-.1h-.646l-.047-.055 57.525-56.38-.245.1-57.417 56.27.14.16h.454zm49.037-56.39l.003-.14-57.717 56.44h-.354l.1.1h.29l57.67-56.4zm-54.02 56.396l.237-.1h-.626l-.054-.06 57.594-56.376-.242.1-57.49 56.28.144.16h.433zm49.12-56.397v-.14l-57.787 56.45h-.37l.1.1h.31l57.745-56.4zm-54.113 56.4l.24-.1h-.602l-.06-.065 57.66-56.37-.244.1-57.555 56.27.156.17h.4zm49.207-56.4l.01-.14-57.86 56.452h-.38l.1.1h.32l57.82-56.413zm-54.19 56.405l.24-.1h-.58l-.06-.07L257 196.58l-.244.1-57.623 56.27.162.175h.383zm49.3-56.4l.01-.14-57.93 56.45h-.39l.1.1h.34L249 196.71zm-54.28 56.41l.24-.1h-.56l-.07-.08 57.8-56.38-.24.1-57.69 56.27.17.18h.37zm49.38-56.41l.01-.14-58.01 56.46h-.41l.1.1h.35l57.97-56.43zm-54.37 56.42l.24-.1h-.54l-.07-.09 57.86-56.37-.24.1-57.75 56.26.17.18h.35zm-4.99 0l.24-.1h-.36v.09h.13zm10.5-10.85l-.09.22 1.99-1.94h-.13l-1.75 1.71zm-9.94 9.68l-.09.22h.01l9.42-9.19-.14-.01-1.85 1.8v.13l-.5.48v-.13l-1.99 1.93v.13l-.5.48v-.13l-1.98 1.94v.13l-.5.48v-.13l-1.89 1.84z"/></defs><clipPath id="SVGID_4_"><use xlink:href="#SVGID_3_" overflow="visible"/></clipPath><path class="st84" d="M355.134 196.582l-56.336 56.338h1.772l.71-.71 55.48-55.628zm-4.907 0l-56.406 56.344h1.77L352 196.582zm-4.907 0l-56.48 56.35h1.772l56.478-56.35zm-4.906 0l-56.554 56.355h1.774l56.552-56.355zm-4.907 0l-56.628 56.36h1.77l56.62-56.36zm-4.904 0l-56.7 56.367h1.773l56.7-56.37zm-4.91 0l-56.772 56.372h1.78l56.77-56.372zm-4.906 0L263.94 252.96h1.778l56.846-56.378zm-4.904 0l-56.92 56.384h1.778l56.92-56.384zm-4.91 0l-56.987 56.387h1.774l56.99-56.39zm-4.906 0l-57.056 56.392h1.78l57.06-56.392zm-4.907 0l-57.124 56.38.017.02h1.752l57.135-56.4zm-4.904 0l-57.192 56.38.02.024h1.74l57.21-56.404zm-4.906 0l-57.26 56.38.025.03h1.73l57.284-56.41zm-4.908 0l-57.328 56.38.032.035h1.72l57.356-56.415zm-4.907 0l-57.393 56.38.037.04h1.71l57.42-56.42zm-4.905 0l-57.462 56.38.042.046h1.698l57.5-56.426zm-4.908 0l-57.53 56.38.05.052h1.688l57.575-56.432zm-4.907 0l-57.597 56.38.054.058h1.68l57.646-56.438zm-4.907 0l-57.662 56.378.06.065h1.666l57.72-56.443zm-4.906 0l-57.73 56.378.064.07h1.66l57.79-56.448zm-4.907 0l-57.8 56.378.07.077h1.65l57.866-56.455zm-4.907 0l-57.866 56.378.073.08h1.642l57.94-56.458zm-4.908 0l-57.987 56.466h1.763l58.01-56.466z"/></g><path class="st85" d="M355.134 196.582l-56.336 56.338h1.772l.71-.71 55.48-55.628z"/><path class="st86" d="M350.227 196.582l-56.406 56.344h1.77L352 196.582z"/><path class="st87" d="M345.32 196.582l-56.48 56.35h1.772l56.478-56.35z"/><path class="st88" d="M340.414 196.582l-56.554 56.355h1.774l56.552-56.355z"/><path class="st89" d="M335.507 196.582l-56.628 56.36h1.77l56.62-56.36z"/><path class="st90" d="M330.603 196.582l-56.7 56.367h1.773l56.7-56.37z"/><path class="st91" d="M325.694 196.582l-56.773 56.372h1.78l56.77-56.372z"/><path class="st92" d="M320.787 196.582L263.94 252.96h1.778l56.846-56.378z"/><path class="st93" d="M315.883 196.582l-56.92 56.384h1.778l56.92-56.384z"/><path class="st94" d="M310.973 196.582l-56.987 56.387h1.774l56.99-56.39z"/><path class="st95" d="M306.067 196.582l-57.056 56.392h1.78l57.06-56.392z"/><path class="st96" d="M301.16 196.582l-57.124 56.38.017.02h1.752l57.135-56.4z"/><path class="st97" d="M296.256 196.582l-57.192 56.38.02.024h1.74l57.21-56.404z"/><path class="st98" d="M291.35 196.582l-57.26 56.38.025.03h1.73l57.284-56.41z"/><path class="st99" d="M286.442 196.582l-57.328 56.38.032.035h1.72l57.356-56.415z"/><path class="st100" d="M281.535 196.582l-57.393 56.38.037.04h1.71l57.42-56.42z"/><path class="st101" d="M276.63 196.582l-57.462 56.38.042.046h1.698l57.5-56.426z"/><path class="st102" d="M271.722 196.582l-57.53 56.38.05.052h1.688l57.575-56.432z"/><path class="st103" d="M266.815 196.582l-57.597 56.38.054.058h1.68l57.646-56.438z"/><path class="st104" d="M261.908 196.582l-57.662 56.378.06.065h1.666l57.72-56.443z"/><path class="st105" d="M257.002 196.582l-57.73 56.378.064.07h1.66l57.79-56.448z"/><path class="st106" d="M252.095 196.582l-57.8 56.378.07.077h1.65l57.866-56.455z"/><path class="st107" d="M247.188 196.582l-57.866 56.378.073.08h1.642l57.94-56.458z"/><path class="st108" d="M242.28 196.582l-57.987 56.466h1.763l58.01-56.466z"/><g class="st0"><defs><path id="SVGID_5_" d="M246.128 420.73v.14l3.21-3.126v-.142l-3.21 3.13zm4.21-4.103v.142l3.205-3.13v-.14l-3.206 3.12zm4.206-4.1v.143l3.21-3.127v-.145l-3.21 3.13zm4.207-4.1v.144l3.21-3.13v-.14l-3.21 3.13zm4.21-4.1v.142l3.21-3.13v-.14l-3.21 3.12zm4.21-4.1v.14l3.21-3.123v-.142l-3.2 3.124zm4.21-4.1v.14l3.21-3.125V393l-3.21 3.127zm4.21-4.1v.142l3.21-3.13v-.14l-3.21 3.12zm4.21-4.098v.14l3.21-3.13v-.14l-3.21 3.12zm4.21-4.11v.14l3.21-3.13v-.14l-3.21 3.13zm4.21-4.1v.14l3.21-3.13v-.13l-.07.07v-.01l-3.13 3.05zm4.21-4.1v.14l3.21-3.13v-.13l-.07.07v-.01l-3.13 3.05zm4.21-4.1v.14l2.96-2.89v-.13l-.07.07v-.01l-2.88 2.81zm114.85-3.73v-.14l-58.09 58.01h-1.41l58.09-58.01-.24.1-58.08 58.01h1.7l58.04-57.96zm-3.53 0v-.14l-58.14 58.02h-1.42l58.15-58.03-.24.1-58.14 58.02h1.7l58.1-57.98zm-3.52 0v-.14l-58.2 58.03h-1.42l58.2-58.03-.24.1-58.2 58.03h1.71l58.16-57.99zm-3.52 0v-.14l-58.27 58.05h-1.42l58.27-58.05-.24.1L341 425.79h1.7l58.22-58zm-3.53 0v-.14l-58.32 58.05h-1.42l58.32-58.06-.23.1-58.32 58.05h1.71l58.27-58.01zm-3.53 0v-.14l-58.38 58.06h-1.42l58.38-58.07-.24.1-58.39 58.06h1.7l58.34-58.02zm-3.52 0v-.14l-58.44 58.07h-1.42l58.44-58.08-.24.1-58.44 58.07h1.71l58.39-58.02zm-3.52 0v-.14l-58.5 58.08h-1.42l58.5-58.09-.24.1-58.5 58.08h1.7l58.46-58.04zm-3.52-.01v-.14l-58.56 58.1h-1.43l58.56-58.1-.23.1-58.56 58.09h1.71l58.52-58.06zm-3.53 0v-.14l-58.61 58.1h-1.43l58.62-58.11-.24.1-58.62 58.1h1.71l58.58-58.07zm-3.52 0v-.14l-58.68 58.11h-1.43l58.68-58.12-.24.1-58.68 58.12h1.71l58.64-58.08zm-3.53 0v-.14l-58.73 58.12h-1.43l58.74-58.13-.23.1-58.74 58.12h1.7l58.7-58.09zm-3.52 0v-.14l-58.79 58.13h-1.43l58.8-58.14-.24.1-58.8 58.14h1.72l58.75-58.1zm-3.52 0v-.14l-58.85 58.15h-1.43l58.85-58.15-.24.09-58.85 58.15h1.71l58.81-58.11zm-3.52 0v-.14L303.2 425.8h-1.43l58.91-58.155-.24.1-58.914 58.16h1.713l58.86-58.117zm-3.53 0v-.14l-58.97 58.16h-1.43l58.97-58.17-.24.09-58.97 58.17h1.71l58.93-58.13zm-3.53 0v-.14l-59.02 58.18h-1.43l59.03-58.18-.24.09-59.03 58.18h1.71l58.99-58.13zm-3.53 0v-.14l-59.08 58.18h-1.43l59.09-58.19-.24.09-59.09 58.19h1.71l59.04-58.15zm-3.52 0v-.14l-59.14 58.19h-1.43l59.14-58.2-.24.1-59.14 58.19h1.71l59.1-58.16zm-3.53 0v-.14l-59.2 58.21h-1.43l59.21-58.21-.24.1-59.2 58.21h1.72l59.16-58.17zm-3.52 0v-.14l-59.26 58.22h-1.44l59.26-58.22-.24.1-59.26 58.21h1.72L341 367.77zm-3.53 0v-.14l-59.32 58.23h-1.43l59.3-58.23-.24.1-59.31 58.22h1.71l59.28-58.19zm-3.53 0v-.14l-59.37 58.23h-1.43l59.38-58.24-.24.1-59.37 58.23h1.72l59.33-58.2zm-3.53 0v-.14l-59.43 58.25h-1.43l59.44-58.25-.24.09-59.44 58.25h1.7l59.4-58.21zm-3.52 0v-.14l-59.5 58.26h-1.43l59.5-58.26-.24.1L265.7 426h1.72l59.45-58.22zm-3.52 0v-.14l-59.56 58.27h-1.44l59.56-58.27-.24.1-59.56 58.27h1.72l59.51-58.23zm-3.53 0v-.14l-59.61 58.27h-1.43l59.62-58.28-.24.1-59.61 58.28h1.72l59.57-58.24zm-3.52 0l.007-.14-59.67 58.29h-1.44l59.67-58.29-.245.1-59.67 58.29h1.72l59.624-58.25zm-3.522 0l.005-.14-59.72 58.3h-1.44l59.73-58.3-.25.1-59.73 58.3h1.72l59.68-58.26zm-3.525 0l.004-.14-59.78 58.31H248l59.79-58.31-.243.1-59.79 58.31h1.72l59.744-58.27zm-3.52 0l.003-.14-59.84 58.32h-1.44l59.85-58.32-.25.1-59.843 58.32h1.72l59.8-58.28zm-65.01 58.26v.02h1.624l59.86-58.29.01-.14-59.91 58.33h-1.38l.007-.01h-.14l-.07.07zM415 367.56l.003.077v.02h-.01l-58.035 58.01h-1.42l58.04-58.01-.237.1-58.04 58h1.7l58.21-58.18v-.016H415zm-173.08 57.27v.128h.01v.003l3.197-3.11v-.14l-3.206 3.13z"/></defs><clipPath id="SVGID_6_"><use xlink:href="#SVGID_5_" overflow="visible"/></clipPath><path class="st109" d="M413.576 367.653L355.54 425.66h1.42l58.03-58.007zm-3.53 0l-58.09 58.016h1.418l58.09-58.02zm-3.526 0l-58.15 58.028h1.42l58.148-58.02zm-3.526 0l-58.21 58.036h1.424l58.204-58.04zm-3.526 0l-58.27 58.048h1.424l58.263-58.04zm-3.526 0l-58.33 58.06h1.424l58.323-58.06zm-3.527 0L334.03 425.72h1.42l58.383-58.067zm-3.525 0l-58.446 58.08h1.423l58.44-58.08zm-3.527 0L326.86 425.74h1.424l58.5-58.087zm-3.53 0l-58.557 58.1h1.423l58.55-58.1zm-3.523 0l-58.62 58.107h1.423l58.615-58.107zm-3.53 0l-58.676 58.118h1.423l58.677-58.11zm-3.525 0l-58.737 58.127h1.426l58.734-58.127zm-3.525 0l-58.8 58.137h1.43l58.79-58.137zm-3.528 0l-58.853 58.15h1.42l58.85-58.15zm-3.526 0l-58.912 58.158h1.428l58.908-58.15zm-3.53 0l-58.97 58.17h1.43l58.97-58.17zm-3.523 0l-59.03 58.178h1.428l59.03-58.17zm-3.526 0l-59.088 58.19h1.42l59.08-58.19zm-3.53 0l-59.144 58.198h1.432l59.142-58.19zm-3.523 0l-59.207 58.21h1.432l59.2-58.21zm-3.53 0L280.25 425.87h1.433l59.26-58.217zm-3.524 0l-59.322 58.23h1.432l59.318-58.23zm-3.527 0l-59.38 58.237h1.43l59.378-58.237zm-3.527 0l-59.44 58.25h1.432l59.437-58.25zm-3.526 0l-59.5 58.257h1.435l59.494-58.257zm-3.526 0l-59.56 58.27h1.435l59.55-58.27zm-3.526 0l-59.616 58.277h1.434l59.61-58.277zm-3.528 0l-59.67 58.288h1.433l59.667-58.28zm-3.528 0l-59.732 58.3h1.438l59.726-58.3zm-3.526 0l-59.79 58.308h1.436l59.785-58.3zm-3.526 0l-59.848 58.32h1.437l59.84-58.32zm-3.513 0l-59.853 58.328h1.372l59.902-58.32z"/></g><path class="st110" d="M413.576 367.653L355.54 425.66h1.42l58.03-58.007z"/><path class="st111" d="M410.047 367.653l-58.09 58.016h1.417l58.09-58.02z"/><path class="st112" d="M406.52 367.653l-58.15 58.028h1.42l58.148-58.02z"/><path class="st113" d="M402.994 367.653l-58.21 58.036h1.424l58.204-58.04z"/><path class="st114" d="M399.468 367.653l-58.27 58.048h1.424l58.263-58.04z"/><path class="st115" d="M395.942 367.653l-58.33 58.06h1.424l58.323-58.06z"/><path class="st116" d="M392.415 367.653L334.03 425.72h1.42l58.383-58.067z"/><path class="st117" d="M388.89 367.653l-58.446 58.08h1.423l58.44-58.08z"/><path class="st118" d="M385.363 367.653L326.86 425.74h1.424l58.5-58.087z"/><path class="st119" d="M381.834 367.653l-58.558 58.1h1.423l58.55-58.1z"/><path class="st120" d="M378.31 367.653l-58.62 58.107h1.423l58.615-58.107z"/><path class="st121" d="M374.78 367.653l-58.676 58.118h1.423l58.677-58.11z"/><path class="st122" d="M371.255 367.653l-58.737 58.127h1.426l58.734-58.127z"/><path class="st123" d="M367.73 367.653l-58.8 58.137h1.43l58.79-58.137z"/><path class="st124" d="M364.202 367.653l-58.853 58.15h1.42l58.85-58.15z"/><path class="st125" d="M360.676 367.653l-58.912 58.158h1.428l58.908-58.15z"/><path class="st126" d="M357.147 367.653l-58.97 58.17h1.43l58.968-58.17z"/><path class="st127" d="M353.623 367.653l-59.03 58.178h1.428l59.03-58.17z"/><path class="st128" d="M350.097 367.653l-59.088 58.19h1.42l59.08-58.19z"/><path class="st129" d="M346.568 367.653l-59.145 58.198h1.432l59.142-58.19z"/><path class="st130" d="M343.044 367.653l-59.207 58.21h1.432l59.2-58.21z"/><path class="st131" d="M339.515 367.653L280.25 425.87h1.433l59.26-58.217z"/><path class="st132" d="M335.99 367.653l-59.322 58.23h1.432l59.318-58.23z"/><path class="st133" d="M332.463 367.653l-59.38 58.237h1.43l59.378-58.237z"/><path class="st134" d="M328.936 367.653l-59.44 58.25h1.432l59.437-58.25z"/><path class="st135" d="M325.41 367.653l-59.5 58.257h1.435l59.494-58.257z"/><path class="st136" d="M321.884 367.653l-59.56 58.27h1.435l59.55-58.27z"/><path class="st137" d="M318.358 367.653l-59.616 58.277h1.434l59.61-58.277z"/><path class="st138" d="M314.83 367.653l-59.67 58.288h1.433l59.667-58.28z"/><path class="st139" d="M311.302 367.653l-59.732 58.3h1.438l59.726-58.3z"/><path class="st140" d="M307.776 367.653l-59.79 58.308h1.436l59.785-58.3z"/><path class="st141" d="M304.25 367.653l-59.848 58.32h1.437l59.84-58.32z"/><path class="st142" d="M300.737 367.653l-59.853 58.328h1.372l59.902-58.32z"/><path class="st0" d="M300.67 252.82h114.42v1.628H300.667l-.09-.09H415v-1.446H300.645l.008-.01h-.068z"/><path class="st143" d="M299.75 252.92h115.24v1.428H299.75z"/><path class="st0" d="M300.675 256.444H415.09v2.202H300.675l-.1-.1H414.99v-2.003H300.578z"/><path class="st144" d="M299.75 256.542h115.24v2.006H299.75z"/><path class="st0" d="M300.675 260.642H415.09v2.205H300.675l-.1-.1H414.99v-2.006H300.578z"/><path class="st145" d="M299.75 260.74h115.24v2.007H299.75z"/><path class="st0" d="M300.675 264.84H415.09v2.205H300.675l-.1-.1H414.99v-2.006H300.578z"/><path class="st146" d="M299.75 264.94h115.24v2.006H299.75z"/><path class="st0" d="M300.675 269.04H415.09v2.204H300.675l-.1-.1H414.99v-2.004H300.578z"/><path class="st147" d="M299.75 269.14h115.24v2.005H299.75z"/><path class="st0" d="M300.675 273.242H415.09v2.202H300.675l-.1-.1H414.99v-2.003H300.578z"/><path class="st148" d="M299.75 273.34h115.24v2.006H299.75z"/><path class="st0" d="M300.675 277.44H415.09v2.205H300.675l-.1-.1H414.99v-2.006H300.578z"/><path class="st149" d="M299.75 277.54h115.24v2.005H299.75z"/><path class="st0" d="M300.675 281.638H415.09v2.206H300.675l-.1-.1H414.99v-2.007H300.578z"/><path class="st150" d="M299.75 281.737h115.24v2.007H299.75z"/><path class="st0" d="M300.675 285.84H415.09v2.202H300.675l-.1-.1H414.99v-2.004H300.578z"/><path class="st151" d="M299.75 285.937h115.24v2.006H299.75z"/><path class="st0" d="M300.675 290.037H415.09v2.206H300.675l-.1-.1H414.99v-2.007H300.578z"/><path class="st152" d="M299.75 290.137h115.24v2.006H299.75z"/><path class="st0" d="M300.675 294.238H415.09v2.203H300.675l-.1-.1H414.99v-2H300.578z"/><path class="st153" d="M299.75 294.336h115.24v2.006H299.75z"/><path class="st0" d="M300.675 298.436H415.09v2.206H300.675l-.1-.1H414.99v-2.007H300.578z"/><path class="st154" d="M299.75 298.536h115.24v2.006H299.75z"/><path class="st0" d="M300.675 302.637H415.09v2.203H300.675l-.1-.1H414.99v-2.004H300.578z"/><path class="st155" d="M299.75 302.736h115.24v2.006H299.75z"/><path class="st0" d="M300.675 306.835H415.09v2.206H300.675l-.1-.1H414.99v-2H300.578z"/><path class="st156" d="M299.75 306.935h115.24v2.007H299.75z"/><path class="st0" d="M300.675 311.036H415.09v2.203H300.675l-.1-.1H414.99v-2.01H300.578z"/><path class="st157" d="M299.75 311.134h115.24v2.006H299.75z"/><path class="st0" d="M300.675 315.234H415.09v2.206H300.675l-.1-.1H414.99v-2.006H300.578z"/><path class="st158" d="M299.75 315.334h115.24v2.006H299.75z"/><path class="st0" d="M300.675 319.435H415.09v2.203H300.675l-.1-.1H414.99v-2.003H300.578z"/><path class="st159" d="M299.75 319.534h115.24v2.006H299.75z"/><path class="st0" d="M300.576 323.633H415.09v2.206H300.576v-.1H414.99v-2.01H300.577z"/><path class="st160" d="M299.75 323.733h115.24v2.006H299.75z"/><path class="st0" d="M300.576 327.832H415.09v2.205H300.576v-.1H414.99v-2.006H300.577z"/><path class="st161" d="M299.75 327.932h115.24v2.007H299.75z"/><path class="st0" d="M300.576 332.032H415.09v2.203H300.576v-.1H414.99v-2.003H300.577z"/><path class="st162" d="M299.75 332.13h115.24v2.007H299.75z"/><path class="st0" d="M300.576 336.23H415.09v2.206H300.576v-.1H414.99v-2.006H300.577z"/><path class="st163" d="M299.75 336.33h115.24v2.007H299.75z"/><path class="st0" d="M300.576 340.432H415.09v2.205H300.576v-.1H414.99v-2.006H300.577z"/><path class="st164" d="M299.75 340.53h115.24v2.007H299.75z"/><path class="st0" d="M300.576 344.63H415.09v2.205H300.576v-.1H414.99v-2.006H300.577z"/><path class="st165" d="M299.75 344.73h115.24v2.006H299.75z"/><path class="st0" d="M300.576 348.83H415.09v2.206H300.576v-.1H414.99v-2.006H300.577z"/><path class="st166" d="M299.75 348.93h115.24v2.006H299.75z"/><path class="st0" d="M300.576 353.03H415.09v2.204H300.576v-.1H414.99v-2.006H300.577z"/><path class="st167" d="M299.75 353.13h115.24v2.006H299.75z"/><path class="st0" d="M300.576 357.23H415.09v2.202H300.576v-.1H414.99v-2.003H300.577z"/><path class="st168" d="M299.75 357.328h115.24v2.006H299.75z"/><path class="st0" d="M300.576 361.428H415.09v2.205H300.576v-.1H414.99v-2.006H300.577z"/><path class="st169" d="M299.75 361.528h115.24v2.006H299.75z"/><path class="st0" d="M413.344 367.758l.218-.09h-2.112l.09.09h1.804zm-3.53 0l.22-.09h-2.11l.09.09h1.8zm-3.526 0l.22-.09h-2.11l.09.09h1.8zm-3.526 0l.218-.09h-2.11l.092.09h1.8zm-3.526 0l.218-.09h-2.11l.092.09h1.8zm-3.527 0l.21-.09h-2.11l.09.09h1.8zm-3.53 0l.22-.09h-2.11l.09.09h1.8zm-3.53 0l.22-.09h-2.11l.09.09h1.79zm-3.53 0l.22-.09h-2.11l.09.09h1.79zm-3.53 0l.22-.09h-2.11l.09.09h1.79zm-3.53 0l.22-.09h-2.11l.09.09h1.79zm-3.53 0l.22-.09h-2.1l.09.09h1.79zm-3.53 0l.22-.09h-2.1l.09.09H371zm-3.53 0l.22-.09h-2.1l.09.09h1.79zm-3.53 0l.21-.09h-2.1l.09.09h1.79zm-3.53 0l.22-.09h-2.1l.09.09h1.79zm-3.53 0l.22-.09H355l.095.09h1.79zm-3.52 0l.22-.09h-2.1l.09.09h1.79zm-3.53 0l.21-.09h-2.1l.09.09h1.79zm-3.53 0l.22-.09h-2.1l.09.09h1.79zm-3.53 0l.22-.09h-2.1l.09.09h1.79zm-3.53 0l.22-.09h-2.1l.09.09h1.79zm-3.53 0l.22-.09h-2.1l.09.09h1.79zm-3.53 0l.22-.09h-2.1l.09.09h1.78zm-3.53 0l.22-.09h-2.09l.09.09h1.78zm-3.53 0l.22-.09h-2.1l.09.09h1.78zm-3.53 0l.22-.09h-2.1l.09.09h1.78zm-3.53 0l.22-.09h-2.09l.09.09h1.78zm-3.53 0l.22-.09h-2.1l.09.09h1.78zm-3.53 0l.22-.09h-2.1l.09.09H311zm-3.53 0l.22-.09h-2.09l.09.09h1.78zm-3.53 0l.23-.09h-2.09l.09.09h1.8zm-3.43-2.13v.09H415v1.95l.09.09v-2.13H300.576z"/><path class="st1" d="M299.75 365.727h115.24v1.932H299.75z"/><path class="st0" d="M300.576 256.543h.1v-2.194h-.1v2.19zm0 4.198h.1v-2.19h-.1v2.2zm0 4.2h.1v-2.19h-.1v2.19zm0 4.2h.1v-2.19h-.1v2.2zm0 4.2h.1v-2.19h-.1v2.2zm0 4.2h.1v-2.19h-.1v2.2zm0 4.2h.1v-2.19h-.1v2.19zm0 4.2h.1v-2.19h-.1v2.2zm0 4.2h.1v-2.19h-.1v2.2zm0 4.2h.1v-2.19h-.1v2.2zm0 4.2h.1v-2.19h-.1v2.2zm0 4.2h.1v-2.19h-.1v2.2zm0 4.2h.1v-2.19h-.1v2.2zm0 4.2h.1v-2.19h-.1v2.2zm0 4.2h.1v-2.19h-.1v2.2zm.1 2.01h-.1v2.2l.1-.1v-2.09zm0 4.3l-.1-.1v2.2l.1-.1v-1.99zm0 4.2l-.1-.09v2.19l.1-.1v-1.99zm0 4.2l-.1-.1v2.2l.1-.1v-1.99zm0 4.2l-.1-.1v2.2l.1-.1v-1.99zm0 4.2l-.1-.09v2.2l.1-.1v-1.99zm0 4.21l-.1-.1v2.19l.1-.1v-1.99zm0 4.2l-.1-.1v2.2l.1-.1v-1.99zm0 4.2l-.1-.1v2.19l.1-.1v-1.99zm0 4.2l-.1-.1v2.2l.1-.1v-1.99zm0 4.2l-.1-.1v2.2l.1-.1v-1.99zm0 4.2l-.1-.1v2.2l.1-.1v-1.99zm-1.206 5.26l.1-.1V253.95l-.1.096V368.89z"/><path class="st170" d="M300.513 252.903l.162-.156v.068l-.088.088zm.06 115.057l-1.086 1.053h-.017v-.124l.1-.1 1.006-.98v-.01z"/><path class="st171" d="M300.675 252.92v1.43h-.1v-1.37l.063-.06z"/><path class="st172" d="M300.576 256.543h.1v2.004h-.1z"/><path class="st173" d="M300.576 260.74h.1v2.008h-.1z"/><path class="st174" d="M300.576 264.94h.1v2.006h-.1z"/><path class="st175" d="M300.576 269.14h.1v2.004h-.1z"/><path class="st176" d="M300.576 273.34h.1v2.005h-.1z"/><path class="st177" d="M300.576 277.54h.1v2.006h-.1z"/><path class="st178" d="M300.576 281.737h.1v2.007h-.1z"/><path class="st179" d="M300.576 285.938h.1v2.004h-.1z"/><path class="st180" d="M300.576 290.136h.1v2.007h-.1z"/><path class="st181" d="M300.576 294.337h.1v2.004h-.1z"/><path class="st182" d="M300.576 298.535h.1v2.007h-.1z"/><path class="st183" d="M300.576 302.737h.1v2.004h-.1z"/><path class="st184" d="M300.576 306.934h.1v2.007h-.1z"/><path class="st185" d="M300.576 311.136h.1v2.004h-.1z"/><path class="st186" d="M300.576 315.334h.1v2.007h-.1z"/><path class="st187" d="M299.57 253.88v114.915l1.006-.975V252.918z"/><path class="st0" d="M295.51 372.746l.1-.096V257.765l-.1.096v114.89zm1.205-116.047l-.1.09v114.88l.1-.1V256.7z"/><path class="st188" d="M296.715 371.573v.15l-1.188 1.15h-.017v-.127l.1-.096v.006l1.006-.975v-.01z"/><path class="st189" d="M295.61 257.7v114.956l1.006-.975V256.74z"/><path class="st0" d="M291.304 376.845l.1-.096V261.81l-.1.097v114.93zm1.204-116.093l-.1.097v114.91l.1-.1V260.75z"/><path class="st190" d="M292.508 375.672v.153l-1.19 1.148h-.014v-.128l.1-.096 1.005-.98v-.02z"/><path class="st191" d="M291.403 261.76v114.995l1.006-.973v-114.99z"/><path class="st0" d="M287.097 380.944l.1-.096V265.872l-.1.096v114.976zm1.205-116.138l-.1.096v114.965l.1-.096V264.81z"/><path class="st192" d="M288.302 379.77v.157l-1.19 1.148h-.015v-.13l.1-.097v.008l1.006-.972v-.017z"/><path class="st193" d="M287.196 265.815v115.04l1.007-.97V264.85z"/><path class="st0" d="M282.89 384.85l.1.1V269.925l-.1.097V384.85zm1.205-115.99l-.1.096v115.01l.1-.235V268.86z"/><path class="st194" d="M282.99 269.874v115.084l1.006-.975V268.91z"/><path class="st0" d="M278.684 388.95l.1.1V273.98l-.1.095V388.95zm1.202-116.037l-.1.096v115.06l.1-.24V272.91z"/><path class="st195" d="M278.783 273.934V389.06l1.004-.975V272.967z"/><path class="st0" d="M274.477 393.048l.1.1V278.03l-.1.097v114.918zm1.202-116.08l-.1.095V392.17l.1-.236V276.967z"/><path class="st196" d="M274.576 277.99v115.172l1.004-.976v-115.16z"/><path class="st0" d="M270.268 397.15l.1.1V282.09l-.1.095V397.15zm1.205-116.13l-.1.097v115.15l.1-.234V281.02z"/><path class="st197" d="M270.367 282.052v115.21l1.006-.974V281.085z"/><path class="st0" d="M266.06 401.25l.1.098V286.142l-.1.236v114.87zm1.206-115.98l-.1-.1v115.197l.1-.235V285.27z"/><path class="st198" d="M266.16 286.108v115.254l1.007-.975V285.145z"/><path class="st0" d="M261.855 405.543l.1-.096V290.193l-.1.235v115.115zm1.2-116.217l-.098-.1V404.47l.1-.236V289.326z"/><path class="st199" d="M261.954 290.168v115.296l1.003-.972v-115.29z"/><path class="st0" d="M257.648 409.645l.1-.096V294.24l-.1.235V409.64zm1.202-116.266l-.1-.1v115.29l.1-.24V293.38z"/><path class="st200" d="M257.747 294.227v115.34l1.004-.976V293.26z"/><path class="st0" d="M253.438 413.747l.1-.097V298.303l-.1.235v115.21zm1.205-116.314l-.1-.1V412.67l.1-.236v-115z"/><path class="st201" d="M253.538 298.283v115.384l1.006-.975V297.32z"/><path class="st0" d="M249.232 417.846l.1-.097v-115.4l-.1.09v115.4zm1.205-116.555l-.1.1v115.38l.1-.23V301.29z"/><path class="st202" d="M249.33 302.342V417.77l1.007-.976V301.38z"/><path class="st0" d="M245.022 421.947l.1-.096V306.42l-.1.096V421.95zm1.205-116.6l-.1.097V420.87l.1-.235V305.347z"/><path class="st203" d="M245.122 306.402v115.47l1.006-.976v-115.46z"/><path class="st0" d="M241.045 425.98h-.16l.007-.007h-.076v.215h.014l.215-.207zm-.23-3.973l.092.09v-1.85l-.09.09v1.67zm0-2.866l.092.1v-1.85l-.09.09v1.68zm0-2.86l.092.09v-1.85l-.09.09v1.67zm0-2.86l.092.09v-1.85l-.09.09v1.68zm0-2.86l.092.09v-1.85l-.09.09v1.68zm0-2.87l.092.09v-1.85l-.09.09v1.67zm0-2.86l.092.09v-1.85l-.09.09v1.67zm0-2.87l.092.09v-1.85l-.09.09v1.67zm0-2.86l.092.09v-1.85l-.09.09v1.67zm0-2.86l.092.09v-1.85l-.09.09v1.68zm0-2.87l.092.09v-1.85l-.09.09v1.67zm0-2.86l.092.09v-1.85l-.09.09v1.67zm0-2.86l.092.09v-1.85l-.09.09v1.67zm0-2.87l.092.09V383l-.09.09v1.67zm0-2.87l.092.09v-1.85l-.09.09v1.67zm0-2.86l.092.09v-1.85l-.09.09v1.67zm0-2.87l.092.09v-1.86l-.09.09v1.68zm0-2.87l.092.09v-1.85l-.09.09v1.67zm0-2.87l.092.09v-1.85l-.09.09v1.67zm0-2.86l.092.09v-1.86l-.09.09v1.68zm0-2.87l.092.09v-1.85l-.09.09v1.67zm0-2.87l.092.09v-1.85l-.09.09v1.67zm0-2.86l.092.09v-1.85l-.09.09v1.67zm0-2.86l.092.09v-1.86l-.09.09v1.68zm0-2.86l.092.09v-1.86l-.09.09v1.68zm0-2.87l.092.09v-1.85l-.09.09v1.67zm0-2.87l.092.09v-1.86l-.09.09v1.68zm0-2.87l.092.09v-1.85l-.09.09v1.67zm0-2.86l.092.09V340l-.09.09v1.67zm0-2.87l.092.09v-1.86l-.09.09v1.67zm0-2.87l.092.09v-1.85l-.09.09V336zm0-2.87l.092.09v-1.85l-.09.09v1.68zm0-2.86l.092.09v-1.85l-.09.09v1.67zm0-2.87l.092.09v-1.85l-.09.09v1.67zm0-2.86l.092.09v-1.85l-.09.09v1.68zm0-2.87l.092.1v-1.85l-.09.09v1.67zm0-2.86l.092.09v-1.85l-.09.09v1.68zm0-2.87l.092.09v-1.85l-.09.09V316zm0-2.87l.092.09v-1.85l-.09.09v1.68zm1.206-3.66l-.09.09V425l.09-.22V309.4zm-1.2 115.48l.09.09v-1.85l-.09.09v1.67z"/><path class="st204" d="M240.915 310.46v115.51l1.006-.972V309.494z"/><path class="st205" d="M240.915 404.798h.1v1.208h-.1z"/><path class="st206" d="M240.915 401.93h.1v1.207h-.1zm0-2.867h.1v1.208h-.1z"/><path class="st207" d="M240.915 396.198h.1v1.208h-.1z"/><path class="st208" d="M240.915 393.33h.1v1.207h-.1z"/><path class="st209" d="M240.915 390.463h.1v1.208h-.1z"/><path class="st210" d="M240.915 387.597h.1v1.205h-.1z"/><path class="st211" d="M240.915 384.73h.1v1.207h-.1zm0-2.87h.1v1.208h-.1z"/><path class="st212" d="M240.915 378.994h.1v1.208h-.1z"/><path class="st213" d="M240.915 376.128h.1v1.208h-.1z"/><path class="st214" d="M240.915 373.26h.1v1.208h-.1z"/><path class="st215" d="M240.915 370.394h.1v1.208h-.1z"/><path class="st216" d="M240.915 367.528h.1v1.205h-.1zm0-2.868h.1v1.207h-.1z"/><path class="st217" d="M240.915 361.79h.1V363h-.1z"/><path class="st218" d="M240.915 358.925h.1v1.208h-.1z"/><path class="st219" d="M240.915 356.06h.1v1.207h-.1z"/><path class="st220" d="M240.915 353.193h.1v1.205h-.1z"/><path class="st221" d="M240.915 350.324h.1v1.208h-.1z"/><path class="st222" d="M240.915 347.46h.1v1.207h-.1z"/><path class="st223" d="M240.915 344.59h.1v1.208h-.1z"/><g class="st0"><defs><path id="SVGID_7_" d="M299.47 254.185l.1-.236-2.954 2.84h.142l2.712-2.62zM295.51 258l.1-.235-3.2 3.084h.14l2.96-2.85zm-4.206 4.054l.1-.236-3.2 3.084.14.003 2.96-2.85zm-4.207 4.053l.1-.235-3.2 3.084.138.003 2.962-2.86zm-4.207 4.054l.1-.23-3.203 3.09.138.01 2.965-2.85zm-4.206 4.05l.1-.23-3.204 3.09.14.01 2.964-2.86zm-4.207 4.06l.1-.23-3.204 3.09h.142l2.962-2.85zm-4.21 4.06l.1-.23-3.2 3.09.14.01 2.96-2.85zm-4.206 4.06l.1-.23-3.2 3.09.14.01 2.96-2.85zm-4.2 4.06l.1-.23-3.2 3.09.14.01 2.97-2.85zm-4.2 4.06l.1-.23-3.2 3.09.14.01 2.97-2.85zm-4.21 4.06l.1-.24-3.2 3.09h.14l2.97-2.85zm-4.2 4.05l.1-.23-3.2 3.09h.14l2.96-2.86zm-4.21 4.06l.1-.23-3.2 3.08h.14l2.97-2.85zm50.58-53.71l-.01-.01h-.12l-59.02 57.35h.14l59.01-57.34zm-55.27 57.34h.15l59.28-57.36h-.14l-59.28 57.36zm50.29-57.34h-.14l-58.95 57.34h.14l58.95-57.34zM235.6 310.3h.14l59.02-57.35h-.14L235.6 310.3zm50.04-57.34h-.14l-58.87 57.34.24-.1 58.77-57.24zm-54.95 57.34h.14l58.95-57.345h-.14L230.69 310.3zm49.96-57.334h-.14l-58.8 57.326.243-.1 58.693-57.237zM225.77 310.3h.14l58.88-57.34h-.14l-58.875 57.34zm49.89-57.33h-.14l-58.72 57.32.245-.1 58.62-57.22zm-54.8 57.32h.14l58.795-57.33h-.14l-58.8 57.34zm49.813-57.32h-.14l-58.653 57.32.244-.1 58.55-57.22zm-54.73 57.33h.14l58.72-57.326h-.14L215.94 310.3zm49.74-57.315h-.143L206.96 310.3l.24-.1 58.48-57.215zM211 310.277h.143l58.652-57.325h-.142L211 310.278zm49.667-57.31h-.142l-58.5 57.31.243-.1 58.4-57.21zm-54.584 57.31h.142L264.8 252.96h-.142l-58.575 57.317zm49.598-57.31h-.14l-58.43 57.305.25-.1 58.33-57.207zm-54.51 57.305h.14l58.51-57.31h-.14l-58.5 57.31zm49.52-57.302h-.14l-58.36 57.3.25-.1 58.26-57.21zm-54.44 57.3h.14l58.44-57.31h-.14l-58.43 57.31zm49.45-57.3h-.14l-58.29 57.3.25-.1 58.18-57.198zm-54.37 57.292h.14l58.36-57.303h-.14l-58.36 57.3zm49.37-57.29h-.14l-58.21 57.29.25-.1 58.11-57.19zm-54.28 57.29h.14l58.28-57.294h-.14l-58.28 57.3zm49.3-57.286h-.14l-58.14 57.28.25-.1 58.04-57.18zm-54.21 57.28h.14l58.21-57.29h-.14l-58.21 57.29zm49.22-57.28h-.13l-58.07 57.28.25-.1 57.96-57.18zM176.6 310.26h.14l58.137-57.287h-.143l-58.14 57.29zm49.14-57.27h-.14l-58 57.28.245-.1L225.728 253zm-54.067 57.274h.14l58.068-57.28h-.14l-58.06 57.28zM220.74 253h-.14l-57.92 57.27.24-.096L220.74 253zm-53.996 57.27h.14l57.99-57.27h-.14l-57.99 57.275zm49.005-57.262h-.14l-57.85 57.262.23-.097 57.75-57.167zm-53.93 57.262h.14L219.88 253h-.14l-57.92 57.27zm48.93-57.257h-.14l-57.77 57.256.24-.1 57.67-57.16zM156.9 310.27h.14l57.85-57.264h-.14l-57.85 57.27zm48.86-57.25h-.14l-57.7 57.25.24-.1 57.6-57.15zm-53.77 57.25h.144l57.77-57.255h-.14l-57.776 57.257zm48.786-57.247h-.14L143.01 310.27l.24-.1 57.526-57.145zm-53.703 57.248h.14l57.705-57.25h-.14l-57.703 57.26zm48.714-57.24h-.14l-57.55 57.24.236-.1 57.456-57.14zm-53.63 57.24h.143l57.626-57.24h-.144l-57.627 57.25zm48.64-57.23h-.14l-57.48 57.24.24-.1 57.38-57.13zm-53.55 57.24h.14l57.55-57.24h-.14l-57.55 57.24zm48.555-57.23h-.14l-57.403 57.23.24-.1 57.3-57.13zm-53.475 57.23h.14l57.48-57.23h-.14l-57.48 57.24zm-4.657.12v-.11h.03l10.42-10.53 46.833-46.69h-.14l-46.765 46.62-10.582 10.71v.02h.21z"/></defs><clipPath id="SVGID_8_"><use xlink:href="#SVGID_7_" overflow="visible"/></clipPath><path class="st224" d="M185.084 252.903l-46.98 46.837-10.436 10.554h.56l57.565-57.39zm4.986 0l-57.63 57.39h.707l57.632-57.39zm4.986 0l-57.7 57.39h.71l57.702-57.39zm4.986 0l-57.767 57.39h.71l57.766-57.39zm4.986 0l-57.838 57.39h.712l57.835-57.39zm4.987 0l-57.907 57.39h.712l57.903-57.39zm4.983 0l-57.97 57.39h.71l57.974-57.39zm4.986 0l-58.04 57.39h.712l58.04-57.39zm4.986 0l-58.107 57.39h.714l58.105-57.39zm4.986 0l-58.175 57.39h.72l58.18-57.39zm4.986 0l-58.243 57.39h.71l58.24-57.39zm4.988 0l-58.313 57.39h.712l58.31-57.39zm4.982 0l-58.377 57.39h.712l58.38-57.39zm4.986 0l-58.448 57.39h.715l58.447-57.39zm4.986 0l-58.515 57.39h.71l58.51-57.39zm4.986 0l-58.583 57.39h.717l58.58-57.39zm4.984 0l-58.65 57.39h.715l58.65-57.39zm4.99 0l-58.72 57.39h.713l58.72-57.39zm4.982 0l-58.785 57.39h.72l58.79-57.39zm4.986 0l-58.853 57.39h.71l58.85-57.39zm4.986 0l-58.924 57.39h.718l58.923-57.39zm4.986 0l-58.99 57.39h.72l58.987-57.39zm4.986 0l-59.06 57.39h.72l59.058-57.39zm4.998 0l-59.31 57.39h.636l59.558-57.39z"/></g><path class="st108" d="M185.084 252.903l-46.98 46.837-10.436 10.554h.56l57.565-57.39z"/><path class="st225" d="M190.07 252.903l-57.63 57.39h.707l57.632-57.39z"/><path class="st226" d="M195.056 252.903l-57.7 57.39h.71l57.702-57.39z"/><path class="st227" d="M200.042 252.903l-57.767 57.39h.71l57.766-57.39z"/><path class="st228" d="M205.028 252.903l-57.838 57.39h.712l57.835-57.39z"/><path class="st229" d="M210.015 252.903l-57.907 57.39h.712l57.903-57.39z"/><path class="st230" d="M214.998 252.903l-57.97 57.39h.71l57.974-57.39z"/><path class="st231" d="M219.984 252.903l-58.04 57.39h.712l58.04-57.39z"/><path class="st232" d="M224.97 252.903l-58.107 57.39h.714l58.105-57.39z"/><path class="st233" d="M229.956 252.903l-58.175 57.39h.72l58.18-57.39z"/><path class="st234" d="M234.942 252.903l-58.243 57.39h.71l58.24-57.39z"/><path class="st235" d="M239.93 252.903l-58.313 57.39h.712l58.31-57.39z"/><path class="st236" d="M244.912 252.903l-58.377 57.39h.712l58.38-57.39z"/><path class="st237" d="M249.898 252.903l-58.448 57.39h.715l58.447-57.39z"/><path class="st238" d="M254.884 252.903l-58.515 57.39h.71l58.51-57.39z"/><path class="st239" d="M259.87 252.903l-58.583 57.39h.717l58.58-57.39z"/><path class="st240" d="M264.854 252.903l-58.65 57.39h.715l58.65-57.39z"/><path class="st241" d="M269.843 252.903l-58.72 57.39h.714l58.72-57.39z"/><path class="st242" d="M274.826 252.903l-58.785 57.39h.72l58.79-57.39z"/><path class="st243" d="M279.812 252.903l-58.853 57.39h.71l58.85-57.39z"/><path class="st244" d="M284.798 252.903l-58.924 57.39h.718l58.923-57.39z"/><path class="st245" d="M289.784 252.903l-58.99 57.39h.72l58.987-57.39z"/><path class="st246" d="M294.77 252.903l-59.06 57.39h.72l59.058-57.39z"/><path class="st247" d="M299.768 252.903l-59.31 57.39h.636l59.558-57.39z"/><path class="st42" d="M240.57 310.186l-.11.108h.63l-.098-.1h-.295l.008-.008h-.136zm-4.75 0l-.11.108h.72l.11-.108h-.14l-.01.008h-.44l.007-.008h-.136zm-4.917 0l-.11.108h.72l.11-.108h-.142v.008h-.44l.01-.008h-.13zm-4.918 0l-.11.108h.717l.11-.108h-.142l-.008.008h-.44l.01-.008h-.137zm-4.915 0l-.11.108h.716l.11-.108h-.14l-.01.008h-.44l.01-.008h-.136zm-4.918 0l-.11.108h.716l.11-.108h-.14l-.01.008h-.44l.01-.008h-.136zm-4.92 0l-.11.108h.715l.11-.108h-.14l-.01.008h-.436l.01-.008h-.13zm-4.917 0l-.11.108h.714l.11-.108h-.15l-.01.008h-.44l.01-.008h-.14zm-4.918 0l-.11.108h.717l.11-.108h-.14l-.01.008h-.44l.01-.008h-.137zm-4.918 0l-.11.108h.71l.11-.108h-.14l-.01.008h-.44l.01-.008h-.14zm-4.93 0l-.11.108h.71l.11-.108h-.14l-.01.008h-.44v-.008h-.14zm-4.92 0l-.11.108h.71l.11-.108h-.14l-.01.008h-.44l.01-.008h-.14zm-58.95.076l-.03.032h.56l.11-.108h-.14l-.01.008h-.42l-.04.043-.03.025zm4.84-.076l-.11.108h.7l.1-.108h-.14l-.01.008h-.43l.01-.008h-.14zm4.92 0l-.11.108h.71l.1-.108H138l-.006.008h-.43l.01-.008h-.14zm4.91 0l-.11.108h.71l.1-.108h-.14l-.01.008h-.44l.01-.008h-.14zm4.91 0l-.11.108h.71l.1-.108h-.14l-.01.008h-.44l.01-.008h-.14zm4.92 0l-.11.108h.71l.1-.108h-.14l-.01.008h-.44l.01-.008h-.14zm4.92 0l-.11.108h.71l.11-.108h-.14l-.01.008h-.44l.01-.008h-.14zm4.92 0l-.11.108h.71l.1-.108h-.14l-.01.008h-.43v-.008H162zm4.91 0l-.11.108h.71l.11-.108h-.14l-.01.008h-.44l.01-.008h-.14zm4.92 0l-.11.108h.71l.11-.108h-.14l-.01.008H172l.01-.008h-.14zm4.92 0l-.11.108h.71l.1-.108h-.14l-.01.008h-.44l.01-.008h-.14zm4.92 0l-.11.108h.71l.1-.108h-.14l-.01.008h-.44l.01-.008h-.14z"/><path class="st170" d="M299.47 254.046v-.14l1.043-1.003h.142z"/><path class="st188" d="M295.51 257.86v-.138l1.205-1.16v.137z"/><path class="st0" d="M242.417 81.183h-.017l-.224.216h.14v-.02h.1v-.2zm0 2.053l-.1-.1v1.08l.1-.1v-.88zm0 2.837l-.1-.1v1.078l.1-.09v-.88zm0 2.832l-.1-.1v1.08l.1-.1v-.88zm0 2.837l-.1-.1v1.078l.1-.1v-.878zm0 2.835l-.1-.1v1.078l.1-.1v-.878zm0 2.832l-.1-.1v1.08l.1-.1v-.88zm0 2.83l-.1-.1v1.08l.1-.1v-.88zm0 2.83l-.1-.1v1.08l.1-.1v-.88zm0 2.83l-.1-.1v1.08l.1-.1v-.88zm0 2.83l-.1-.1v1.08l.1-.1v-.89zm0 2.83l-.1-.1v1.08l.1-.1v-.89zm0 2.83l-.1-.1v1.08l.1-.1v-.88zm0 2.83l-.1-.1v1.08l.1-.1v-.88zm0 2.83l-.1-.1v1.08l.1-.1v-.89zm0 2.83l-.1-.1v1.08l.1-.1v-.88zm0 2.84l-.1-.1v1.08l.1-.1v-.88zm0 2.83l-.1-.1v1.08l.1-.1v-.88zm0 2.83l-.1-.1v1.07l.1-.1v-.88zm0 2.83l-.1-.1v1.08l.1-.1v-.88zm0 2.83l-.1-.1v1.07l.1-.1v-.88zm0 2.83l-.1-.1v1.07l.1-.1v-.88zm0 2.83l-.1-.1v1.08l.1-.1v-.88zm0 2.83l-.1-.1v1.08l.1-.1v-.88zm0 2.84l-.1-.1v1.08l.1-.1v-.88zm0 2.83l-.1-.1v1.08l.1-.1v-.88zm0 2.83l-.1-.1v1.08l.1-.1v-.88zm0 2.84l-.1-.1v1.08l.1-.1v-.88zm0 2.83l-.1-.1v1.08l.1-.1v-.88zm0 2.83l-.1-.1v1.08l.1-.1v-.88zm0 2.83l-.1-.1v1.08l.1-.1v-.88zm0 2.84l-.1-.1v1.08l.1-.1v-.887zm0 2.83l-.1-.1v1.08l.1-.1v-.88zm0 2.832l-.1-.1v1.08l.1-.1v-.88zm0 2.83l-.1-.1v1.08l.1-.1v-.88zm0 2.84l-.1-.1v1.08l.1-.1v-.88zm0 2.84l-.1-.1v1.08l.1-.1v-.88zm0 2.83l-.1-.1v1.08l.1-.1v-.88zm0 2.84l-.1-.1v1.08l.1-.1v-.88zm0 2.84l-.1-.1v1.08l.1-.1v-.88zm0 2.835l-.1-.1v1.08l.1-.1v-.88zm-.694 3.26l.136-.06h-.04V81.89l-.1.238v114.92z"/><path class="st107" d="M241.822 81.886v115.107h.08l.416-.408V81.402z"/><path class="st0" d="M239.237 199.547l.1-.097V84.36l-.1.24v114.947zm.697-115.583l-.1-.1v115.1l.1-.236V83.964z"/><path class="st248" d="M239.336 84.338v115.135h.014l.485-.473V83.854z"/><path class="st0" d="M236.754 201.965l.1-.097V86.828l-.1.237v114.9zm.694-115.53l-.1-.098v115.047l.1-.236V86.436z"/><path class="st249" d="M236.853 86.79v115.107l.496-.48V86.304z"/><path class="st0" d="M234.268 204.386l.1-.097v-115l-.1.23v114.86zm.694-115.48l-.1-.1v114.998l.1-.235V88.9z"/><path class="st250" d="M234.367 89.24v115.075l.496-.48V88.755z"/><path class="st0" d="M231.782 206.806l.1-.096V91.765l-.1.238v114.803zm.697-115.435l-.1-.09v114.95l.1-.23V91.37z"/><path class="st251" d="M231.88 91.69v115.045l.5-.48V91.205z"/><path class="st0" d="M229.3 209.224l.098-.096V94.23l-.1.24v114.754zm.693-115.384l-.1-.1v114.903l.1-.235V93.84z"/><path class="st252" d="M229.398 94.143V209.15l.496-.478V93.656z"/><path class="st0" d="M226.813 211.645l.1-.096V96.7l-.1.238v114.707zm.694-115.336l-.1-.1v114.85l.1-.24V96.31z"/><path class="st253" d="M226.912 96.595V211.57l.496-.48V96.107z"/><path class="st0" d="M224.327 214.066l.1-.097V99.17l-.1.237v114.66zm.697-115.29l-.1-.1v114.806l.1-.235V98.775z"/><path class="st254" d="M224.426 99.044V213.99l.5-.483V98.56z"/><path class="st0" d="M221.844 216.484l.1-.097v-114.75l-.1.24v114.607zm.694-115.24l-.1-.1v114.76l.1-.237V101.244z"/><path class="st255" d="M221.943 101.496v114.908l.496-.48V101.01z"/><path class="st0" d="M219.358 218.71l.1.098v-114.7l-.1.237V218.71zm.694-114.994l-.1-.1v114.708l.1-.236V103.716z"/><path class="st256" d="M219.457 103.948v114.874l.496-.48v-114.88z"/><path class="st0" d="M216.872 221.13l.1.1V106.575l-.1.238V221.13zm.697-114.948l-.1-.1v114.66l.1-.236V106.182z"/><path class="st257" d="M216.97 106.398V221.24l.5-.48V105.914z"/><path class="st0" d="M214.388 223.548l.1.1V109.04l-.1.238v114.268zm.695-114.897l-.1-.09v114.61l.1-.23V108.65z"/><path class="st258" d="M214.488 108.85v114.808l.496-.48V108.366z"/><path class="st0" d="M211.902 225.97l.1.098V111.51l-.1.24v114.22zm.698-114.853l-.1-.1V225.58l.1-.235V111.117z"/><path class="st259" d="M212.002 111.3v114.776l.5-.48v-114.78z"/><path class="st0" d="M209.416 228.39l.1.1V113.98l-.1.238v114.17zm.698-114.804l-.1-.1V228l.1-.233v-114.18z"/><path class="st260" d="M209.516 113.753v114.74l.5-.478v-114.75z"/><path class="st0" d="M206.933 230.807l.1.1v-114.46l-.1.237v114.123zm.695-114.752l-.1-.1v114.467l.1-.236v-114.13z"/><path class="st261" d="M207.033 116.203v114.71l.496-.48V115.718z"/><path class="st0" d="M204.447 233.228l.1.1v-114.41l-.1.238v114.072zm.698-114.707l-.1-.09v114.41l.1-.23V118.52z"/><path class="st262" d="M204.547 118.655v114.672l.498-.48v-114.68z"/><path class="st0" d="M201.96 235.65l.1.098v-114.36l-.1.237V235.65zm.7-114.657l-.1-.1V235.26l.1-.234V120.993z"/><path class="st263" d="M202.06 121.106v114.642l.5-.482V120.62z"/><path class="st0" d="M199.478 238.064l.1.1v-114.31l-.1.237v113.98zm.697-114.605l-.1-.1v114.31l.1-.24V123.46z"/><path class="st264" d="M199.577 123.556v114.607l.5-.48v-114.61z"/><path class="st0" d="M196.992 240.482l.1.1V126.32l-.1.238V240.48zm.698-114.554l-.1-.1V240.1l.1-.234V125.928z"/><path class="st265" d="M197.09 126.008V240.58l.5-.478V125.52z"/><path class="st0" d="M194.506 242.903l.1.1V128.79l-.1.24v113.873zm.698-114.506l-.1-.1V242.52l.1-.235V128.397z"/><path class="st266" d="M194.605 128.46v114.542l.5-.482V127.972z"/><path class="st0" d="M192.718 130.866v113.978l-.695.675V131.49l.1-.238v114.16l.495-.48v-114.17z"/><path class="st267" d="M192.122 130.91v114.507l.496-.48V130.425z"/><path class="st0" d="M190.234 133.332v113.93l-.697.678V133.964l.1-.238v114.11l.498-.48V133.233z"/><path class="st268" d="M189.636 133.36v114.475l.5-.48v-114.48z"/><path class="st0" d="M187.748 135.8v113.883l-.697.68V136.437l.1-.238v114.05l.5-.48V135.7z"/><path class="st269" d="M187.15 135.813v114.44l.5-.48V135.33z"/><path class="st0" d="M184.574 247.747l.093.094v-3.19l-.093.1v3.01zm0-4.198l.093.09v-3.2l-.093.09v3.01zm0-4.21l.093.09v-3.19l-.093.09v3zm0-4.2l.093.09v-3.2l-.093.09v3zm0-4.2l.093.09v-3.2l-.093.09v3.01zm0-4.2l.093.09v-3.2l-.093.09v3zm0-4.2l.093.09v-3.19l-.093.09v3zm0-4.2l.093.09v-3.19l-.093.09v3zm0-4.2l.093.09v-3.2l-.093.09v3.01zm0-4.2l.093.09v-3.2l-.093.09v3zm0-4.2l.093.09v-3.19l-.093.09v3zm0-4.2l.093.09v-3.2l-.093.09v3.01zm0-4.2l.093.09v-3.2l-.093.09v3zm0-4.2l.093.09v-3.2l-.093.09v3zm0-4.2l.093.09v-3.2l-.093.09v3zm0-4.2l.093.09v-3.2l-.093.09v3zm0-4.2l.093.09v-3.2l-.093.09v3.01zm0-4.2l.093.09v-3.2l-.093.09v3.01zm0-4.2l.093.09v-3.2l-.093.09v3zm0-4.2l.093.09v-3.2l-.093.09v3.01zm0-4.2l.093.09v-3.2l-.093.09v3zm0-4.2l.093.09v-3.2l-.093.09v3zm0-4.2l.093.09v-3.19l-.093.09v3zm0-4.2l.093.09v-3.19l-.093.09v3zm0-4.2l.093.09v-3.2l-.093.09v3zm0-4.2l.093.09v-3.2h-.093v3.1zm.694-4.49l-.105-.11v114.03l.105-.25V138.27zm-.694 113.67l.093.09v-3.2l-.093.09v3z"/><path class="st270" d="M184.667 138.262v114.41l.496-.48V137.777z"/><path class="st0" d="M184.755 253.048v.08H70.295v-1.17h114.372v.072H70.37v1.024h114.31v-.006z"/><path class="st110" d="M184.747 252.606v.44h-.074v-.37z"/><path class="st271" d="M184.667 251.965h.08v.63l-.074.07v-.626h-.006z"/><path class="st272" d="M70.376 252.04h114.297v1.006H70.376z"/><path class="st0" d="M184.667 248.92H70.303v-1.153h114.364v.074H70.377v1.01h114.29z"/><path class="st273" d="M184.667 247.767h.08v1.154h-.08v-.07h.006v-1h-.006z"/><path class="st274" d="M70.376 247.84h114.297v1.008H70.376z"/><path class="st0" d="M184.667 244.723H70.303v-1.154h114.364v.07H70.377v1h114.29z"/><path class="st275" d="M184.667 243.57h.08v1.153h-.08v-.074h.006v-1.01h-.006z"/><path class="st276" d="M70.376 243.642h114.297v1.006H70.376z"/><path class="st0" d="M184.667 240.522H70.303v-1.154h114.364v.074H70.377v1.006h114.29z"/><path class="st277" d="M184.667 239.368h.08v1.154h-.08v-.074h.006v-1.006h-.006z"/><path class="st278" d="M70.376 239.442h114.297v1.006H70.376z"/><path class="st0" d="M184.667 236.324H70.303v-1.154h114.364v.074H70.377v1.006h114.29z"/><path class="st279" d="M184.667 235.17h.08v1.154h-.08v-.074h.006v-1.006h-.006z"/><path class="st280" d="M70.376 235.243h114.297v1.007H70.376z"/><path class="st0" d="M184.667 232.123H70.303v-1.154h114.364v.07H70.377v1h114.29z"/><path class="st281" d="M184.667 230.97h.08v1.153h-.08v-.074h.006v-1.01h-.006z"/><path class="st282" d="M70.376 231.043h114.297v1.006H70.376z"/><path class="st0" d="M184.667 227.922H70.303v-1.15h114.364v.072H70.377v1.004h114.29z"/><path class="st283" d="M184.667 226.77h.08v1.152h-.08v-.074h.006v-1.004h-.006z"/><path class="st284" d="M70.376 226.843h114.297v1.006H70.376z"/><path class="st0" d="M184.667 223.724H70.303v-1.154h114.364v.074H70.377v1.006h114.29z"/><path class="st285" d="M184.667 222.57h.08v1.154h-.08v-.074h.006v-1.006h-.006z"/><path class="st286" d="M70.376 222.643h114.297v1.007H70.376z"/><path class="st0" d="M184.667 219.525H70.303v-1.153h114.364v.073H70.377v1.007h114.29z"/><path class="st287" d="M184.667 218.372h.08v1.153h-.08v-.073h.006v-1.007h-.006z"/><path class="st288" d="M70.376 218.445h114.297v1.006H70.376z"/><path class="st0" d="M184.667 215.327H70.303v-1.153h114.364v.073H70.377v1.007h114.29z"/><path class="st289" d="M184.667 214.174h.08v1.153h-.08v-.073h.006v-1.007h-.006z"/><path class="st290" d="M70.376 214.246h114.297v1.007H70.376z"/><path class="st0" d="M184.667 211.124H70.303v-1.15h114.364v.072H70.377v1.004h114.29z"/><path class="st291" d="M184.667 209.973h.08v1.15h-.08v-.073h.006v-1.004h-.006z"/><path class="st292" d="M70.376 210.045h114.297v1.006H70.376z"/><path class="st0" d="M184.667 206.925H70.303v-1.153h114.364v.073H70.377v1.007h114.29z"/><path class="st293" d="M184.667 205.772h.08v1.153h-.08v-.073h.006v-1.007h-.006z"/><path class="st294" d="M70.376 205.846h114.297v1.006H70.376z"/><path class="st0" d="M184.667 202.727H70.303v-1.153h114.364v.073H70.377v1.007h114.29z"/><path class="st295" d="M184.667 201.574h.08v1.153h-.08v-.073h.006v-1.007h-.006z"/><path class="st296" d="M70.376 201.648h114.297v1.006H70.376z"/><path class="st0" d="M184.667 198.526H70.303v-1.15h114.364v.073H70.377v1h114.29z"/><path class="st297" d="M184.667 197.375h.08v1.15h-.08v-.072h.006v-1.004h-.006z"/><path class="st298" d="M70.376 197.448h114.297v1.006H70.376z"/><path class="st0" d="M184.667 194.328H70.303v-1.153h114.364v.073H70.377v1.007h114.29z"/><path class="st299" d="M184.667 193.175h.08v1.153h-.08v-.073h.006v-1.007h-.006z"/><path class="st300" d="M70.376 193.248h114.297v1.006H70.376z"/><path class="st0" d="M184.667 190.127H70.303v-1.153h114.364v.073H70.377v1.007h114.29z"/><path class="st301" d="M184.667 188.974h.08v1.153h-.08v-.073h.006v-1.007h-.006z"/><path class="st302" d="M70.376 189.048h114.297v1.006H70.376z"/><path class="st0" d="M184.667 185.93H70.303v-1.155h114.364v.074H70.377v1h114.29z"/><path class="st303" d="M184.667 184.775h.08v1.154h-.08v-.08h.006v-1.01h-.006z"/><path class="st304" d="M70.376 184.85h114.297v1.005H70.376z"/><path class="st0" d="M184.667 181.728H70.303v-1.15h114.364v.073H70.377v1.01h114.29z"/><path class="st305" d="M184.667 180.577h.08v1.15h-.08v-.072h.006v-1.004h-.006z"/><path class="st306" d="M70.376 180.65h114.297v1.006H70.376z"/><path class="st0" d="M184.667 177.53H70.303v-1.154h114.364v.074H70.377v1.006h114.29z"/><path class="st307" d="M184.667 176.376h.08v1.154h-.08v-.074h.006v-1.006h-.006z"/><path class="st308" d="M70.376 176.45h114.297v1.006H70.376z"/><path class="st0" d="M184.667 173.33H70.303v-1.152h114.364v.074H70.377v1.003h114.29z"/><path class="st309" d="M184.667 172.178h.08v1.15h-.08v-.073h.006v-1.003h-.006z"/><path class="st310" d="M70.376 172.25h114.297v1.007H70.376z"/><path class="st0" d="M184.667 169.13H70.303v-1.153h114.364v.074H70.377v1.01h114.29z"/><path class="st311" d="M184.667 167.977h.08v1.154h-.08v-.07h.006v-1h-.006z"/><path class="st312" d="M70.376 168.05h114.297v1.007H70.376z"/><path class="st0" d="M184.667 164.93H70.303v-1.154h114.364v.074H70.377v1.006h114.29z"/><path class="st313" d="M184.667 163.776h.08v1.154h-.08v-.074h.006v-1.006h-.006z"/><path class="st314" d="M70.376 163.85h114.297v1.007H70.376z"/><path class="st0" d="M184.667 160.732H70.303v-1.154h114.364v.074H70.377v1.006h114.29z"/><path class="st315" d="M184.667 159.578h.08v1.154h-.08v-.074h.006v-1.006h-.006z"/><path class="st316" d="M70.376 159.652h114.297v1.007H70.376z"/><path class="st0" d="M184.593 156.53H70.303v-1.153h114.29l.074.074H70.377v1.01h114.29z"/><path class="st317" d="M70.376 155.452h114.297v1.006H70.376z"/><path class="st0" d="M184.593 152.333H70.303v-1.154h114.29l.074.07H70.377v1h114.29z"/><path class="st318" d="M70.376 151.254h114.297v1.006H70.376z"/><path class="st0" d="M184.593 148.135H70.303v-1.154h114.29l.074.08H70.377v1.01h114.29z"/><path class="st319" d="M70.376 147.054h114.297v1.006H70.376z"/><path class="st0" d="M184.593 143.934H70.303v-1.154h114.29l.074.074H70.377v1.006h114.29z"/><path class="st320" d="M70.376 142.854h114.297v1.006H70.376z"/><path class="st0" d="M71.942 138.582l-.18.074h2.107l-.08-.074h-1.85zm3.532 0l-.18.074H77.4l-.07-.074h-1.855zm3.53 0l-.18.074h2.104l-.074-.074h-1.85zm3.53 0l-.178.074h2.104l-.074-.074h-1.85zm3.53 0l-.18.074h2.105l-.08-.074h-1.85zm3.532 0l-.18.074h2.105l-.07-.074H89.6zm3.53 0l-.18.074h2.104l-.074-.074h-1.85zm3.53 0l-.178.074h2.107l-.074-.074h-1.85zm3.533 0l-.18.074h2.1l-.08-.074h-1.85zm3.52 0l-.18.074h2.1l-.08-.074h-1.85zm3.53 0l-.18.074h2.1l-.08-.074h-1.86zm3.53 0l-.18.074h2.1l-.08-.074h-1.85zm3.53 0l-.18.074h2.11l-.08-.074h-1.85zm3.53 0l-.18.074h2.1l-.08-.074h-1.86zm3.53 0l-.18.074h2.1l-.08-.074h-1.86zm3.53 0l-.18.074h2.11l-.08-.074h-1.85zm3.53 0l-.18.074h2.1l-.08-.074h-1.86zm3.53 0l-.18.074h2.1l-.08-.074h-1.86zm3.53 0l-.18.074h2.11l-.08-.074h-1.86zm3.53 0l-.18.074h2.1l-.08-.074H139zm3.53 0l-.18.074h2.11l-.08-.074h-1.86zm3.53 0l-.18.074H148l-.074-.074h-1.858zm3.53 0l-.18.074h2.1l-.08-.074h-1.85zm3.53 0l-.18.074h2.1l-.08-.074h-1.86zm3.53 0l-.18.074h2.11l-.08-.074h-1.86zm3.53 0l-.18.074h2.11l-.08-.074h-1.86zm3.53 0l-.18.074h2.11l-.08-.074h-1.86zm3.53 0l-.18.074h2.11l-.08-.074h-1.86zm3.53 0l-.18.074h2.11l-.08-.074h-1.85zm3.53 0l-.18.074h2.11l-.08-.074h-1.86zm3.53 0l-.18.074h2.11l-.08-.074h-1.86zm3.53 0l-.18.074h2.11l-.08-.074h-1.86zm3.19 1.154l.07-.074H70.37v-1.006l-.07.082v.998h114.29z"/><path class="st270" d="M70.376 138.655h114.297v1.006H70.376z"/><g class="st0"><defs><path id="SVGID_9_" d="M241.723 82.13l.1-.238-1.988 1.973h.142l1.746-1.735zm-2.486 2.47l.1-.24-1.988 1.974h.14l1.74-1.735zm-2.483 2.465l.1-.238-1.99 1.976h.14l1.75-1.738zm-2.486 2.472l.1-.24-1.988 1.975h.14l1.748-1.735zm-2.486 2.47l.1-.242-1.988 1.976h.14l1.748-1.73zM229.3 94.47l.098-.238-1.99 1.976h.14l1.75-1.738zm-2.487 2.47l.1-.24-1.988 1.974h.14l1.748-1.735zm-2.486 2.468l.1-.238-1.988 1.973h.13l1.75-1.735zm-2.483 2.466l.1-.238-1.99 1.976h.138l1.752-1.738zm-2.486 2.47l.1-.24-1.988 1.974h.14l1.748-1.735zm-2.486 2.468l.1-.238-1.988 1.976h.14l1.748-1.738zm-2.484 2.47l.1-.242-1.987 1.976h.14l1.75-1.735zm-2.486 2.468l.1-.24-1.987 1.975h.138l1.75-1.735zm-2.486 2.47l.1-.24-1.987 1.974h.13l1.75-1.735zm-2.483 2.465l.1-.238-1.988 1.972h.14l1.748-1.74zm-2.486 2.47l.1-.24-1.988 1.974h.13l1.75-1.74zm-2.486 2.468l.1-.238-1.98 1.97h.14l1.75-1.732zm-2.48 2.466l.1-.24-1.99 1.97h.15l1.75-1.74zm-2.48 2.47l.1-.24-1.98 1.97h.14l1.75-1.74zm-2.48 2.47l.1-.24-1.99 1.97h.14l1.75-1.74zm-2.48 2.46l.1-.24-1.99 1.97h.14l1.75-1.74zm-2.48 2.47l.1-.24-1.99 1.97h.14l1.75-1.74zm-2.48 2.47l.1-.24-1.98 1.97h.14l1.75-1.74zM73.9 138.51v.14L132 81.4h1.424L75.3 138.656l.244-.1L133.66 81.3h-1.706L73.87 138.517zm3.53 0v.14l58.11-57.26h1.424l-58.12 57.26.245-.1 58.1-57.25h-1.71L77.4 138.51zm3.53 0v.14l58.1-57.26h1.425l-58.1 57.26.24-.1 58.09-57.26H139L80.94 138.5zm3.533 0v.14l58.07-57.25h1.426L85.9 138.65l.244-.1L144.2 81.3h-1.7l-58.04 57.217zm3.53 0v.14l58.05-57.25h1.43l-58.07 57.25.245-.1 58.05-57.25h-1.71l-58.02 57.21zm3.53 0v.14l58.04-57.26H151l-58.05 57.26.243-.1 58.042-57.25h-1.71L91.52 138.51zm3.53 0v.14l58.01-57.25h1.43l-58.03 57.25.24-.1 58.03-57.26h-1.71L95.06 138.5zm3.537 0v.14l58-57.25h1.424l-58.01 57.25.24-.1 58.01-57.26h-1.71L98.6 138.5zm3.53 0v.14l57.99-57.26h1.423l-57.997 57.26.24-.1L161.8 81.29h-1.71l-57.96 57.21zm3.53 0v.14l57.96-57.25h1.425l-57.976 57.25.23-.1 57.98-57.26h-1.71l-57.94 57.21zm3.53 0v.14l57.95-57.25h1.427l-57.952 57.25.238-.1L168.8 81.3h-1.708l-57.914 57.214zm3.53 0v.14l57.94-57.26h1.426l-57.94 57.25.24-.1 57.945-57.26h-1.7l-57.9 57.21zm3.53 0v.14l57.91-57.25h1.426l-57.922 57.25.24-.1 57.927-57.26h-1.7l-57.88 57.21zm3.53 0v.14l57.9-57.25h1.427l-57.92 57.25.24-.1 57.91-57.26h-1.71L119.78 138.5zm3.533 0v.14L181.2 81.4h1.422l-57.89 57.25.24-.1 57.89-57.26h-1.702l-57.85 57.21zm3.534 0v.14l57.87-57.26h1.425l-57.88 57.25.24-.1 57.88-57.26h-1.708l-57.84 57.22zm3.53 0v.14l57.85-57.26h1.424l-57.86 57.26.24-.1 57.84-57.25h-1.7l-57.81 57.21zm3.53 0v.14l57.82-57.25h1.428l-57.834 57.25.24-.1 57.84-57.26h-1.71l-57.79 57.21zm3.53 0v.14l57.81-57.25h1.425l-57.82 57.25.24-.1 57.82-57.26h-1.7l-57.78 57.21zm3.53 0v.14l57.8-57.26h1.42l-57.8 57.25.24-.1 57.8-57.26h-1.7l-57.76 57.216zm3.53 0v.14l57.77-57.25h1.425l-57.78 57.25.23-.1 57.79-57.26h-1.71l-57.75 57.21zm3.53 0v.14L205.8 81.4h1.428l-57.77 57.25.24-.1 57.77-57.26h-1.7l-57.73 57.21zm3.53 0v.14l57.75-57.26h1.427L153 138.64l.236-.1 57.73-57.24h-1.7l-57.71 57.21zm3.53 0v.14l57.72-57.25h1.428l-57.73 57.25.24-.1 57.73-57.25h-1.706l-57.69 57.21zm3.538 0v.14l57.71-57.26h1.428l-57.717 57.25.24-.1L218 81.29h-1.703l-57.675 57.215zm3.537 0v.14l57.68-57.25h1.42l-57.7 57.25.24-.1 57.7-57.25h-1.7l-57.66 57.21zm3.53 0v.14l57.68-57.26h1.42l-57.68 57.25.233-.1 57.68-57.25h-1.7l-57.65 57.21zm3.53 0v.14l57.65-57.25h1.42l-57.665 57.25.24-.1 57.65-57.25h-1.703l-57.624 57.21zm3.53 0v.14L230.4 81.4h1.42l-57.65 57.25.24-.1 57.65-57.26h-1.7l-57.61 57.21zm3.53 0v.14l57.63-57.26h1.42l-57.63 57.26.24-.1 57.63-57.26h-1.7L176.3 138.5zm3.53 0v.14l57.6-57.25h1.417l-57.61 57.25.24-.1 57.61-57.26h-1.7l-57.57 57.21zm62.734-57.19v-.02h-1.66l-57.55 57.21v.14l57.58-57.25h1.393v-.02h.16l.06-.06zM70.38 138.76v-.105h.01l3.47-3.467 54.627-53.79h1.423l-58.144 57.256.244-.1 58.14-57.256h-1.702l-54.66 53.818-3.623 3.62v.023h.215z"/></defs><clipPath id="SVGID_10_"><use xlink:href="#SVGID_9_" overflow="visible"/></clipPath><path class="st321" d="M128.484 81.4l-54.63 53.79-3.474 3.47h1.378l58.15-57.26zm3.513 0l-58.133 57.26h1.426l58.132-57.26zm3.515 0l-58.116 57.26h1.423l58.11-57.26zm3.515 0l-58.102 57.26h1.426l58.1-57.26zm3.513 0l-58.083 57.26h1.423l58.082-57.26zm3.51 0l-58.064 57.26h1.426l58.065-57.26zm3.513 0l-58.045 57.26h1.423l58.05-57.26zm3.515 0l-58.03 57.26h1.425l58.03-57.26zm3.515 0l-58.01 57.26h1.422l58.01-57.26zm3.515 0l-57.997 57.26h1.43l57.99-57.26zm3.512 0l-57.977 57.26h1.423l57.977-57.26zm3.512 0l-57.957 57.26h1.423l57.957-57.26zm3.515 0l-57.943 57.26h1.423L172.07 81.4zm3.513 0l-57.924 57.26h1.42l57.926-57.26zm3.514 0l-57.91 57.26h1.424l57.91-57.26zm3.516 0l-57.893 57.26h1.42L182.61 81.4zm3.51 0l-57.87 57.26h1.42l57.874-57.26zm3.516 0l-57.858 57.26h1.423l57.86-57.26zm3.512 0l-57.838 57.26h1.42l57.84-57.26zm3.515 0l-57.82 57.26h1.42l57.82-57.26zm3.512 0l-57.804 57.26h1.42l57.81-57.26zm3.515 0l-57.787 57.26h1.42L203.69 81.4zm3.515 0l-57.77 57.26h1.42l57.77-57.26zm3.512 0l-57.753 57.26h1.423l57.75-57.26zm3.513 0l-57.734 57.26h1.42l57.737-57.26zm3.514 0l-57.716 57.26h1.418l57.72-57.26zm3.516 0l-57.7 57.26h1.418l57.7-57.26zm3.514 0l-57.685 57.26h1.42l57.68-57.26zm3.513 0L169.2 138.66h1.42l57.667-57.26zm3.513 0l-57.65 57.26h1.42L231.8 81.4zm3.514 0l-57.632 57.26h1.42l57.632-57.26zm3.516 0l-57.616 57.26h1.418l57.614-57.26zm3.51 0l-57.596 57.26h1.346l57.645-57.26z"/></g><g class="st0"><defs><path id="SVGID_11_" d="M190.164 133.383l-.528.525-.028-.012v-.18l.527-.523.03.012z"/></defs><clipPath id="SVGID_12_"><use xlink:href="#SVGID_11_" overflow="visible"/></clipPath><path class="st322" d="M188.216 81.4l-57.858 57.26h1.423l57.86-57.26z"/><path class="st323" d="M191.728 81.4l-57.838 57.26h1.42l57.84-57.26z"/><path class="st324" d="M195.243 81.4l-57.82 57.26h1.42l57.82-57.26z"/><path class="st325" d="M198.755 81.4l-57.804 57.26h1.42l57.81-57.26z"/><path class="st326" d="M202.27 81.4l-57.787 57.26h1.42L203.69 81.4z"/><path class="st327" d="M205.785 81.4l-57.77 57.26h1.42l57.77-57.26z"/><path class="st328" d="M209.297 81.4l-57.753 57.26h1.423l57.75-57.26zm3.513 0l-57.734 57.26h1.42l57.737-57.26z"/><path class="st329" d="M216.324 81.4l-57.716 57.26h1.418l57.72-57.26z"/><path class="st330" d="M219.84 81.4l-57.7 57.26h1.418l57.7-57.26zm3.514 0l-57.685 57.26h1.42l57.68-57.26z"/><path class="st331" d="M226.867 81.4L169.2 138.66h1.42l57.667-57.26z"/><path class="st332" d="M230.38 81.4l-57.65 57.26h1.42L231.8 81.4z"/><path class="st333" d="M233.894 81.4l-57.632 57.26h1.42l57.632-57.26z"/><path class="st334" d="M237.41 81.4l-57.616 57.26h1.418l57.614-57.26z"/><path class="st335" d="M240.92 81.4l-57.596 57.26h1.346l57.645-57.26z"/></g><g class="st0"><defs><path id="SVGID_13_" d="M71.93 138.627h-.167l-.005.006h-1.406l-.003-.006v.162h1.46l.13-.14-.01-.03zm112.652.162l.128-.13-.012-.03h-1.374l.005-.01h-.15l-.14.13.01.03h1.52zm-109.12-.17h-1.598l.005-.01h-.16l-.14.13.01.03h1.75l.13-.14-.02-.03zm3.53 0H77.39v-.01h-.155l-.133.13.01.03h1.745l.13-.14-.01-.03zm3.532 0H80.93l.01-.01h-.152l-.134.13.013.03h1.75l.13-.14-.01-.03zm3.53 0h-1.6l.006-.01h-.153l-.134.13.012.03h1.746l.14-.14-.01-.03zm3.53 0h-1.602l.007-.01h-.16l-.14.13.01.03h1.75l.13-.14-.01-.03zm3.53 0H91.52l.01-.01h-.15l-.13.13.01.03H93l.132-.14-.01-.03zm3.532 0h-1.603l.007-.01h-.153l-.133.13.01.03h1.75l.133-.14-.01-.03zm3.532 0H98.58l.005-.01h-.153l-.134.13.012.03h1.746l.133-.14-.02-.03zm3.53 0h-1.6l.006-.01h-.153l-.13.13.01.03h1.75l.14-.14-.01-.03zm3.53 0h-1.598l.006-.01h-.153l-.134.13.01.03h1.74l.13-.14-.01-.03zm3.533 0h-1.58l.01-.01h-.15l-.13.13.02.03h1.75l.14-.14-.01-.03zm3.53 0h-1.59l.01-.01h-.15l-.13.13.02.03h1.75l.14-.14-.01-.03zm3.53 0h-1.58l.01-.01h-.15l-.13.13.01.03h1.75l.13-.14-.01-.03zm3.53 0h-1.58l.01-.01h-.15l-.13.13.01.03h1.75l.13-.14-.01-.03zm3.53 0h-1.59l.01-.01h-.15l-.13.13.01.03h1.75l.14-.14-.01-.03zm3.54 0h-1.59l.01-.01h-.15l-.13.13.01.03h1.75l.13-.14-.01-.03zm3.53 0h-1.59l.01-.01h-.15l-.13.13.01.03h1.75l.14-.14-.01-.03zm3.53 0h-1.59l.01-.01h-.15l-.13.13.01.03h1.75l.14-.14-.01-.03zm3.53 0h-1.59l.01-.01h-.15l-.13.13.01.03h1.74l.14-.14-.01-.03zm3.53 0h-1.59l.01-.01h-.15l-.13.13.01.03h1.75l.14-.14-.01-.03zm3.53 0h-1.59l.01-.01h-.15l-.13.13.01.03h1.75l.14-.14-.01-.03zm3.53 0h-1.58l.01-.01h-.15l-.13.13.01.03h1.75l.14-.14-.01-.03zm3.53 0h-1.59l.01-.01h-.16l-.13.13.01.03h1.75l.14-.14-.01-.03zm3.53 0h-1.58l.01-.01h-.15l-.13.13.01.03h1.75l.14-.14-.01-.03zm3.53 0h-1.58l.01-.01h-.15l-.13.13.01.03h1.74l.14-.14-.01-.03zm3.53 0h-1.58l.01-.01H162l-.13.13.01.03h1.74l.132-.14-.014-.03zm3.54 0h-1.59l.01-.01h-.15l-.13.13.01.03h1.75l.14-.14-.01-.03zm3.53 0h-1.59l.01-.01h-.15l-.13.13.01.03h1.74l.14-.14-.01-.03zm3.53 0h-1.59l.01-.01h-.15l-.13.13.01.03h1.75l.13-.14-.01-.03zm3.53 0h-1.59l.01-.01h-.15l-.13.13.01.03h1.75l.14-.14-.01-.03zm3.53 0h-1.59l.01-.01h-.15l-.13.13.01.03h1.74l.14-.14-.01-.03z"/></defs><clipPath id="SVGID_14_"><use xlink:href="#SVGID_13_" overflow="visible"/></clipPath><path class="st336" d="M128.484 81.4l-54.63 53.79-3.474 3.47h1.378l58.15-57.26z"/><path class="st337" d="M131.997 81.4l-58.133 57.26h1.426l58.132-57.26z"/><path class="st338" d="M135.512 81.4l-58.116 57.26h1.423l58.11-57.26z"/><path class="st339" d="M139.027 81.4l-58.102 57.26h1.426l58.1-57.26z"/><path class="st340" d="M142.54 81.4l-58.083 57.26h1.423l58.082-57.26zm3.51 0l-58.064 57.26h1.426l58.065-57.26z"/><path class="st341" d="M149.563 81.4l-58.045 57.26h1.423l58.05-57.26z"/><path class="st342" d="M153.078 81.4l-58.03 57.26h1.425l58.03-57.26z"/><path class="st343" d="M156.593 81.4l-58.01 57.26h1.422l58.01-57.26z"/><path class="st344" d="M160.108 81.4l-57.997 57.26h1.43l57.99-57.26z"/><path class="st345" d="M163.62 81.4l-57.977 57.26h1.423l57.977-57.26z"/><path class="st346" d="M167.132 81.4l-57.957 57.26h1.423l57.957-57.26z"/><path class="st347" d="M170.647 81.4l-57.943 57.26h1.423L172.07 81.4zm3.513 0l-57.924 57.26h1.42l57.926-57.26z"/><path class="st348" d="M177.674 81.4l-57.91 57.26h1.424l57.91-57.26z"/><path class="st349" d="M181.19 81.4l-57.893 57.26h1.42L182.61 81.4zm3.51 0l-57.87 57.26h1.42l57.874-57.26z"/><path class="st350" d="M188.216 81.4l-57.858 57.26h1.423l57.86-57.26z"/><path class="st351" d="M191.728 81.4l-57.838 57.26h1.42l57.84-57.26z"/><path class="st352" d="M195.243 81.4l-57.82 57.26h1.42l57.82-57.26z"/><path class="st353" d="M198.755 81.4l-57.804 57.26h1.42l57.81-57.26z"/><path class="st354" d="M202.27 81.4l-57.787 57.26h1.42L203.69 81.4z"/><path class="st355" d="M205.785 81.4l-57.77 57.26h1.42l57.77-57.26z"/><path class="st356" d="M209.297 81.4l-57.753 57.26h1.423l57.75-57.26zm3.513 0l-57.734 57.26h1.42l57.737-57.26z"/><path class="st357" d="M216.324 81.4l-57.716 57.26h1.418l57.72-57.26z"/><path class="st358" d="M219.84 81.4l-57.7 57.26h1.418l57.7-57.26zm3.514 0l-57.685 57.26h1.42l57.68-57.26z"/><path class="st359" d="M226.867 81.4L169.2 138.66h1.42l57.667-57.26z"/><path class="st360" d="M230.38 81.4l-57.65 57.26h1.42L231.8 81.4z"/><path class="st361" d="M233.894 81.4l-57.632 57.26h1.42l57.632-57.26z"/><path class="st362" d="M237.41 81.4l-57.616 57.26h1.418l57.614-57.26z"/><path class="st363" d="M240.92 81.4l-57.596 57.26h1.346l57.645-57.26z"/></g><path class="st364" d="M128.484 81.4l-54.63 53.79-3.474 3.47h1.378l58.15-57.26z"/><path class="st365" d="M131.997 81.4l-58.133 57.26h1.426l58.132-57.26z"/><path class="st366" d="M135.512 81.4l-58.116 57.26h1.423l58.11-57.26z"/><path class="st367" d="M139.027 81.4l-58.102 57.26h1.426l58.1-57.26z"/><path class="st368" d="M142.54 81.4l-58.083 57.26h1.423l58.082-57.26z"/><path class="st369" d="M146.05 81.4l-58.064 57.26h1.426l58.065-57.26z"/><path class="st370" d="M149.563 81.4l-58.045 57.26h1.423l58.05-57.26z"/><path class="st371" d="M153.078 81.4l-58.03 57.26h1.425l58.03-57.26z"/><path class="st372" d="M156.593 81.4l-58.01 57.26h1.422l58.01-57.26z"/><path class="st373" d="M160.108 81.4l-57.997 57.26h1.43l57.99-57.26z"/><path class="st374" d="M163.62 81.4l-57.977 57.26h1.423l57.977-57.26z"/><path class="st375" d="M167.132 81.4l-57.957 57.26h1.423l57.957-57.26z"/><path class="st376" d="M170.647 81.4l-57.943 57.26h1.423L172.07 81.4z"/><path class="st377" d="M174.16 81.4l-57.924 57.26h1.42l57.926-57.26z"/><path class="st378" d="M177.674 81.4l-57.91 57.26h1.424l57.91-57.26z"/><path class="st379" d="M181.19 81.4l-57.893 57.26h1.42L182.61 81.4z"/><path class="st380" d="M184.7 81.4l-57.87 57.26h1.42l57.874-57.26z"/><path class="st381" d="M188.216 81.4l-57.858 57.26h1.423l57.86-57.26z"/><path class="st382" d="M191.728 81.4l-57.838 57.26h1.42l57.84-57.26z"/><path class="st383" d="M195.243 81.4l-57.82 57.26h1.42l57.82-57.26z"/><path class="st384" d="M198.755 81.4l-57.804 57.26h1.42l57.81-57.26z"/><path class="st385" d="M202.27 81.4l-57.787 57.26h1.42L203.69 81.4z"/><path class="st386" d="M205.785 81.4l-57.77 57.26h1.42l57.77-57.26z"/><path class="st387" d="M209.297 81.4l-57.753 57.26h1.423l57.75-57.26z"/><path class="st388" d="M212.81 81.4l-57.734 57.26h1.42l57.737-57.26z"/><path class="st389" d="M216.324 81.4l-57.716 57.26h1.418l57.72-57.26z"/><path class="st390" d="M219.84 81.4l-57.7 57.26h1.418l57.7-57.26z"/><path class="st391" d="M223.354 81.4l-57.685 57.26h1.42l57.68-57.26z"/><path class="st392" d="M226.867 81.4L169.2 138.66h1.42l57.667-57.26z"/><path class="st264" d="M230.38 81.4l-57.65 57.26h1.42L231.8 81.4z"/><path class="st393" d="M233.894 81.4l-57.632 57.26h1.42l57.632-57.26z"/><path class="st394" d="M237.41 81.4l-57.616 57.26h1.418l57.614-57.26z"/><path class="st395" d="M240.92 81.4l-57.596 57.26h1.346l57.645-57.26z"/></svg>